<svg width="34" height="34" viewBox="0 0 34 34" fill="none" xmlns="http://www.w3.org/2000/svg">
<circle cx="17" cy="17" r="16.5" stroke="#484848"/>
<path d="M20.6762 11L19.6776 11.9985L21.2965 13.6173H17.7058V15.0294H21.2965L19.6776 16.6482L20.6762 17.6467L23.9995 14.3234L20.6762 11ZM13.4696 17.5005C15.2243 17.5005 16.6468 16.0781 16.6468 14.3234C16.6468 12.5687 15.2243 11.1462 13.4696 11.1462C11.7149 11.1462 10.2924 12.5687 10.2924 14.3234C10.2924 16.0781 11.7149 17.5005 13.4696 17.5005ZM12.703 22.0897L14.3218 23.7086L13.3234 24.707L10 21.3837L13.3234 18.0603L14.3218 19.0588L12.703 20.6776H16.2937V22.0897H12.703ZM18.4118 18.5595C18.0219 18.5595 17.7058 18.8756 17.7058 19.2656V23.5018C17.7058 23.8917 18.0219 24.2078 18.4118 24.2078H22.648C23.0379 24.2078 23.3541 23.8917 23.3541 23.5018V19.2656C23.3541 18.8756 23.0379 18.5595 22.648 18.5595H18.4118Z" fill="black"/>
</svg>
