<svg width="34" height="34" viewBox="0 0 34 34" fill="none" xmlns="http://www.w3.org/2000/svg">
<circle cx="17" cy="17" r="16.5" stroke="#484848"/>
<path d="M17 27C11.4771 27 7 22.5228 7 17C7 11.4771 11.4771 7 17 7C22.5228 7 27 11.4771 27 17C27 22.5228 22.5228 27 17 27ZM21.8201 22.0761C23.1628 20.8007 24 18.9981 24 17C24 13.134 20.866 10 17 10C15.9391 10 14.9334 10.236 14.0324 10.6583L15.0072 12.4129C15.6177 12.1473 16.2917 12 17 12C19.7614 12 22 14.2386 22 17H19L21.8201 22.0761ZM19.9676 23.3417L18.9928 21.5871C18.3823 21.8527 17.7083 22 17 22C14.2386 22 12 19.7614 12 17H15L12.1799 11.9239C10.8372 13.1993 10 15.0019 10 17C10 20.866 13.134 24 17 24C18.0609 24 19.0666 23.764 19.9676 23.3417Z" fill="#484848"/>
</svg>
