<svg width="34" height="34" viewBox="0 0 34 34" fill="none" xmlns="http://www.w3.org/2000/svg">
<circle cx="17" cy="17" r="16.5" stroke="#484848"/>
<path d="M10.8557 20.3333V22.2222C10.8557 23.218 11.7371 24.1111 12.7113 24.1111H15.4948V26H12.7113C10.6616 26 9 24.3086 9 22.2222V20.3333H10.8557ZM22.9175 15.6111L27 26H25.0005L23.8862 23.1667H20.0913L18.9789 26H16.9803L21.0619 15.6111H22.9175ZM21.9897 18.336L20.8327 21.2778H23.1448L21.9897 18.336ZM9 9H14.567C16.1043 9 17.3505 10.2685 17.3505 11.8333C17.3505 12.5594 17.0822 13.2217 16.641 13.7231C17.0826 14.2236 17.3505 14.8855 17.3505 15.6111C17.3505 17.176 16.1043 18.4444 14.567 18.4444H9V9ZM14.567 14.6667H10.8557V16.5556H14.567C15.0794 16.5556 15.4948 16.1327 15.4948 15.6111C15.4948 15.0917 15.0773 14.6667 14.567 14.6667ZM21.9897 9C24.0394 9 25.701 10.6914 25.701 12.7778V14.6667H23.8454V12.7778C23.8454 11.7346 23.0146 10.8889 21.9897 10.8889H19.2062V9H21.9897ZM14.567 10.8889H10.8557V12.7778H14.567C15.0794 12.7778 15.4948 12.3549 15.4948 11.8333C15.4948 11.3139 15.0773 10.8889 14.567 10.8889Z" fill="#484848"/>
</svg>
