<svg width="35" height="35" viewBox="0 0 35 35" fill="none" xmlns="http://www.w3.org/2000/svg">
<circle cx="17.6758" cy="17.6602" r="16.5" stroke="#484848"/>
<path d="M19.6498 10.9932C18.878 10.3356 17.743 10.3356 16.9714 10.9932L16.0436 11.7838C15.9334 11.8778 15.7963 11.9345 15.652 11.9461L14.4369 12.043C13.4262 12.1237 12.6237 12.9262 12.543 13.9369L12.4461 15.152C12.4345 15.2963 12.3778 15.4334 12.2838 15.5436L11.4932 16.4714C10.8356 17.2431 10.8356 18.378 11.4932 19.1497L12.2838 20.0775C12.3778 20.1877 12.4345 20.3248 12.4461 20.4692L12.543 21.6841C12.6237 22.6948 13.4263 23.4974 14.4369 23.578L15.652 23.6751C15.7963 23.6865 15.9334 23.7433 16.0436 23.8373L16.9713 24.6278C17.743 25.2854 18.878 25.2855 19.6498 24.6278L20.5775 23.8373C20.6877 23.7433 20.8247 23.6865 20.9691 23.675L22.1842 23.578C23.1948 23.4974 23.9974 22.6949 24.0781 21.6841L24.175 20.4692C24.1865 20.3248 24.2433 20.1877 24.3372 20.0774L25.1278 19.1498C25.7855 18.378 25.7855 17.243 25.1278 16.4714L24.3372 15.5436C24.2433 15.4334 24.1866 15.2963 24.1751 15.152L24.0781 13.9369C23.9974 12.9262 23.1948 12.1237 22.1842 12.043L20.9691 11.946C20.8247 11.9345 20.6877 11.8778 20.5775 11.7838L19.6498 10.9932ZM20.257 14.8907L21.2303 15.864L16.3638 20.7305L15.3905 19.7572L20.257 14.8907ZM17.0938 16.5939C16.6906 16.9971 16.0369 16.9971 15.6338 16.5939C15.2306 16.1909 15.2306 15.5372 15.6338 15.134C16.0369 14.7309 16.6906 14.7309 17.0938 15.134C17.4969 15.5372 17.4969 16.1909 17.0938 16.5939ZM19.527 20.4872C19.1238 20.084 19.1238 19.4304 19.527 19.0272C19.9301 18.6241 20.5838 18.6241 20.9869 19.0272C21.3901 19.4304 21.3901 20.084 20.9869 20.4872C20.5838 20.8903 19.9301 20.8903 19.527 20.4872Z" fill="#484848"/>
</svg>
