<svg width="35" height="35" viewBox="0 0 35 35" fill="none" xmlns="http://www.w3.org/2000/svg">
<circle cx="17.6758" cy="17.6602" r="16.5" stroke="#484848"/>
<path d="M24.6 15.2895V17.5C24.6 19.3313 21.7794 20.8158 18.3 20.8158C14.8206 20.8158 12 19.3313 12 17.5V15.2895C12 17.1207 14.8206 18.6053 18.3 18.6053C21.7794 18.6053 24.6 17.1207 24.6 15.2895ZM12 18.9737C12 20.805 14.8206 22.2895 18.3 22.2895C21.7794 22.2895 24.6 20.805 24.6 18.9737V21.1842C24.6 23.0155 21.7794 24.5 18.3 24.5C14.8206 24.5 12 23.0155 12 21.1842V18.9737ZM18.3 17.1316C14.8206 17.1316 12 15.647 12 13.8158C12 11.9845 14.8206 10.5 18.3 10.5C21.7794 10.5 24.6 11.9845 24.6 13.8158C24.6 15.647 21.7794 17.1316 18.3 17.1316Z" fill="#484848"/>
</svg>
