<svg width="34" height="35" viewBox="0 0 34 35" fill="none" xmlns="http://www.w3.org/2000/svg">
<circle cx="17" cy="17.668" r="16.5" stroke="#484848"/>
<path d="M23.6 14.7895V17C23.6 18.8313 20.7794 20.3158 17.3 20.3158C13.8206 20.3158 11 18.8313 11 17V14.7895C11 16.6207 13.8206 18.1053 17.3 18.1053C20.7794 18.1053 23.6 16.6207 23.6 14.7895ZM11 18.4737C11 20.305 13.8206 21.7895 17.3 21.7895C20.7794 21.7895 23.6 20.305 23.6 18.4737V20.6842C23.6 22.5155 20.7794 24 17.3 24C13.8206 24 11 22.5155 11 20.6842V18.4737ZM17.3 16.6316C13.8206 16.6316 11 15.147 11 13.3158C11 11.4845 13.8206 10 17.3 10C20.7794 10 23.6 11.4845 23.6 13.3158C23.6 15.147 20.7794 16.6316 17.3 16.6316Z" fill="#484848"/>
</svg>
