<svg width="34" height="35" viewBox="0 0 34 35" fill="none" xmlns="http://www.w3.org/2000/svg">
<circle cx="17" cy="17.668" r="16.5" stroke="#484848"/>
<path d="M12.1205 21.2384L16.4788 23.8824C15.4727 24.6166 14.2091 24.9259 12.9777 24.7395C12.2434 23.7334 11.9341 22.4699 12.1205 21.2384ZM19.9947 21.5925L20.383 23.7591L19.6555 24.9582L9.69883 18.918L10.4263 17.7188L12.5272 17.0623L14.7186 13.4501C16.0336 11.2825 18.7107 10.3839 21.3006 11.0201C23.0613 13.0232 23.501 15.8127 22.1861 17.9803L19.9947 21.5925ZM17.6973 16.9598C18.3847 17.3768 19.2799 17.1576 19.6969 16.4702C20.1139 15.7828 19.8947 14.8876 19.2073 14.4706C18.52 14.0536 17.6247 14.2728 17.2077 14.9601C16.7907 15.6475 17.0099 16.5428 17.6973 16.9598Z" fill="#484848"/>
</svg>
