<svg xmlns="http://www.w3.org/2000/svg" width="543" height="385" fill="none" xmlns:v="https://vecta.io/nano"><style><![CDATA[.B{fill-opacity:.22}.C{fill-opacity:.19}.D{stroke:#37a6f7}.E{fill:#37a6f7}.F{shape-rendering:crispEdges}.G{color-interpolation-filters:sRGB}]]></style><path d="M148.404 251.006l4.98 2.875v-5.75l-4.98 2.875zm-77.189-36.852l2.875-4.98h-5.75l2.875 4.98zm145.415 36.354h-63.744v.996h63.744v-.996zM94.621 137.463h-7.47v.996h7.47v-.996zm-23.904 16.434v55.775h.996v-55.775h-.996zm16.434-16.434c-9.076 0-16.434 7.358-16.434 16.434h.996a15.44 15.44 0 0 1 15.438-15.438v-.996z" fill="#9d9d9d"/><rect x="18.926" y="13.957" width="110.581" height="37.556" rx="18.778" fill="#fff" fill-opacity=".2"/><g filter="url(#A)" class="F"><rect x="254.455" y="146.742" width="244.512" height="161.47" rx="14.994" transform="rotate(7.482 254.455 146.742)" fill="#000" fill-opacity=".14"/><rect x="254.952" y="147.389" width="243.358" height="160.317" rx="14.417" transform="rotate(7.482 254.952 147.389)" stroke-width="1.153" class="D"/></g><circle cx="289.225" cy="192.021" r="19.607" transform="rotate(7.482 289.225 192.021)" fill="#e0e0e0" class="C"/><g fill="#3c3c3c"><rect x="322.051" y="181.211" width="64.588" height="6.92" rx="3.46" transform="rotate(7.482 322.051 181.211)"/><rect x="320.551" y="192.648" width="93.422" height="6.92" rx="3.46" transform="rotate(7.482 320.551 192.648)"/><rect x="319.049" y="204.082" width="93.422" height="6.92" rx="3.46" transform="rotate(7.482 319.049 204.082)"/></g><g fill="#d9d9d9"><circle cx="477.377" cy="198.706" r="1.73" transform="rotate(7.482 477.377 198.706)"/><circle cx="476.746" cy="203.511" r="1.73" transform="rotate(7.482 476.746 203.511)"/><circle cx="476.115" cy="208.312" r="1.73" transform="rotate(7.482 476.115 208.312)"/></g><g class="E C"><rect x="265.277" y="223.773" width="208.758" height="26.527" rx="5.767" transform="rotate(7.482 265.277 223.773)"/><rect x="260.77" y="258.082" width="208.758" height="34.601" rx="5.767" transform="rotate(7.482 260.77 258.082)"/></g><path d="M347.173 118.972l3.795-6.573h-7.59l3.795 6.573zM138.807 32.208h187.332v-1.315H138.807v1.315zm207.708 20.377v60.472h1.315V52.585h-1.315zm-20.376-20.376a20.38 20.38 0 0 1 20.376 20.377h1.315c0-11.98-9.712-21.691-21.691-21.691v1.315z" fill="#9d9d9d"/><circle cx="35.096" cy="32.215" r="7.824" fill="#636363"/><rect x=".345" y="233.423" width="123.426" height="35.166" rx="17.583" stroke-width=".69" class="C D E"/><path d="M46.165 248.742c-.148-.273-.362-.479-.643-.62-.273-.148-.596-.222-.97-.222-.647 0-1.165.215-1.554.643-.39.421-.584.986-.584 1.695 0 .756.203 1.348.608 1.776.413.421.978.631 1.695.631.491 0 .904-.124 1.239-.374.343-.249.592-.607.748-1.075h-2.536v-1.472h4.347v1.858c-.148.498-.401.962-.76 1.391-.351.428-.799.775-1.344 1.04s-1.161.397-1.847.397c-.81 0-1.535-.175-2.174-.526-.631-.358-1.126-.853-1.484-1.484-.351-.631-.526-1.352-.526-2.162s.175-1.531.526-2.162a3.78 3.78 0 0 1 1.484-1.485c.631-.358 1.352-.537 2.162-.537.982 0 1.808.237 2.478.713.678.475 1.126 1.133 1.344 1.975h-2.209zm9.603 2.244c0 .187-.012.382-.035.584H51.21c.031.405.16.717.386.935a1.23 1.23 0 0 0 .853.316c.499 0 .845-.211 1.04-.632h2.127a2.87 2.87 0 0 1-.596 1.157c-.281.343-.635.612-1.064.807s-.908.292-1.437.292c-.639 0-1.208-.136-1.706-.409a2.91 2.91 0 0 1-1.169-1.169c-.28-.506-.421-1.098-.421-1.776s.136-1.27.409-1.776c.28-.507.67-.896 1.169-1.169s1.071-.409 1.718-.409c.631 0 1.192.132 1.683.397s.873.643 1.145 1.134c.28.491.421 1.063.421 1.718zm-2.045-.526c0-.343-.117-.616-.351-.818s-.526-.304-.877-.304c-.335 0-.619.097-.853.292-.226.195-.366.471-.421.83h2.501zm6.734 2.197v1.695H59.44c-.725 0-1.289-.176-1.695-.526-.405-.359-.608-.939-.608-1.742v-2.594h-.795v-1.66h.795v-1.589h1.999v1.589h1.309v1.66h-1.309v2.618c0 .194.047.335.14.42s.249.129.468.129h.713zm6.243 1.788c-.569 0-1.075-.097-1.519-.292a2.62 2.62 0 0 1-1.052-.795c-.257-.343-.401-.724-.432-1.145h1.975c.023.226.128.409.316.549s.417.211.689.211c.249 0 .44-.047.573-.141.14-.101.21-.23.21-.385 0-.187-.097-.324-.292-.409-.195-.094-.51-.195-.947-.304-.467-.109-.857-.222-1.169-.339-.312-.125-.581-.316-.806-.573-.226-.265-.339-.619-.339-1.063 0-.374.101-.713.304-1.017.21-.312.514-.557.912-.736.405-.18.884-.269 1.438-.269.818 0 1.461.202 1.928.607.475.406.748.943.818 1.613H67.46c-.031-.226-.133-.405-.304-.537-.164-.133-.382-.199-.655-.199-.234 0-.413.047-.538.14-.125.086-.187.207-.187.363 0 .187.097.327.292.42.203.094.514.187.935.281.483.124.877.249 1.18.374.304.117.569.311.795.584.234.265.354.623.362 1.075a1.72 1.72 0 0 1-.327 1.029c-.21.296-.518.53-.923.701-.397.171-.861.257-1.391.257zm7.499-1.788v1.695h-1.017c-.725 0-1.29-.176-1.695-.526-.405-.359-.608-.939-.608-1.742v-2.594h-.795v-1.66h.795v-1.589h1.998v1.589h1.309v1.66h-1.309v2.618c0 .194.047.335.14.42s.249.129.467.129h.713zm.716-1.578c0-.67.125-1.258.374-1.764.257-.507.604-.896 1.04-1.169s.923-.409 1.461-.409c.46 0 .861.093 1.204.28.351.187.619.433.806.737v-.924h1.998v6.522h-1.998v-.924c-.195.304-.468.55-.818.737-.343.187-.744.28-1.204.28-.53 0-1.013-.136-1.449-.409-.436-.28-.783-.674-1.04-1.18-.249-.515-.374-1.107-.374-1.777zm4.885.012c0-.499-.14-.892-.421-1.18-.273-.289-.608-.433-1.005-.433s-.736.144-1.017.433c-.273.28-.409.67-.409 1.168s.136.896.409 1.192c.281.289.619.433 1.017.433s.732-.144 1.005-.433c.28-.288.421-.681.421-1.18zm5.443-2.174c.234-.358.526-.639.876-.841.351-.211.74-.316 1.169-.316v2.115h-.549c-.499 0-.873.11-1.122.328-.249.21-.374.584-.374 1.122v3.027h-1.999v-6.522h1.999v1.087zm6.635 3.74v1.695H90.86c-.725 0-1.289-.176-1.695-.526-.405-.359-.608-.939-.608-1.742v-2.594h-.795v-1.66h.795v-1.589h1.998v1.589h1.309v1.66h-1.309v2.618c0 .194.047.335.14.42s.249.129.467.129h.713zm7.261-1.671c0 .187-.012.382-.035.584H94.58c.031.405.16.717.386.935a1.23 1.23 0 0 0 .853.316c.499 0 .845-.211 1.04-.632h2.127a2.87 2.87 0 0 1-.596 1.157c-.281.343-.635.612-1.064.807s-.908.292-1.437.292c-.639 0-1.208-.136-1.706-.409a2.91 2.91 0 0 1-1.169-1.169c-.281-.506-.421-1.098-.421-1.776s.136-1.27.409-1.776a2.91 2.91 0 0 1 1.169-1.169c.499-.273 1.071-.409 1.718-.409.631 0 1.192.132 1.683.397s.873.643 1.145 1.134c.28.491.421 1.063.421 1.718zm-2.045-.526c0-.343-.117-.616-.351-.818s-.526-.304-.876-.304c-.335 0-.619.097-.853.292-.226.195-.366.471-.421.83h2.501zm2.702.619c0-.67.125-1.258.374-1.764.258-.507.604-.896 1.041-1.169s.923-.409 1.46-.409c.429 0 .819.089 1.169.269.359.179.639.42.842.724v-3.027h1.998v8.649h-1.998v-.935a2.03 2.03 0 0 1-.807.748c-.343.187-.744.28-1.204.28-.537 0-1.024-.136-1.46-.409a2.96 2.96 0 0 1-1.041-1.18c-.249-.515-.374-1.107-.374-1.777zm4.886.012c0-.499-.141-.892-.421-1.18-.273-.289-.608-.433-1.005-.433s-.736.144-1.017.433c-.273.28-.409.67-.409 1.168s.136.896.409 1.192c.281.289.619.433 1.017.433s.732-.144 1.005-.433c.28-.288.421-.681.421-1.18z" fill="#848484"/><circle cx="19.997" cy="250.316" r="10.343" fill="#d9d9d9" fill-opacity=".45"/><g fill="#fff"><rect x="49.176" y="25.602" width="50.232" height="5.382" rx="2.691" transform="rotate(359.809 49.176 25.602)" fill-opacity=".37"/><rect x="49.207" y="34.57" width="72.657" height="5.382" rx="2.691" transform="rotate(359.809 49.207 34.57)" fill-opacity=".37"/></g><rect x="181.691" y="32.535" width="42.068" height="42.068" rx="4.601" transform="rotate(315 181.691 32.535)" fill="#484848" stroke="#1a1a1a" stroke-width="3.944"/><g filter="url(#B)"><rect x="104.342" y="95.414" width="81.248" height="114.944" rx="8.917" transform="rotate(344.512 104.342 95.414)" fill="#1a1a1a"/><rect x="104.952" y="95.759" width="80.257" height="113.954" rx="8.422" transform="rotate(344.512 104.952 95.759)" stroke-width=".991" class="D"/></g><g fill="#fff" class="B"><rect width="26.192" height="3.605" rx="1.803" transform="matrix(.963677 -.26707 .226768 .973949 131.104 95.5469)"/><rect width="37.885" height="3.916" rx="1.958" transform="matrix(.963677 -.26707 .226768 .973949 129.1 101.734)"/></g><g class="E B"><rect width="16.144" height="5.09" rx="2.545" transform="matrix(.963677 -.26707 .226768 .973949 132.133 107.641)"/><rect width="69.554" height="7.645" rx="3.822" transform="matrix(.963677 -.26707 .226768 .973949 130.146 158.445)"/><path d="M134.444 175.144c-.989-3.279.967-6.832 4.273-7.763l55.222-15.544c3.099-.872 6.229.899 7.07 4.002l3.906 14.413c.883 3.255-1.087 6.707-4.342 7.609l-54.882 15.209c-3.031.84-6.095-.843-7.001-3.847l-4.246-14.079z"/><rect width="16.144" height="5.09" rx="2.545" transform="matrix(.963677 -.26707 .226768 .973949 148.979 102.684)"/></g><g fill="#fff" class="B"><rect x="119.244" y="124.754" width="21.308" height="31.591" rx="1.776" transform="rotate(344.51 119.244 124.754)"/><rect x="143.027" y="117.816" width="21.308" height="31.591" rx="1.776" transform="rotate(344.51 143.027 117.816)"/><rect x="165.816" y="110.883" width="21.308" height="31.591" rx="1.776" transform="rotate(344.51 165.816 110.883)"/></g><defs><filter id="A" x="187.793" y="101.107" width="354.729" height="283.207" filterUnits="userSpaceOnUse" class="G"><feFlood flood-opacity="0" result="A"/><feColorMatrix in="SourceAlpha" values="0 0 0 0 0 0 0 0 0 0 0 0 0 0 0 0 0 0 127 0" result="B"/><feOffset/><feGaussianBlur stdDeviation="23.73"/><feComposite in2="B" operator="out"/><feColorMatrix values="0 0 0 0 0.215686 0 0 0 0 0.65098 0 0 0 0 0.968627 0 0 0 0.3 0"/><feBlend in2="A"/><feBlend in="SourceGraphic"/></filter><filter id="B" x="60.819" y="30.196" width="196.039" height="219.511" filterUnits="userSpaceOnUse" class="G"><feFlood flood-opacity="0" result="A"/><feColorMatrix in="SourceAlpha" values="0 0 0 0 0 0 0 0 0 0 0 0 0 0 0 0 0 0 127 0" result="B"/><feOffset/><feGaussianBlur stdDeviation="22.789"/><feComposite in2="B" operator="out"/><feColorMatrix values="0 0 0 0 0.215686 0 0 0 0 0.65098 0 0 0 0 0.968627 0 0 0 0.48 0"/><feBlend in2="A"/><feBlend in="SourceGraphic"/></filter></defs></svg>