<svg width="24" height="25" viewBox="0 0 24 25" fill="none" xmlns="http://www.w3.org/2000/svg">
<path d="M9.34932 15.8632C9.34932 15.8632 16.1188 15.4456 19.5185 17.6821L20.4579 17.4883C20.9767 17.3812 21.3105 16.8738 21.2034 16.355L20.028 10.6596C20.7953 10.2838 21.2422 9.42464 21.0616 8.54923C20.8809 7.67383 20.1304 7.06177 19.277 7.02045L18.1016 1.32502C17.9946 0.806221 17.4872 0.472435 16.9684 0.579503L16.029 0.773363C13.7925 4.17307 7.41072 6.46946 7.41072 6.46946L3.65321 7.2449C2.61561 7.45904 1.94805 8.47377 2.16218 9.51138L3.32534 15.1476C3.53948 16.1853 4.55421 16.8528 5.59181 16.6387L6.53119 16.4448L8.43986 20.9478L10.3186 20.5601L9.34932 15.8632ZM9.61151 7.64224C10.225 7.37206 10.9787 7.01802 11.7832 6.58932C13.264 5.80031 15.1165 4.65653 16.5281 3.19186L19.0194 15.2636C17.1432 14.4775 14.9893 14.1605 13.3172 14.0222C12.4086 13.947 11.5763 13.9203 10.906 13.915L9.61151 7.64224ZM4.04093 9.12366L7.79844 8.34822L8.9616 13.9845L5.20409 14.7599L4.04093 9.12366Z" fill="#707070"/>
</svg>
