<svg width="24" height="25" viewBox="0 0 24 25" fill="none" xmlns="http://www.w3.org/2000/svg">
<path d="M16.8576 8.45187H20.9052V10.0709H16.8576V8.45187ZM15.2386 12.4995H20.9052V14.1185H15.2386V12.4995ZM17.6671 16.5471H20.9052V18.1662H17.6671V16.5471ZM3.0957 20.5947C3.0957 17.018 5.99519 14.1185 9.57189 14.1185C13.1486 14.1185 16.0481 17.018 16.0481 20.5947H14.429C14.429 17.9122 12.2544 15.7376 9.57189 15.7376C6.88937 15.7376 4.71475 17.9122 4.71475 20.5947H3.0957ZM9.57189 13.309C6.88832 13.309 4.71475 11.1354 4.71475 8.45187C4.71475 5.7683 6.88832 3.59473 9.57189 3.59473C12.2555 3.59473 14.429 5.7683 14.429 8.45187C14.429 11.1354 12.2555 13.309 9.57189 13.309ZM9.57189 11.69C11.3609 11.69 12.81 10.2409 12.81 8.45187C12.81 6.66282 11.3609 5.21377 9.57189 5.21377C7.78285 5.21377 6.3338 6.66282 6.3338 8.45187C6.3338 10.2409 7.78285 11.69 9.57189 11.69Z" fill="#707070"/>
</svg>
