<svg width="24" height="25" viewBox="0 0 24 25" fill="none" xmlns="http://www.w3.org/2000/svg">
<path d="M10.8891 8.61097L12.3033 10.0252C15.037 12.7589 15.037 17.191 12.3033 19.9247L11.9498 20.2782C9.21607 23.0119 4.78392 23.0119 2.05025 20.2782C-0.683418 17.5446 -0.683418 13.1124 2.05025 10.3787L3.46447 11.793C1.51185 13.7456 1.51185 16.9114 3.46447 18.864C5.41709 20.8166 8.58287 20.8166 10.5356 18.864L10.8891 18.5105C12.8417 16.5578 12.8417 13.392 10.8891 11.4394L9.47487 10.0252L10.8891 8.61097ZM17.6066 14.6214L16.1924 13.2072C18.145 11.2545 18.145 8.08872 16.1924 6.1361C14.2398 4.18348 11.074 4.18348 9.12137 6.1361L8.76777 6.48965C6.81515 8.44227 6.81515 11.6081 8.76777 13.5607L10.182 14.9749L8.76777 16.3891L7.35355 14.9749C4.61988 12.2413 4.61988 7.80911 7.35355 5.07544L7.70711 4.72188C10.4408 1.98821 14.873 1.98821 17.6066 4.72188C20.3403 7.45555 20.3403 11.8877 17.6066 14.6214Z" fill="#707070"/>
</svg>
