<svg width="25" height="25" viewBox="0 0 25 25" fill="none" xmlns="http://www.w3.org/2000/svg">
<path d="M2.38931 7.35442L11.636 1.80867C11.9527 1.61872 12.3484 1.61879 12.665 1.80885L21.9038 7.3544C22.0544 7.44477 22.1465 7.6075 22.1465 7.7831V20.5001C22.1465 21.0524 21.6988 21.5001 21.1465 21.5001H3.14648C2.5942 21.5001 2.14648 21.0524 2.14648 20.5001V7.78322C2.14648 7.60755 2.23866 7.44478 2.38931 7.35442ZM4.59167 8.36568C4.31549 8.53132 4.14648 8.82975 4.14648 9.1518V18.5834C4.14648 19.0897 4.55689 19.5001 5.06315 19.5001H19.2298C19.7361 19.5001 20.1465 19.0897 20.1465 18.5834V10.1889C20.1465 9.22311 19.6398 8.32811 18.8118 7.83106L12.6218 4.1155C12.3315 3.94127 11.9688 3.94121 11.6785 4.11533L4.59167 8.36568ZM11.6167 13.7125C11.9581 13.994 12.452 13.9912 12.7904 13.7061L16.7374 10.3798C17.1597 10.0239 17.7906 10.0778 18.1465 10.5001C18.5024 10.9224 18.4485 11.5533 18.0262 11.9092L13.973 15.3249C12.9578 16.1804 11.4764 16.1885 10.4519 15.3442L6.28219 11.9078C5.85599 11.5565 5.79523 10.9263 6.14648 10.5001C6.49773 10.0739 7.12798 10.0131 7.55417 10.3644L11.6167 13.7125Z" fill="#5E5E5E"/>
</svg>
