<svg width="380" height="273" viewBox="0 0 380 273" fill="none" xmlns="http://www.w3.org/2000/svg">
<path d="M144.647 42.844L135.677 41.6122L133.396 45.9591L130.563 45.5701L140.808 26.1416L143.906 26.567L148.505 48.0337L145.672 47.6448L144.647 42.844ZM144.18 40.555L141.888 29.6573L136.744 39.5339L144.18 40.555ZM151.857 40.2261C152.086 38.5539 152.621 37.144 153.46 35.9965C154.301 34.8293 155.36 33.9825 156.635 33.456C157.929 32.9322 159.344 32.7757 160.878 32.9864C162.865 33.2593 164.432 33.9654 165.578 35.105C166.744 36.2472 167.416 37.7025 167.594 39.4707L164.702 39.0736C164.562 38.0522 164.128 37.2008 163.4 36.5196C162.691 35.841 161.746 35.4207 160.566 35.2586C159.032 35.0479 157.719 35.4089 156.629 36.3415C155.542 37.2545 154.866 38.675 154.601 40.6029C154.333 42.5505 154.599 44.1203 155.397 45.3122C156.196 46.5042 157.362 47.2056 158.897 47.4163C160.077 47.5784 161.099 47.438 161.961 46.9952C162.824 46.5524 163.473 45.8398 163.908 44.8574L166.8 45.2545C166.14 46.8475 165.092 48.0566 163.656 48.8816C162.223 49.6869 160.532 49.9559 158.585 49.6885C157.05 49.4778 155.73 48.9457 154.625 48.0924C153.539 47.2418 152.748 46.141 152.252 44.7902C151.756 43.4393 151.624 41.9179 151.857 40.2261ZM169.785 42.6578C170.012 41.0053 170.545 39.6053 171.384 38.4578C172.226 37.2906 173.274 36.4424 174.529 35.9132C175.804 35.3868 177.17 35.2235 178.625 35.4234C180.022 35.6152 181.199 36.0974 182.155 36.8701C183.133 37.6258 183.807 38.4899 184.174 39.4624L184.579 36.5115L187.294 36.8843L184.02 60.7275L181.305 60.3547L182.768 49.702C182.132 50.5367 181.24 51.1959 180.091 51.6795C178.942 52.1632 177.66 52.3078 176.243 52.1133C174.827 51.9188 173.587 51.3877 172.524 50.5201C171.46 49.6525 170.682 48.5335 170.189 47.1629C169.695 45.7923 169.561 44.2906 169.785 42.6578ZM183.473 44.5674C183.641 43.3477 183.541 42.2516 183.173 41.2792C182.805 40.3067 182.231 39.5263 181.45 38.938C180.691 38.3327 179.81 37.9612 178.807 37.8235C177.804 37.6857 176.856 37.7962 175.965 38.1548C175.074 38.5135 174.321 39.1116 173.705 39.949C173.089 40.7864 172.697 41.8149 172.529 43.0346C172.359 44.274 172.456 45.3898 172.821 46.3819C173.189 47.3544 173.752 48.1433 174.511 48.7485C175.272 49.3341 176.155 49.6958 177.158 49.8336C178.161 49.9714 179.108 49.8609 179.999 49.5022C180.913 49.1265 181.678 48.52 182.294 47.6826C182.912 46.8255 183.306 45.7871 183.473 44.5674ZM206.173 39.4767L203.953 55.6476L201.268 55.2788L201.596 52.8886C200.971 53.6446 200.164 54.1952 199.174 54.5404C198.207 54.8686 197.173 54.9571 196.071 54.8058C194.812 54.6329 193.716 54.2218 192.783 53.5726C191.853 52.9037 191.164 52.0074 190.717 50.8837C190.289 49.7627 190.178 48.4546 190.384 46.9595L191.684 37.4871L194.34 37.8518L193.088 46.9701C192.869 48.5636 193.104 49.8485 193.792 50.8248C194.482 51.7815 195.526 52.3557 196.922 52.5475C198.358 52.7447 199.55 52.4574 200.498 51.6856C201.446 50.9138 202.036 49.682 202.268 47.9901L203.488 39.1079L206.173 39.4767ZM212.455 37.6634C211.943 37.5932 211.535 37.3567 211.229 36.954C210.924 36.5512 210.806 36.0941 210.877 35.5826C210.947 35.0711 211.183 34.6627 211.586 34.3572C211.989 34.0517 212.446 33.9341 212.957 34.0043C213.449 34.0718 213.838 34.3056 214.124 34.7056C214.429 35.1084 214.547 35.5655 214.477 36.077C214.406 36.5885 214.17 36.9969 213.767 37.3024C213.384 37.6106 212.947 37.7309 212.455 37.6634ZM213.393 40.468L211.172 56.6389L208.487 56.2701L210.707 40.0993L213.393 40.468ZM220.294 44.0914C220.893 43.2317 221.661 42.6055 222.596 42.2128C223.552 41.8229 224.659 41.7144 225.918 41.8873L225.537 44.6611L224.829 44.5639C221.819 44.1506 220.09 45.5767 219.642 48.8424L218.434 57.636L215.749 57.2673L217.969 41.0964L220.655 41.4652L220.294 44.0914ZM242.707 52.0997C242.637 52.6112 242.533 53.1482 242.395 53.7106L229.471 51.9358C229.35 53.5428 229.72 54.8663 230.579 55.9063C231.461 56.9293 232.61 57.5381 234.026 57.7326C235.187 57.892 236.187 57.7588 237.027 57.333C237.89 56.8902 238.541 56.2379 238.98 55.3762L241.872 55.7733C241.225 57.268 240.186 58.418 238.752 59.2234C237.321 60.009 235.642 60.2695 233.714 60.0048C232.18 59.7941 230.85 59.2607 229.725 58.4047C228.619 57.5514 227.809 56.4479 227.293 55.0943C226.78 53.7211 226.638 52.1983 226.868 50.5262C227.098 48.854 227.633 47.4343 228.475 46.2671C229.317 45.0999 230.384 44.2643 231.675 43.7602C232.99 43.2391 234.434 43.0866 236.008 43.3027C237.542 43.5134 238.854 44.0343 239.942 44.8652C241.031 45.6962 241.809 46.745 242.276 48.0118C242.766 49.2617 242.909 50.6243 242.707 52.0997ZM240.01 51.1582C240.15 50.1352 240.044 49.2287 239.692 48.4387C239.342 47.629 238.799 46.9833 238.064 46.5014C237.351 46.0026 236.522 45.6884 235.578 45.5587C234.22 45.3723 233 45.6457 231.917 46.379C230.854 47.1149 230.148 48.2407 229.8 49.7562L240.01 51.1582Z" fill="black"/>
<path d="M259.03 128.091L258.086 134.966L265.581 135.995L265.278 138.208L257.782 137.179L256.81 144.261L265.19 145.412L264.886 147.625L253.821 146.106L256.649 125.509L267.715 127.028L267.411 129.241L259.03 128.091ZM279.09 132.799C281.057 133.069 282.568 133.888 283.623 135.256C284.681 136.603 285.055 138.399 284.747 140.641L283.439 150.173L280.783 149.808L282.039 140.66C282.26 139.047 282.026 137.762 281.336 136.806C280.648 135.829 279.606 135.245 278.209 135.053C276.792 134.859 275.6 135.146 274.633 135.915C273.685 136.687 273.095 137.919 272.863 139.611L271.635 148.552L268.95 148.183L271.17 132.012L273.856 132.381L273.539 134.683C274.184 133.93 274.99 133.389 275.957 133.061C276.944 132.735 277.988 132.648 279.09 132.799ZM296.751 135.254C298.148 135.446 299.326 135.919 300.285 136.672C301.263 137.427 301.945 138.303 302.329 139.297L302.734 136.347L305.449 136.719L303.18 153.244C302.977 154.72 302.483 155.985 301.697 157.039C300.908 158.114 299.879 158.894 298.609 159.381C297.359 159.871 295.957 160.009 294.403 159.796C292.279 159.504 290.577 158.76 289.298 157.562C288.02 156.364 287.371 154.882 287.353 153.116L290.009 153.48C290.169 154.504 290.671 155.375 291.515 156.092C292.355 156.829 293.425 157.287 294.723 157.465C296.199 157.667 297.462 157.37 298.514 156.572C299.585 155.777 300.236 154.544 300.465 152.872L300.931 149.478C300.27 150.349 299.375 151.028 298.246 151.515C297.117 152.001 295.854 152.148 294.458 151.956C293.021 151.759 291.762 151.226 290.679 150.355C289.615 149.488 288.837 148.369 288.344 146.998C287.85 145.627 287.716 144.126 287.94 142.493C288.167 140.84 288.7 139.44 289.539 138.293C290.381 137.126 291.429 136.277 292.685 135.748C293.959 135.222 295.315 135.057 296.751 135.254ZM301.628 144.403C301.796 143.183 301.696 142.087 301.328 141.114C300.961 140.142 300.386 139.361 299.605 138.773C298.846 138.168 297.965 137.796 296.962 137.659C295.959 137.521 295.012 137.631 294.121 137.99C293.229 138.349 292.476 138.947 291.86 139.784C291.244 140.621 290.852 141.65 290.684 142.87C290.514 144.109 290.612 145.225 290.976 146.217C291.344 147.189 291.907 147.978 292.666 148.584C293.427 149.169 294.31 149.531 295.313 149.669C296.316 149.806 297.263 149.696 298.154 149.337C299.068 148.962 299.833 148.355 300.449 147.518C301.068 146.661 301.461 145.622 301.628 144.403ZM307.882 145.231C308.109 143.579 308.642 142.179 309.481 141.031C310.322 139.864 311.371 139.016 312.626 138.487C313.901 137.96 315.256 137.795 316.693 137.993C318.109 138.187 319.297 138.661 320.256 139.414C321.214 140.167 321.886 141.041 322.271 142.036L322.676 139.085L325.391 139.458L323.17 155.629L320.455 155.256L320.869 152.246C320.208 153.117 319.303 153.795 318.154 154.278C317.028 154.745 315.766 154.882 314.37 154.691C312.934 154.493 311.684 153.961 310.62 153.093C309.557 152.226 308.779 151.107 308.285 149.736C307.792 148.366 307.657 146.864 307.882 145.231ZM321.57 147.141C321.737 145.921 321.637 144.825 321.27 143.853C320.902 142.88 320.328 142.1 319.547 141.511C318.788 140.906 317.907 140.535 316.904 140.397C315.9 140.259 314.953 140.37 314.062 140.728C313.171 141.087 312.417 141.685 311.801 142.522C311.185 143.36 310.793 144.388 310.626 145.608C310.456 146.847 310.553 147.963 310.918 148.955C311.286 149.928 311.849 150.717 312.607 151.322C313.369 151.907 314.251 152.269 315.254 152.407C316.258 152.545 317.205 152.434 318.096 152.076C319.01 151.7 319.774 151.093 320.39 150.256C321.009 149.399 321.402 148.36 321.57 147.141ZM336.634 140.731C338.031 140.923 339.209 141.395 340.168 142.148C341.146 142.904 341.828 143.779 342.212 144.774L342.617 141.823L345.332 142.196L343.063 158.721C342.861 160.196 342.366 161.461 341.58 162.516C340.791 163.59 339.762 164.371 338.492 164.858C337.243 165.348 335.841 165.486 334.286 165.273C332.162 164.981 330.46 164.236 329.182 163.038C327.903 161.84 327.255 160.358 327.236 158.592L329.892 158.957C330.052 159.981 330.554 160.852 331.398 161.569C332.239 162.306 333.308 162.763 334.607 162.941C336.082 163.144 337.346 162.846 338.397 162.049C339.468 161.254 340.119 160.02 340.348 158.348L340.814 154.955C340.154 155.826 339.259 156.505 338.129 156.991C337 157.477 335.737 157.625 334.341 157.433C332.905 157.236 331.645 156.702 330.562 155.832C329.498 154.964 328.72 153.845 328.227 152.474C327.734 151.104 327.599 149.602 327.823 147.969C328.05 146.317 328.583 144.917 329.422 143.769C330.264 142.602 331.312 141.754 332.568 141.225C333.843 140.698 335.198 140.534 336.634 140.731ZM341.511 149.879C341.679 148.659 341.579 147.563 341.211 146.591C340.844 145.618 340.269 144.838 339.488 144.25C338.73 143.644 337.849 143.273 336.845 143.135C335.842 142.997 334.895 143.108 334.004 143.466C333.113 143.825 332.359 144.423 331.743 145.261C331.127 146.098 330.735 147.127 330.568 148.346C330.397 149.586 330.495 150.701 330.86 151.694C331.227 152.666 331.79 153.455 332.549 154.06C333.31 154.646 334.193 155.007 335.196 155.145C336.199 155.283 337.147 155.172 338.038 154.814C338.951 154.438 339.716 153.832 340.332 152.994C340.951 152.137 341.344 151.099 341.511 149.879ZM363.6 152.311C363.529 152.822 363.426 153.359 363.288 153.922L350.363 152.147C350.243 153.754 350.612 155.077 351.472 156.117C352.353 157.14 353.502 157.749 354.919 157.944C356.08 158.103 357.08 157.97 357.92 157.544C358.783 157.101 359.433 156.449 359.873 155.587L362.764 155.984C362.118 157.479 361.078 158.629 359.645 159.434C358.214 160.22 356.535 160.481 354.607 160.216C353.072 160.005 351.743 159.472 350.617 158.616C349.512 157.762 348.701 156.659 348.186 155.305C347.673 153.932 347.531 152.409 347.761 150.737C347.99 149.065 348.526 147.645 349.368 146.478C350.21 145.311 351.276 144.475 352.568 143.971C353.882 143.45 355.327 143.298 356.9 143.514C358.435 143.724 359.746 144.245 360.835 145.076C361.923 145.907 362.701 146.956 363.169 148.223C363.659 149.473 363.802 150.835 363.6 152.311ZM360.903 151.369C361.043 150.346 360.937 149.44 360.585 148.65C360.235 147.84 359.692 147.194 358.957 146.712C358.243 146.214 357.415 145.899 356.47 145.77C355.113 145.583 353.893 145.857 352.81 146.59C351.747 147.326 351.041 148.452 350.693 149.967L360.903 151.369Z" fill="black"/>
<path d="M146.661 215.397C145.304 215.211 144.117 214.807 143.1 214.187C142.105 213.549 141.361 212.765 140.867 211.836C140.376 210.886 140.197 209.85 140.332 208.726L143.194 209.119C143.16 210.096 143.442 210.967 144.038 211.73C144.657 212.476 145.636 212.941 146.973 213.125C148.252 213.301 149.299 213.124 150.113 212.594C150.95 212.048 151.437 211.273 151.575 210.269C151.683 209.483 151.554 208.813 151.189 208.262C150.824 207.711 150.334 207.263 149.72 206.918C149.106 206.573 148.268 206.177 147.207 205.731C145.898 205.191 144.855 204.687 144.077 204.219C143.319 203.754 142.697 203.107 142.209 202.279C141.744 201.433 141.599 200.371 141.775 199.092C141.929 197.971 142.35 197.017 143.04 196.23C143.729 195.442 144.618 194.883 145.706 194.551C146.813 194.222 148.036 194.15 149.373 194.333C151.301 194.598 152.809 195.296 153.896 196.427C155.003 197.562 155.526 198.936 155.465 200.551L152.514 200.146C152.523 199.346 152.205 198.6 151.558 197.91C150.914 197.2 149.992 196.763 148.792 196.598C147.67 196.444 146.715 196.614 145.926 197.107C145.139 197.58 144.674 198.338 144.531 199.381C144.429 200.128 144.551 200.766 144.9 201.295C145.268 201.827 145.739 202.262 146.314 202.602C146.911 202.924 147.749 203.32 148.827 203.789C150.133 204.349 151.173 204.873 151.948 205.36C152.726 205.827 153.357 206.485 153.842 207.334C154.329 208.162 154.484 209.226 154.306 210.524C154.168 211.527 153.773 212.435 153.12 213.248C152.467 214.06 151.582 214.67 150.463 215.078C149.345 215.485 148.078 215.592 146.661 215.397ZM173.437 209.994C173.367 210.506 173.263 211.043 173.126 211.605L160.201 209.83C160.081 211.437 160.45 212.761 161.309 213.801C162.191 214.824 163.34 215.433 164.757 215.627C165.917 215.787 166.918 215.653 167.758 215.228C168.62 214.785 169.271 214.133 169.71 213.271L172.602 213.668C171.956 215.163 170.916 216.313 169.483 217.118C168.052 217.904 166.373 218.164 164.445 217.899C162.91 217.689 161.58 217.155 160.455 216.299C159.35 215.446 158.539 214.343 158.024 212.989C157.511 211.616 157.369 210.093 157.598 208.421C157.828 206.749 158.364 205.329 159.206 204.162C160.047 202.994 161.114 202.159 162.406 201.655C163.72 201.134 165.164 200.981 166.738 201.197C168.273 201.408 169.584 201.929 170.673 202.76C171.761 203.591 172.539 204.64 173.006 205.906C173.496 207.156 173.64 208.519 173.437 209.994ZM170.74 209.053C170.881 208.03 170.775 207.123 170.422 206.333C170.073 205.524 169.53 204.878 168.794 204.396C168.081 203.897 167.252 203.583 166.308 203.453C164.951 203.267 163.731 203.54 162.648 204.274C161.585 205.009 160.879 206.135 160.53 207.651L170.74 209.053ZM181.47 197.718L178.472 219.555L175.786 219.186L178.785 197.35L181.47 197.718ZM188.732 198.715L185.734 220.552L183.048 220.183L186.047 198.347L188.732 198.715Z" fill="black"/>
<path d="M22.3489 123.249C20.9915 123.063 19.8042 122.659 18.7871 122.038C17.7923 121.401 17.048 120.617 16.5543 119.687C16.0633 118.738 15.885 117.701 16.0193 116.577L18.8817 116.97C18.8477 117.948 19.129 118.818 19.7257 119.582C20.3448 120.328 21.3232 120.793 22.6609 120.977C23.9396 121.152 24.9862 120.975 25.8005 120.446C26.6372 119.899 27.1244 119.124 27.2622 118.121C27.3702 117.334 27.2416 116.665 26.8764 116.114C26.5111 115.563 26.0214 115.114 25.4074 114.77C24.7933 114.425 23.9557 114.029 22.8945 113.583C21.5857 113.042 20.5425 112.538 19.7649 112.071C19.007 111.606 18.3842 110.959 17.8967 110.13C17.4315 109.285 17.2867 108.223 17.4623 106.944C17.6163 105.823 18.038 104.868 18.7273 104.081C19.4167 103.294 20.3053 102.734 21.3931 102.403C22.5006 102.074 23.7232 102.001 25.0609 102.185C26.9888 102.449 28.4965 103.148 29.5838 104.279C30.6908 105.413 31.2136 106.788 31.1522 108.403L28.2013 107.998C28.211 107.197 27.8924 106.452 27.2455 105.762C26.6014 105.052 25.6793 104.615 24.4793 104.45C23.3579 104.296 22.4027 104.465 21.6134 104.958C20.8268 105.432 20.362 106.19 20.2188 107.232C20.1162 107.98 20.239 108.618 20.5873 109.147C20.9552 109.678 21.4266 110.114 22.0013 110.454C22.5984 110.776 23.436 111.172 24.5142 111.64C25.8202 112.201 26.8608 112.724 27.6357 113.211C28.4133 113.679 29.0445 114.337 29.5294 115.185C30.0169 116.014 30.1715 117.077 29.9932 118.376C29.8555 119.379 29.4602 120.287 28.8075 121.099C28.1548 121.912 27.2693 122.522 26.151 122.929C25.0327 123.337 23.7653 123.443 22.3489 123.249ZM49.7368 110.323L47.5163 126.494L44.831 126.126L45.1592 123.735C44.5343 124.491 43.7271 125.042 42.7376 125.387C41.7706 125.715 40.7362 125.804 39.6345 125.653C38.3755 125.48 37.2794 125.069 36.3464 124.419C35.416 123.75 34.7273 122.854 34.2803 121.73C33.853 120.609 33.742 119.301 33.9473 117.806L35.2479 108.334L37.9037 108.699L36.6517 117.817C36.4329 119.41 36.6673 120.695 37.355 121.672C38.0455 122.628 39.0891 123.202 40.4858 123.394C41.9219 123.591 43.1139 123.304 44.0617 122.532C45.0095 121.761 45.5995 120.529 45.8319 118.837L47.0515 109.955L49.7368 110.323ZM56.5469 114.295C57.205 113.443 58.0972 112.784 59.2236 112.318C60.3724 111.834 61.6452 111.688 63.0419 111.88C64.478 112.077 65.7291 112.6 66.7953 113.447C67.8811 114.298 68.672 115.399 69.168 116.75C69.6666 118.081 69.8025 119.573 69.5756 121.225C69.3514 122.858 68.8171 124.268 67.9726 125.455C67.1282 126.642 66.0671 127.508 64.7895 128.054C63.5316 128.603 62.1846 128.779 60.7485 128.582C59.3714 128.393 58.1936 127.92 57.215 127.165C56.2588 126.392 55.5688 125.505 55.1449 124.505L53.6821 135.158L50.9968 134.789L54.2708 110.946L56.9561 111.315L56.5469 114.295ZM66.8313 120.848C66.9988 119.629 66.8987 118.533 66.5312 117.56C66.1636 116.588 65.5893 115.807 64.8082 115.219C64.0468 114.633 63.1644 114.272 62.1611 114.134C61.1775 113.999 60.229 114.119 59.3155 114.495C58.4244 114.854 57.6597 115.46 57.0212 116.315C56.4051 117.152 56.0147 118.171 55.8499 119.371C55.6824 120.59 55.7811 121.696 56.146 122.688C56.5332 123.664 57.1062 124.454 57.8649 125.059C58.646 125.647 59.5284 126.009 60.512 126.144C61.5153 126.282 62.4625 126.171 63.3536 125.813C64.267 125.437 65.0318 124.831 65.6479 123.993C66.2666 123.136 66.6611 122.088 66.8313 120.848ZM76.4884 117.033C77.1466 116.182 78.0388 115.523 79.1652 115.056C80.314 114.572 81.5867 114.426 82.9835 114.618C84.4196 114.815 85.6707 115.338 86.7368 116.186C87.8226 117.036 88.6135 118.137 89.1095 119.488C89.6082 120.819 89.7441 122.311 89.5172 123.964C89.293 125.596 88.7586 127.006 87.9142 128.193C87.0697 129.38 86.0087 130.247 84.7311 130.793C83.4732 131.341 82.1262 131.517 80.6901 131.32C79.313 131.131 78.1351 130.659 77.1566 129.903C76.2004 129.13 75.5103 128.244 75.0864 127.243L73.6237 137.896L70.9384 137.527L74.2124 113.684L76.8977 114.053L76.4884 117.033ZM86.7729 123.587C86.9403 122.367 86.8403 121.271 86.4727 120.298C86.1052 119.326 85.5309 118.546 84.7498 117.957C83.9884 117.372 83.106 117.01 82.1027 116.872C81.1191 116.737 80.1705 116.858 79.2571 117.233C78.366 117.592 77.6012 118.198 76.9628 119.053C76.3467 119.89 75.9563 120.909 75.7915 122.109C75.624 123.329 75.7227 124.435 76.0875 125.427C76.4748 126.402 77.0477 127.192 77.8065 127.797C78.5876 128.386 79.4699 128.747 80.4535 128.882C81.4568 129.02 82.404 128.91 83.2951 128.551C84.2086 128.175 84.9733 127.569 85.5894 126.731C86.2082 125.874 86.6027 124.826 86.7729 123.587ZM98.9496 133.827C97.4348 133.619 96.105 133.086 94.9602 132.227C93.835 131.371 93.0048 130.265 92.4695 128.909C91.9565 127.536 91.8148 126.013 92.0444 124.341C92.2714 122.688 92.8254 121.281 93.7065 120.119C94.6099 118.94 95.7273 118.102 97.0585 117.603C98.3924 117.085 99.8266 116.931 101.361 117.142C102.896 117.352 104.235 117.887 105.38 118.746C106.528 119.585 107.369 120.682 107.904 122.039C108.459 123.398 108.622 124.913 108.392 126.585C108.163 128.258 107.586 129.682 106.663 130.858C105.762 132.017 104.635 132.854 103.282 133.37C101.928 133.886 100.484 134.038 98.9496 133.827ZM99.2738 131.467C100.238 131.599 101.174 131.497 102.082 131.161C102.99 130.824 103.762 130.239 104.397 129.404C105.053 128.572 105.47 127.507 105.648 126.209C105.826 124.91 105.722 123.773 105.335 122.798C104.947 121.823 104.37 121.062 103.604 120.516C102.839 119.95 101.975 119.601 101.011 119.469C100.028 119.334 99.0918 119.436 98.2034 119.775C97.3374 120.097 96.5964 120.676 95.9803 121.514C95.3642 122.351 94.9671 123.419 94.7888 124.718C94.6078 126.036 94.6912 127.179 95.0391 128.149C95.4067 129.122 95.9627 129.89 96.7071 130.453C97.4543 130.996 98.3098 131.334 99.2738 131.467ZM115.354 122.009C115.953 121.15 116.721 120.523 117.656 120.131C118.612 119.741 119.719 119.632 120.978 119.805L120.597 122.579L119.889 122.482C116.879 122.068 115.15 123.495 114.702 126.76L113.494 135.554L110.809 135.185L113.029 119.014L115.715 119.383L115.354 122.009ZM127.009 123.189L125.7 132.72C125.592 133.507 125.682 134.091 125.971 134.471C126.262 134.832 126.821 135.069 127.647 135.182L129.624 135.454L129.312 137.726L126.893 137.394C125.397 137.188 124.323 136.69 123.67 135.899C123.017 135.108 122.799 133.925 123.015 132.352L124.324 122.82L122.229 122.532L122.533 120.319L124.628 120.607L125.187 116.535L127.872 116.903L127.313 120.976L131.533 121.555L131.229 123.768L127.009 123.189Z" fill="black"/>
<path d="M312.747 115.391L323.581 101.434L306.077 99.0304L312.747 115.391ZM270.544 53.3108L296.213 56.8356L296.629 53.8037L270.96 50.279L270.544 53.3108ZM315.713 82.5436L313.105 101.54L316.137 101.956L318.745 82.9599L315.713 82.5436ZM296.213 56.8356C308.697 58.5498 317.427 70.0597 315.713 82.5436L318.745 82.9599C320.689 68.8015 310.788 55.7479 296.629 53.8037L296.213 56.8356Z" fill="#37A6F7"/>
<path d="M115.002 33.4482L101.045 22.6145L98.6415 40.1187L115.002 33.4482ZM67.1155 97.8917L73.3749 52.307L70.3431 51.8907L64.0837 97.4754L67.1155 97.8917ZM99.083 32.8067L101.151 33.0907L101.567 30.0589L99.4993 29.7749L99.083 32.8067ZM73.3749 52.307C75.0892 39.8231 86.599 31.0925 99.083 32.8067L99.4993 29.7749C85.3409 27.8308 72.2873 37.7323 70.3431 51.8907L73.3749 52.307Z" fill="#37A6F7"/>
<path d="M58.626 148.47L47.7923 162.428L65.2966 164.831L58.626 148.47ZM122.249 202.332L76.6644 196.072L76.2481 199.104L121.833 205.364L122.249 202.332ZM57.1641 170.364L58.2685 162.322L55.2367 161.905L54.1323 169.948L57.1641 170.364ZM76.6644 196.072C64.1805 194.358 55.4499 182.848 57.1641 170.364L54.1323 169.948C52.1882 184.106 62.0898 197.16 76.2481 199.104L76.6644 196.072Z" fill="#37A6F7"/>
<path d="M195.728 213.971L209.685 224.805L212.089 207.301L195.728 213.971ZM302.619 177.921L299.094 203.59L302.126 204.006L305.651 178.337L302.619 177.921ZM273.386 223.09L209.579 214.329L209.163 217.36L272.97 226.122L273.386 223.09ZM299.094 203.59C297.38 216.074 285.87 224.804 273.386 223.09L272.97 226.122C287.128 228.066 300.182 218.165 302.126 204.006L299.094 203.59Z" fill="#37A6F7"/>
<circle cx="23.4133" cy="55.802" r="22.9151" stroke="#37A6F7" stroke-width="0.99631"/>
<circle cx="346.716" cy="228.661" r="32.3801" stroke="#37A6F7" stroke-width="0.99631"/>
<circle cx="108.597" cy="250.577" r="21.4207" stroke="#37A6F7" stroke-width="0.99631"/>
<circle cx="273.987" cy="16.4464" r="13.4502" stroke="#37A6F7" stroke-width="0.99631"/>
<g clip-path="url(#clip0_2522_4077)">
<path d="M12.5095 52.9594C13.8976 49.8388 17.4503 48.357 20.6133 49.4954C22.1986 46.5324 25.8295 45.2539 28.95 46.642C32.0649 48.0276 33.547 51.5701 32.42 54.7288L27.9834 64.7493C27.5564 65.7091 26.4639 66.1651 25.491 65.8155L25.3529 65.7601L15.3477 61.289C12.3954 59.6978 11.1239 56.0743 12.5095 52.9594ZM14.3301 53.7692C13.3525 55.9669 14.2855 58.5303 16.4136 59.5976L16.6044 59.6877L26.1627 63.9394L29.1987 57.1117L24.648 55.0875L24.0407 56.453C23.3697 57.9612 21.6032 58.64 20.095 57.9692C18.5867 57.2982 17.9079 55.5317 18.5788 54.0234L19.7815 51.3172C17.6987 50.6541 15.4127 51.5995 14.4204 53.5783L14.3301 53.7692ZM23.2323 53.3673C23.4559 52.8646 24.0448 52.6383 24.5475 52.862L30.0086 55.291L30.4144 54.3811C31.4207 52.1188 30.4025 49.469 28.1401 48.4626C25.9423 47.485 23.379 48.4179 22.3118 50.546L22.2215 50.7369L20.3994 54.8333C20.1917 55.3001 20.372 55.8412 20.8013 56.0951L20.9048 56.1485C21.3717 56.3562 21.9127 56.1759 22.1667 55.7466L22.2201 55.6431L23.2323 53.3673Z" fill="#37A6F7"/>
</g>
<path d="M274.979 24.3543C278.584 23.9048 281.442 21.0472 281.891 17.4418H278.964V15.4492H281.891C281.442 11.8438 278.584 8.98629 274.979 8.5367V11.464H272.986V8.5367C269.381 8.98629 266.523 11.8438 266.074 15.4492H269.001V17.4418H266.074C266.523 21.0472 269.381 23.9048 272.986 24.3543V21.4271H274.979V24.3543ZM273.983 26.4086C268.48 26.4086 264.02 21.9479 264.02 16.4455C264.02 10.9431 268.48 6.48242 273.983 6.48242C279.485 6.48242 283.946 10.9431 283.946 16.4455C283.946 21.9479 279.485 26.4086 273.983 26.4086ZM273.983 18.4381C272.882 18.4381 271.99 17.546 271.99 16.4455C271.99 15.345 272.882 14.4529 273.983 14.4529C275.083 14.4529 275.975 15.345 275.975 16.4455C275.975 17.546 275.083 18.4381 273.983 18.4381Z" fill="#37A6F7"/>
<g clip-path="url(#clip1_2522_4077)">
<path d="M342.926 212.967C351.804 210.667 360.865 215.999 363.165 224.877C365.465 233.755 360.132 242.816 351.254 245.116C342.377 247.416 333.315 242.083 331.016 233.205C328.716 224.328 334.048 215.267 342.926 212.967ZM343.759 216.182C336.657 218.021 332.391 225.27 334.231 232.373C336.07 239.475 343.319 243.741 350.422 241.901C357.524 240.061 361.79 232.812 359.95 225.71C358.11 218.608 350.861 214.342 343.759 216.182ZM346.674 227.434C349.889 226.601 352.707 226.443 355.128 226.959C356.277 231.398 353.611 235.929 349.172 237.079C344.733 238.228 340.203 235.562 339.053 231.123C340.919 229.496 343.459 228.267 346.674 227.434ZM339.382 222.461C341.327 221.958 343.306 222.919 344.154 224.657L336.277 226.698C336.173 224.766 337.438 222.965 339.382 222.461ZM350.634 219.547C352.579 219.043 354.559 220.004 355.406 221.742L347.529 223.783C347.426 221.852 348.69 220.05 350.634 219.547Z" fill="#37A6F7"/>
</g>
<path d="M121.384 250.086C121.384 243.3 115.883 237.799 109.096 237.799C102.31 237.799 96.8083 243.3 96.8083 250.086C96.8083 256.873 102.31 262.374 109.096 262.374C115.883 262.374 121.384 256.873 121.384 250.086ZM124.456 250.086C124.456 258.569 117.579 265.446 109.096 265.446C100.613 265.446 93.7363 258.569 93.7363 250.086C93.7363 241.603 100.613 234.727 109.096 234.727C117.579 234.727 124.456 241.603 124.456 250.086ZM111.401 243.942C111.904 244.612 112.264 245.395 112.437 246.246H115.24V248.55H112.437C111.903 251.179 109.579 253.158 106.792 253.158H106.501L112.215 258.872L110.586 260.501L102.952 252.868V250.854H106.792C108.297 250.854 109.577 249.893 110.051 248.55H102.952V246.246H110.051C109.577 244.904 108.297 243.942 106.792 243.942H102.952V241.638H115.24V243.942H111.401Z" fill="#37A6F7"/>
<defs>
<clipPath id="clip0_2522_4077">
<rect width="23.9114" height="23.9114" fill="white" transform="translate(7.9707 49.9316) rotate(-21.0197)"/>
</clipPath>
<clipPath id="clip1_2522_4077">
<rect width="39.8524" height="39.8524" fill="white" transform="translate(322.803 214.742) rotate(-14.5233)"/>
</clipPath>
</defs>
</svg>
