<svg xmlns="http://www.w3.org/2000/svg" width="381" height="272" fill="none" xmlns:v="https://vecta.io/nano"><path d="M144.794 43.02l-8.203-1.126-1.896 3.738-4.338-.596 10.239-19.61 4.81.66 4.574 21.644-4.367-.6-.819-4.111zm-.667-3.459l-1.797-9.026-4.164 8.207 5.961.819zm8.682.23c.232-1.692.779-3.12 1.64-4.284.864-1.184 1.954-2.037 3.268-2.558 1.317-.541 2.762-.703 4.336-.487 2.026.278 3.628 1.019 4.806 2.223 1.2 1.187 1.9 2.726 2.102 4.618l-4.456-.612c-.139-.741-.467-1.347-.983-1.819-.494-.489-1.154-.79-1.981-.903-1.18-.162-2.174.142-2.981.913-.805.751-1.315 1.914-1.531 3.488-.214 1.554-.036 2.811.534 3.772.572.94 1.449 1.492 2.629 1.654 1.672.23 2.867-.368 3.583-1.793l4.456.612c-.695 1.708-1.784 2.992-3.264 3.851s-3.225 1.151-5.232.875c-1.573-.216-2.923-.752-4.048-1.608a7.57 7.57 0 0 1-2.457-3.344c-.513-1.373-.654-2.906-.421-4.598zm17.755 2.408c.224-1.633.757-3.033 1.599-4.2.864-1.184 1.925-2.051 3.183-2.6a7.29 7.29 0 0 1 3.982-.536c1.161.159 2.153.526 2.976 1.1.846.557 1.496 1.218 1.953 1.982l.291-2.125 4.161.571-3.314 24.138-4.161-.571 1.378-10.033c-.648.633-1.467 1.121-2.457 1.467s-2.064.438-3.225.279a7.24 7.24 0 0 1-3.661-1.585c-1.041-.885-1.808-2.012-2.301-3.383s-.628-2.872-.404-4.505zm12.862 1.796c.138-1.003.05-1.897-.263-2.682s-.779-1.41-1.396-1.875a4.17 4.17 0 0 0-2.018-.848c-.728-.1-1.452-.009-2.172.273-.701.285-1.308.762-1.821 1.434-.51.651-.834 1.479-.972 2.482s-.051 1.907.259 2.711c.313.785.769 1.408 1.367 1.871.617.466 1.29.749 2.018.848a4.16 4.16 0 0 0 2.172-.273c.72-.282 1.337-.759 1.85-1.43s.838-1.508.976-2.512zm24.751-4.929l-2.245 16.348-4.16-.571.283-2.066c-.628.635-1.403 1.1-2.326 1.394-.9.277-1.851.347-2.855.209-1.278-.176-2.373-.596-3.284-1.263-.908-.686-1.575-1.589-2.003-2.71-.405-1.138-.507-2.435-.307-3.891l1.317-9.59 4.131.567-1.236 9c-.178 1.298.009 2.346.56 3.144.555.778 1.393 1.243 2.514 1.397 1.141.157 2.084-.065 2.828-.664.746-.619 1.208-1.578 1.387-2.876l1.236-9 4.16.571zm6.439-1.1c-.728-.1-1.307-.41-1.736-.93-.408-.537-.564-1.15-.47-1.838a2.29 2.29 0 0 1 .944-1.614c.556-.405 1.199-.557 1.927-.457s1.295.419 1.702.955c.43.52.598 1.124.503 1.813a2.34 2.34 0 0 1-.977 1.64c-.534.388-1.165.531-1.893.431zm1.769 2.227l-2.245 16.348-4.131-.567 2.244-16.348 4.132.567zm7.864 3.666c.65-.793 1.432-1.377 2.345-1.752.933-.373 1.951-.484 3.053-.333l-.596 4.338-1.092-.15c-1.298-.178-2.324-.008-3.076.51-.733.521-1.204 1.538-1.412 3.053l-1.118 8.145-4.131-.567 2.244-16.348 4.132.567-.349 2.538zm22.271 8.44c-.081.59-.193 1.116-.337 1.577l-11.951-1.641c-.064 1.194.223 2.175.859 2.944s1.485 1.226 2.547 1.372c1.535.211 2.717-.298 3.547-1.527l4.456.612c-.688 1.509-1.772 2.683-3.25 3.522-1.475.82-3.187 1.096-5.134.828-1.574-.216-2.943-.755-4.108-1.616-1.142-.878-1.979-2.006-2.512-3.382-.513-1.373-.655-2.896-.425-4.568.232-1.692.781-3.13 1.645-4.314s1.963-2.035 3.297-2.554 2.807-.667 4.42-.445c1.554.213 2.895.738 4.023 1.575 1.148.839 1.971 1.924 2.47 3.255.521 1.314.672 2.768.453 4.362zm-4.117-1.768c.127-1.065-.141-1.964-.802-2.696-.658-.752-1.529-1.202-2.611-1.351-1.023-.141-1.931.055-2.726.588-.772.515-1.313 1.313-1.622 2.393l7.761 1.066zm17.683 78.343l-.709 5.164 6.935.952-.45 3.276-6.935-.952-.749 5.459 7.82 1.074-.462 3.364-11.951-1.641 2.832-20.627 11.951 1.641-.462 3.364-7.82-1.074zm20.54 3.512c1.948.267 3.437 1.103 4.467 2.507 1.032 1.385 1.397 3.179 1.095 5.382l-1.317 9.591-4.132-.568 1.24-9.029c.179-1.299-.01-2.337-.564-3.115-.552-.797-1.389-1.273-2.51-1.427-1.141-.156-2.095.074-2.861.69-.744.599-1.205 1.548-1.383 2.847l-1.24 9.029-4.131-.567 2.245-16.348 4.131.567-.28 2.037c.649-.633 1.423-1.088 2.323-1.365.922-.295 1.894-.371 2.917-.231zm16.858 2.285c1.22.167 2.258.56 3.115 1.179.86.599 1.503 1.319 1.929 2.159l.32-2.331 4.16.571-2.261 16.466c-.208 1.515-.698 2.821-1.469 3.917-.775 1.117-1.82 1.935-3.134 2.456-1.317.541-2.841.693-4.572.455-2.321-.319-4.155-1.122-5.502-2.409-1.327-1.285-1.96-2.875-1.9-4.771l4.101.563c.114.777.495 1.431 1.144 1.961.666.553 1.51.899 2.533 1.04 1.2.164 2.224-.066 3.072-.691.844-.606 1.367-1.636 1.567-3.092l.348-2.538c-.636.694-1.462 1.232-2.476 1.614-.995.385-2.093.495-3.293.33-1.377-.189-2.587-.716-3.631-1.581s-1.812-1.983-2.306-3.353c-.47-1.388-.591-2.918-.362-4.59.227-1.652.753-3.073 1.578-4.263.844-1.187 1.875-2.048 3.091-2.582 1.235-.532 2.551-.702 3.948-.51zm4.241 9.181c.138-1.003.059-1.886-.237-2.648-.294-.782-.749-1.406-1.367-1.872-.615-.485-1.306-.78-2.073-.886s-1.501-.015-2.202.269-1.307.763-1.82 1.434c-.491.654-.804 1.473-.939 2.457s-.057 1.876.234 2.677c.313.785.767 1.419 1.362 1.901a4.16 4.16 0 0 0 2.044.882 4.39 4.39 0 0 0 2.231-.265 4.33 4.33 0 0 0 1.821-1.433c.493-.674.809-1.513.946-2.516zm7.142.92c.227-1.652.752-3.073 1.577-4.263.845-1.187 1.875-2.047 3.091-2.582 1.235-.532 2.551-.702 3.948-.51 1.22.167 2.248.559 3.086 1.175.857.619 1.51 1.34 1.958 2.163l.32-2.331 4.161.571-2.245 16.348-4.161-.571.328-2.39c-.636.694-1.462 1.232-2.476 1.614-.992.365-2.098.463-3.318.296-1.377-.189-2.588-.716-3.631-1.581-1.024-.862-1.783-1.979-2.276-3.349-.471-1.388-.592-2.918-.362-4.59zm12.857 1.826c.138-1.003.059-1.886-.237-2.648-.294-.782-.749-1.406-1.367-1.872-.615-.485-1.306-.78-2.073-.886a4.23 4.23 0 0 0-2.201.269c-.701.285-1.308.763-1.821 1.434-.491.654-.803 1.473-.939 2.457s-.057 1.876.234 2.678c.313.784.767 1.418 1.363 1.9.614.486 1.296.78 2.043.882a4.38 4.38 0 0 0 2.231-.265 4.33 4.33 0 0 0 1.821-1.433c.493-.674.809-1.513.946-2.516zm15.758-6.435c1.22.168 2.258.561 3.116 1.179.859.6 1.502 1.319 1.928 2.159l.32-2.331 4.161.572-2.261 16.466c-.208 1.514-.698 2.82-1.47 3.917-.775 1.116-1.819 1.935-3.133 2.456-1.317.54-2.841.692-4.573.454-2.321-.319-4.155-1.122-5.501-2.409-1.327-1.285-1.961-2.875-1.901-4.771l4.102.564c.114.777.495 1.43 1.144 1.961.665.552 1.51.898 2.533 1.039 1.2.165 2.223-.066 3.071-.691.845-.605 1.367-1.636 1.567-3.092l.349-2.538c-.637.695-1.462 1.233-2.477 1.615-.995.384-2.092.494-3.292.329-1.377-.189-2.588-.716-3.632-1.581s-1.812-1.982-2.305-3.353c-.471-1.387-.592-2.917-.362-4.59.227-1.652.753-3.073 1.577-4.263.845-1.187 1.875-2.047 3.091-2.582 1.235-.532 2.552-.702 3.948-.51zm4.242 9.181c.137-1.003.058-1.886-.238-2.648-.293-.782-.749-1.406-1.367-1.871a4.2 4.2 0 0 0-2.073-.886 4.22 4.22 0 0 0-2.201.268c-.701.285-1.308.763-1.821 1.434-.49.654-.803 1.473-.938 2.457s-.058 1.876.233 2.678c.313.784.768 1.418 1.363 1.901a4.16 4.16 0 0 0 2.043.881 4.38 4.38 0 0 0 2.232-.264c.722-.302 1.329-.78 1.82-1.434.493-.674.809-1.513.947-2.516zm23.441 2.858c-.081.59-.193 1.116-.337 1.577l-11.951-1.641c-.064 1.194.223 2.176.859 2.944s1.485 1.227 2.547 1.372c1.535.211 2.717-.298 3.547-1.527l4.456.612c-.688 1.509-1.772 2.683-3.25 3.522-1.475.82-3.187 1.096-5.134.829-1.574-.216-2.943-.755-4.108-1.617-1.142-.878-1.979-2.005-2.512-3.381-.513-1.373-.655-2.896-.425-4.568.232-1.692.781-3.13 1.645-4.314a7.27 7.27 0 0 1 3.297-2.554c1.334-.518 2.807-.667 4.42-.445 1.554.213 2.895.738 4.023 1.574 1.148.839 1.971 1.924 2.47 3.256.521 1.314.672 2.768.453 4.361zm-4.117-1.768c.127-1.065-.141-1.963-.802-2.695-.658-.752-1.529-1.203-2.611-1.351-1.023-.141-1.931.055-2.726.588-.772.515-1.313 1.313-1.622 2.393l7.761 1.065zM147.016 214.94c-1.437-.197-2.701-.621-3.794-1.272-1.074-.649-1.882-1.481-2.423-2.498s-.737-2.155-.583-3.417l4.426.608c-.057.854.146 1.563.61 2.128.483.567 1.197.916 2.141 1.045.964.133 1.752.011 2.365-.366a2.32 2.32 0 0 0 1.078-1.716c.084-.61-.034-1.138-.354-1.582s-.75-.815-1.291-1.11c-.518-.311-1.251-.672-2.196-1.083-1.284-.577-2.323-1.111-3.118-1.6-.772-.507-1.41-1.186-1.915-2.037-.482-.868-.634-1.951-.456-3.25.168-1.22.619-2.24 1.353-3.061s1.684-1.392 2.851-1.713c1.169-.341 2.462-.414 3.878-.219 2.125.291 3.774 1.049 4.949 2.273 1.198 1.206 1.738 2.744 1.622 4.612l-4.544-.624a2.32 2.32 0 0 0-.676-1.867c-.486-.547-1.191-.885-2.116-1.012-.807-.111-1.484.007-2.033.352-.529.349-.847.916-.955 1.703-.076.551.038 1.038.341 1.46.325.406.737.763 1.235 1.072.522.292 1.254.653 2.197 1.083 1.284.577 2.321 1.121 3.113 1.63s1.439 1.2 1.941 2.071.665 1.945.489 3.224a5.88 5.88 0 0 1-1.277 2.951c-.7.866-1.64 1.509-2.82 1.928-1.178.399-2.524.495-4.038.287zm27.266-5.155c-.081.59-.193 1.116-.337 1.577l-11.951-1.641c-.063 1.194.223 2.175.859 2.944s1.485 1.226 2.547 1.372c1.535.211 2.717-.298 3.547-1.527l4.456.612c-.688 1.509-1.771 2.683-3.249 3.522-1.476.82-3.188 1.096-5.135.828-1.574-.216-2.943-.755-4.108-1.616-1.142-.878-1.979-2.006-2.512-3.381-.513-1.374-.654-2.896-.425-4.569.233-1.691.781-3.129 1.645-4.314s1.963-2.035 3.297-2.553 2.807-.667 4.421-.446c1.554.214 2.895.739 4.023 1.575a6.99 6.99 0 0 1 2.469 3.255c.521 1.315.672 2.768.453 4.362zm-4.116-1.768c.126-1.065-.142-1.964-.803-2.696-.658-.752-1.528-1.202-2.61-1.35-1.023-.141-1.932.055-2.727.587-.772.516-1.313 1.313-1.621 2.393l7.761 1.066zm13.09-10.559l-2.998 21.836-4.131-.567 2.998-21.837 4.131.568zm8.213 1.127l-2.998 21.837-4.131-.567 2.998-21.837 4.131.567zM22.703 122.792c-1.436-.198-2.701-.622-3.794-1.273-1.073-.648-1.881-1.481-2.423-2.497s-.736-2.156-.583-3.418l4.426.608c-.057.854.146 1.564.61 2.128.483.568 1.197.916 2.141 1.046.964.132 1.752.01 2.365-.367.616-.396.975-.968 1.078-1.716.084-.61-.034-1.137-.354-1.582a3.79 3.79 0 0 0-1.291-1.109c-.518-.312-1.25-.673-2.196-1.083-1.284-.577-2.323-1.111-3.117-1.601-.772-.507-1.411-1.186-1.915-2.037-.482-.868-.634-1.951-.456-3.249.168-1.22.618-2.24 1.352-3.062s1.685-1.392 2.851-1.713c1.169-.34 2.462-.413 3.879-.219 2.125.292 3.774 1.05 4.949 2.273 1.197 1.207 1.738 2.744 1.622 4.613l-4.544-.624a2.32 2.32 0 0 0-.676-1.867c-.486-.548-1.191-.885-2.116-1.012-.807-.111-1.484.006-2.033.352-.529.348-.847.916-.955 1.703-.076.551.038 1.037.341 1.46a4.81 4.81 0 0 0 1.236 1.071c.521.292 1.253.653 2.196 1.084 1.284.577 2.322 1.12 3.113 1.63s1.439 1.199 1.941 2.07.665 1.945.489 3.224a5.88 5.88 0 0 1-1.277 2.952c-.7.866-1.64 1.508-2.82 1.927-1.177.4-2.523.496-4.038.288zm28.577-12.943l-2.245 16.348-4.161-.571.284-2.066c-.628.635-1.404 1.1-2.326 1.394-.9.278-1.852.347-2.855.21-1.279-.176-2.373-.597-3.284-1.263-.908-.686-1.576-1.589-2.003-2.71-.405-1.138-.508-2.435-.308-3.891l1.317-9.59 4.131.567-1.236 9c-.178 1.298.008 2.346.56 3.144.555.777 1.393 1.243 2.514 1.397 1.141.157 2.083-.065 2.827-.664.746-.619 1.209-1.578 1.387-2.876l1.236-9 4.161.571zm7.883 3.488c.634-.675 1.447-1.195 2.439-1.559 1.015-.382 2.122-.491 3.322-.326 1.397.192 2.609.709 3.635 1.551 1.047.846 1.806 1.952 2.28 3.32.496 1.351.629 2.862.4 4.535s-.768 3.111-1.615 4.318c-.825 1.189-1.856 2.06-3.095 2.611-1.218.555-2.526.736-3.923.544-1.2-.165-2.228-.557-3.086-1.175-.837-.616-1.49-1.337-1.958-2.163l-1.39 10.121-4.131-.567 3.315-24.138 4.131.567-.324 2.361zm7.856 6.941c.135-.983.045-1.858-.271-2.623-.293-.782-.749-1.405-1.367-1.871a4.22 4.22 0 0 0-2.048-.852c-.747-.103-1.483-.004-2.206.298-.701.285-1.307.763-1.82 1.434-.493.674-.808 1.502-.943 2.486s-.056 1.866.238 2.648c.313.785.767 1.419 1.362 1.901a4.33 4.33 0 0 0 2.048.853 4.07 4.07 0 0 0 2.206-.299c.723-.302 1.331-.789 1.824-1.463.513-.671.839-1.509.976-2.512zm12.143-4.195c.634-.675 1.447-1.194 2.439-1.559 1.014-.382 2.122-.491 3.322-.326 1.397.192 2.609.709 3.635 1.552 1.046.845 1.806 1.951 2.28 3.319.496 1.351.629 2.863.4 4.535s-.768 3.111-1.615 4.318c-.825 1.189-1.856 2.06-3.094 2.612-1.219.554-2.526.735-3.923.543-1.2-.165-2.228-.556-3.086-1.175-.837-.616-1.49-1.337-1.958-2.163l-1.39 10.121-4.131-.567 3.315-24.138 4.131.567-.324 2.361zm7.856 6.941c.135-.983.045-1.858-.271-2.622-.293-.782-.749-1.406-1.367-1.872a4.22 4.22 0 0 0-2.048-.852c-.748-.103-1.483-.003-2.206.298-.701.285-1.307.763-1.82 1.434-.493.674-.808 1.503-.943 2.486s-.056 1.867.238 2.648c.313.785.767 1.419 1.363 1.901a4.33 4.33 0 0 0 2.048.853 4.06 4.06 0 0 0 2.206-.299c.723-.301 1.331-.789 1.824-1.463.513-.671.839-1.508.976-2.512zm13.314 10.487c-1.574-.216-2.943-.754-4.107-1.616-1.162-.881-2.019-2.011-2.571-3.39-.533-1.376-.684-2.9-.454-4.572s.796-3.097 1.7-4.276a7.76 7.76 0 0 1 3.445-2.534c1.376-.532 2.851-.691 4.425-.475s2.951.767 4.133 1.65c1.184.864 2.052 1.986 2.605 3.365.572 1.381.743 2.908.513 4.58s-.816 3.095-1.759 4.268a7.91 7.91 0 0 1-3.478 2.559c-1.373.513-2.856.66-4.45.441zm.494-3.6c.748.103 1.471.022 2.169-.243.72-.282 1.327-.76 1.82-1.434s.812-1.532.955-2.575c.213-1.554-.036-2.801-.749-3.74-.691-.957-1.626-1.516-2.806-1.679a3.99 3.99 0 0 0-3.155.86c-.9.718-1.457 1.854-1.671 3.409s.005 2.806.656 3.758c.673.934 1.6 1.482 2.78 1.644zm17.129-8.321c.65-.793 1.431-1.377 2.345-1.752.933-.373 1.95-.484 3.052-.333l-.596 4.338-1.091-.15c-1.299-.178-2.324-.008-3.077.51-.733.52-1.203 1.538-1.411 3.053l-1.119 8.144-4.131-.567 2.245-16.348 4.131.567-.348 2.538zm12.491 2.587l-1.086 7.909c-.075.55-.003.971.218 1.262.243.274.679.454 1.309.541l1.918.263-.478 3.482-2.597-.357c-3.482-.478-4.991-2.409-4.526-5.792l1.081-7.879-1.947-.268.466-3.393 1.947.267.556-4.042 4.16.571-.555 4.043 3.659.502-.466 3.394-3.659-.503z" fill="#000"/><path d="M312.747 114.885l10.834-13.957-17.504-2.403 6.67 16.36zm-42.203-62.08l25.669 3.525.416-3.032-25.669-3.525-.416 3.032zm45.169 29.233l-2.608 18.996 3.032.416 2.608-18.996-3.032-.416zm-19.5-25.708a22.82 22.82 0 0 1 19.5 25.708l3.032.416c1.944-14.158-7.957-27.212-22.116-29.156l-.416 3.032zM115.002 32.944L101.045 22.11l-2.404 17.504 16.361-6.671zM67.116 97.388l6.259-45.585-3.032-.416-6.259 45.585 3.032.416zm31.968-65.085l2.068.284.416-3.032-2.068-.284-.416 3.032zm-25.708 19.5a22.82 22.82 0 0 1 25.708-19.5l.416-3.032c-14.158-1.944-27.212 7.957-29.156 22.116l3.032.416zm-14.75 96.163l-10.834 13.958 17.504 2.403-6.671-16.361zm63.623 53.862l-45.585-6.26-.416 3.032 45.585 6.26.416-3.032zM57.164 169.86l1.104-8.042-3.032-.417-1.104 8.043 3.032.416zm19.5 25.708a22.82 22.82 0 0 1-19.5-25.708l-3.032-.416c-1.944 14.158 7.957 27.212 22.116 29.156l.416-3.032zm119.064 17.899l13.957 10.834 2.404-17.504-16.361 6.67zm106.891-36.05l-3.525 25.669 3.032.416 3.525-25.669-3.032-.416zm-29.233 45.169l-63.807-8.761-.416 3.032 63.807 8.761.416-3.032zm25.708-19.5a22.82 22.82 0 0 1-25.708 19.5l-.416 3.032c14.158 1.944 27.212-7.957 29.156-22.116l-3.032-.416z" fill="#37a6f7"/><g stroke="#37a6f7" stroke-width=".996"><circle cx="23.413" cy="55.296" r="22.915"/><circle cx="346.716" cy="228.159" r="32.38"/><circle cx="108.597" cy="250.071" r="21.421"/><circle cx="273.987" cy="15.941" r="13.45"/></g><g clip-path="url(#A)"><path d="M12.51 52.454a6.48 6.48 0 0 1 8.104-3.464c1.585-2.963 5.216-4.242 8.337-2.854a6.48 6.48 0 0 1 3.47 8.087l-4.437 10.02c-.427.96-1.52 1.416-2.492 1.066l-.138-.055-10.005-4.471a6.48 6.48 0 0 1-2.838-8.33zm1.821.81c-.978 2.198-.045 4.761 2.083 5.828l.191.09 9.558 4.252 3.036-6.828-4.551-2.024-.607 1.365a2.99 2.99 0 0 1-3.946 1.516 2.99 2.99 0 0 1-1.516-3.946l1.203-2.706c-2.083-.663-4.369.282-5.361 2.261l-.09.191zm8.902-.402c.224-.503.813-.729 1.315-.505l5.461 2.429.406-.91c1.006-2.262-.012-4.912-2.274-5.919-2.198-.977-4.761-.045-5.828 2.083l-.09.191-1.822 4.096c-.208.467-.027 1.008.402 1.262l.104.053c.467.208 1.008.027 1.262-.402l.053-.103 1.012-2.276z" fill="#37a6f7"/></g><path d="M274.979 23.849c3.605-.45 6.463-3.307 6.912-6.913h-2.927v-1.993h2.927c-.449-3.605-3.307-6.463-6.912-6.913v2.927h-1.993V8.031c-3.605.45-6.463 3.307-6.912 6.913h2.927v1.993h-2.927c.449 3.605 3.307 6.463 6.912 6.913v-2.927h1.993v2.927zm-.996 2.054c-5.503 0-9.963-4.461-9.963-9.963s4.46-9.963 9.963-9.963 9.963 4.461 9.963 9.963-4.461 9.963-9.963 9.963zm0-7.97c-1.101 0-1.993-.892-1.993-1.993s.892-1.993 1.993-1.993 1.992.892 1.992 1.993-.892 1.993-1.992 1.993z" fill="#37a6f7"/><g clip-path="url(#B)"><path d="M342.926 212.461a16.61 16.61 0 0 1 20.239 11.91 16.61 16.61 0 0 1-11.911 20.239c-8.877 2.3-17.939-3.033-20.238-11.91s3.032-17.939 11.91-20.239zm.833 3.215c-7.102 1.84-11.368 9.089-9.528 16.191s9.088 11.368 16.191 9.528 11.368-9.089 9.528-16.191-9.089-11.368-16.191-9.528zm2.915 11.252c3.215-.833 6.033-.991 8.454-.475 1.149 4.439-1.517 8.97-5.956 10.12s-8.969-1.517-10.119-5.955c1.866-1.627 4.406-2.857 7.621-3.69zm-7.292-4.972c1.945-.504 3.924.457 4.772 2.195l-7.877 2.041c-.104-1.931 1.161-3.733 3.105-4.236zm11.252-2.915c1.945-.504 3.925.457 4.772 2.195l-7.877 2.041c-.103-1.931 1.161-3.733 3.105-4.236z" fill="#37a6f7"/></g><path d="M121.384 249.579a12.29 12.29 0 0 0-12.288-12.288 12.29 12.29 0 0 0-12.288 12.288 12.29 12.29 0 0 0 12.288 12.287 12.29 12.29 0 0 0 12.288-12.287zm3.072 0c0 8.482-6.877 15.359-15.36 15.359s-15.36-6.877-15.36-15.359 6.877-15.36 15.36-15.36 15.36 6.877 15.36 15.36zm-13.055-6.144c.503.669.863 1.452 1.036 2.304h2.803v2.304h-2.803c-.534 2.629-2.858 4.607-5.645 4.607h-.291l5.714 5.714-1.629 1.629-7.634-7.633v-2.013h3.84c1.505 0 2.785-.962 3.259-2.304h-7.099v-2.304h7.099c-.474-1.343-1.754-2.304-3.259-2.304h-3.84v-2.304h12.288v2.304h-3.839z" fill="#37a6f7"/><defs><clipPath id="A"><path fill="#fff" transform="matrix(.933457 -.358689 .358689 .933457 7.9707 49.4258)" d="M0 0h23.911v23.911H0z"/></clipPath><clipPath id="B"><path fill="#fff" transform="matrix(.968046 -.250774 .250774 .968046 322.803 214.238)" d="M0 0h39.852v39.852H0z"/></clipPath></defs></svg>