<svg width="47" height="48" viewBox="0 0 47 48" fill="none" xmlns="http://www.w3.org/2000/svg">
<circle cx="23.5" cy="24" r="23" stroke="#707070"/>
<path d="M19.2546 30.9944L19.9793 31.417C21.1901 32.123 22.5661 32.5 24.002 32.5C28.4203 32.5 32.002 28.9183 32.002 24.5C32.002 20.0817 28.4203 16.5 24.002 16.5C19.5837 16.5 16.002 20.0817 16.002 24.5C16.002 25.9363 16.3792 27.3128 17.0856 28.5238L17.508 29.2478L16.8545 31.6494L19.2546 30.9944ZM14.0061 34.5L15.3581 29.5315C14.4959 28.0536 14.002 26.3345 14.002 24.5C14.002 18.9771 18.4791 14.5 24.002 14.5C29.5248 14.5 34.002 18.9771 34.002 24.5C34.002 30.0228 29.5248 34.5 24.002 34.5C22.1681 34.5 20.4495 34.0064 18.9718 33.1447L14.0061 34.5ZM20.3933 19.8083C20.5272 19.7989 20.6615 19.7975 20.7956 19.804C20.8497 19.8076 20.9036 19.8138 20.9576 19.8201C21.1168 19.8385 21.292 19.9355 21.3508 20.0689C21.6492 20.7454 21.9386 21.4256 22.2192 22.1096C22.2811 22.2606 22.2438 22.4563 22.126 22.6457C22.0662 22.7428 21.9723 22.879 21.8635 23.0183C21.7504 23.163 21.507 23.4291 21.507 23.4291C21.507 23.4291 21.4084 23.5473 21.4455 23.6944C21.46 23.75 21.5062 23.831 21.5481 23.8991C21.5712 23.9368 21.5928 23.9705 21.6067 23.9938C21.8627 24.4211 22.2067 24.8543 22.6269 25.2616C22.7473 25.3783 22.8641 25.4974 22.9897 25.608C23.458 26.0209 23.9878 26.3583 24.56 26.6082L24.5651 26.6105C24.6496 26.6469 24.693 26.6668 24.8167 26.7193C24.8791 26.7457 24.9429 26.7685 25.0084 26.7858C25.0321 26.792 25.0564 26.7955 25.0808 26.7972C25.2425 26.8069 25.336 26.7032 25.3759 26.6555C26.0994 25.779 26.1656 25.7218 26.1706 25.7222V25.7238C26.2657 25.6236 26.4152 25.5888 26.5486 25.597C26.6095 25.6007 26.6701 25.6124 26.7255 25.6377C27.2573 25.8803 28.1268 26.2587 28.1268 26.2587L28.7083 26.5201C28.8057 26.5671 28.8946 26.6778 28.8989 26.7854C28.9015 26.8523 28.9087 26.9603 28.8848 27.1579C28.8535 27.4166 28.7748 27.7281 28.6966 27.8913C28.6416 28.0058 28.5704 28.1074 28.4876 28.1934C28.3753 28.31 28.2919 28.3808 28.1569 28.4814C28.0747 28.5426 28.0321 28.5714 28.0321 28.5714C27.8932 28.659 27.8149 28.7028 27.6494 28.7909C27.392 28.928 27.1076 29.0068 26.8163 29.0218C26.6306 29.0313 26.4454 29.0447 26.2599 29.0347C26.2517 29.0342 25.6917 28.9482 25.6917 28.9482C24.2698 28.5742 22.9548 27.8736 21.8513 26.902C21.6257 26.7034 21.4165 26.4885 21.2029 26.2759C20.3139 25.3908 19.6408 24.4364 19.2327 23.5336C19.0314 23.0884 18.904 22.6116 18.902 22.121C18.8983 21.5141 19.097 20.9232 19.4667 20.4419C19.5395 20.347 19.6087 20.2485 19.7281 20.1359C19.8545 20.0165 19.9349 19.9524 20.0215 19.9081C20.137 19.849 20.2639 19.8174 20.3933 19.8083Z" fill="#707070"/>
</svg>
