<svg width="48" height="48" viewBox="0 0 48 48" fill="none" xmlns="http://www.w3.org/2000/svg">
<circle cx="24.2793" cy="24" r="23" stroke="#707070"/>
<path d="M26.5 14C26.5 14.4442 26.3069 14.8434 26 15.1181V17H31C32.6569 17 34 18.3432 34 20V30C34 31.6569 32.6569 33 31 33H19C17.3432 33 16 31.6569 16 30V20C16 18.3432 17.3432 17 19 17H24V15.1181C23.6931 14.8434 23.5 14.4442 23.5 14C23.5 13.1716 24.1716 12.5 25 12.5C25.8284 12.5 26.5 13.1716 26.5 14ZM19 19C18.4477 19 18 19.4477 18 20V30C18 30.5523 18.4477 31 19 31H31C31.5523 31 32 30.5523 32 30V20C32 19.4477 31.5523 19 31 19H26H24H19ZM15 22H13V28H15V22ZM35 22H37V28H35V22ZM22 26.5C22.8284 26.5 23.5 25.8284 23.5 25C23.5 24.1716 22.8284 23.5 22 23.5C21.1716 23.5 20.5 24.1716 20.5 25C20.5 25.8284 21.1716 26.5 22 26.5ZM28 26.5C28.8284 26.5 29.5 25.8284 29.5 25C29.5 24.1716 28.8284 23.5 28 23.5C27.1716 23.5 26.5 24.1716 26.5 25C26.5 25.8284 27.1716 26.5 28 26.5Z" fill="#707070"/>
</svg>
