<svg width="47" height="48" viewBox="0 0 47 48" fill="none" xmlns="http://www.w3.org/2000/svg">
<circle cx="23.5" cy="24" r="23" stroke="#707070"/>
<path d="M34 29.0022C33.999 31.8731 31.9816 34.2726 29.2872 34.8616L28.6492 32.9476C29.8532 32.7511 30.8765 32.0171 31.4649 31H29C27.8954 31 27 30.1046 27 29V25C27 23.8954 27.8954 23 29 23H31.9381C31.446 19.0537 28.0796 16 24 16C19.9204 16 16.554 19.0537 16.0619 23H19C20.1046 23 21 23.8954 21 25V29C21 30.1046 20.1046 31 19 31H16C14.8954 31 14 30.1046 14 29V24C14 18.4771 18.4771 14 24 14C29.5228 14 34 18.4771 34 24V24.9987V25V29V29.0022Z" fill="#707070"/>
</svg>
