<svg xmlns="http://www.w3.org/2000/svg" width="298" height="174" fill="none" xmlns:v="https://vecta.io/nano"><style><![CDATA[.B{fill-opacity:.3}.C{fill-opacity:.74}.D{color-interpolation-filters:sRGB}.E{flood-opacity:0}.F{fill:#d9d9d9}.G{shape-rendering:crispEdges}]]></style><g clip-path="url(#H)"><g filter="url(#A)"><rect x="3.39" y="14.552" width="96.076" height="29.004" rx="8.157" fill="#fff"/></g><path d="M123.032 29.054l-4.532-2.617v5.233l4.532-2.616zm-16.315.453h12.236v-.906h-12.236v.906z" fill="#5e5e5e"/><path d="M23.987 28.868l-6.805 4.536a.32.32 0 0 1-.445-.089c-.035-.053-.054-.115-.054-.178v-9.073a.32.32 0 0 1 .499-.267l6.805 4.536a.32.32 0 0 1 0 .534z" fill="#000"/><rect x="29.675" y="25.429" width="49.851" height="6.345" rx="3.172" class="C F"/><g fill="#fff" class="B"><rect x="189.197" y="58.964" width="80.668" height="5.438" rx="2.719"/><circle cx="194.636" cy="31.773" r="5.438"/></g><g class="F"><rect x="134.814" y="28.963" width="34.48" height="34.738" rx="1.813" transform="rotate(315 134.814 28.963)"/><rect x="51.428" y="86.065" width="34.48" height="34.738" rx="1.813" transform="rotate(315 51.428 86.065)"/></g><g fill="#707070"><path d="M209.138 29.96l-4.532-2.616v5.233l4.532-2.617zm-19.941.453h15.862v-.906h-15.862v.906zm-29.911 51.211l2.617-4.532h-5.233l2.616 4.532zm-.453-19.94v15.862h.906V61.684h-.906zm60.274 44.412l-4.532-2.616v5.233l4.532-2.617zm-19.94.453h15.862v-.906h-15.862v.906zm-95.623-20.846l4.532 2.617v-5.233l-4.532 2.616zm11.783 20.393V88.422h-.906v17.674h.906zm-3.172-20.847h-4.532v.906h4.532v-.906zm3.172 3.172c0-1.752-1.42-3.172-3.172-3.172v.906c1.251 0 2.266 1.014 2.266 2.266h.906z"/></g><path d="M114.874 106.096v.453a2.72 2.72 0 0 0 2.719 2.72h.907" stroke="#707070" stroke-width=".906"/><g fill="#707070"><path d="M76.807 125.13l2.617-4.532H74.19l2.616 4.532zm-.453-11.783v7.704h.906v-7.704h-.906zM35.113 86.156l4.532 2.616v-5.233l-4.532 2.617zm11.783-.453h-7.704v.906h7.704v-.906z"/></g><rect x=".671" y="64.403" width="31.723" height="45.319" rx="4.532" fill="#93d7c7"/><g filter="url(#B)"><rect x="76.807" y="94.313" width="17.221" height="7.251" rx="1.813" fill="#efeded" fill-opacity=".41"/><rect x="76.716" y="94.222" width="17.402" height="7.432" rx="1.903" stroke="#6a6a6c" stroke-opacity=".44" stroke-width=".181"/></g><g filter="url(#C)"><path d="M89.632 102.423l2.064 5.703-1.883.689-2.064-5.703-2.786 2.119.995-10.011 7.162 7.025-3.489.178z" fill="#1892eb"/></g></g><g filter="url(#D)"><rect x="226.358" y="57.152" width="62.54" height="80.668" rx="8.157" fill="#fff"/></g><g class="F C"><rect x="230.891" y="68.028" width="53.476" height="4.532" rx="2.266"/><rect x="230.891" y="74.373" width="53.476" height="4.532" rx="2.266"/><rect x="230.891" y="80.717" width="53.476" height="4.532" rx="2.266"/><rect x="230.891" y="87.062" width="53.476" height="4.532" rx="2.266"/><rect x="230.891" y="93.407" width="28.098" height="4.532" rx="2.266"/><rect x="230.891" y="105.189" width="53.476" height="25.379" rx="4.532"/></g><g filter="url(#E)" class="G"><rect x="220.014" y="18.178" width="68.885" height="23.566" rx="9.064" fill="#b30202" fill-opacity=".47"/></g><g filter="url(#F)" class="G"><rect x="42.364" y="130.568" width="68.885" height="33.536" rx="7.251" fill="#b30202" fill-opacity=".47"/></g><g filter="url(#G)" class="G"><rect x="124.844" y="86.156" width="68.885" height="46.225" rx="9.064" fill="#03aa82" fill-opacity=".41"/></g><g fill="#fff" class="B"><rect x="243.579" y="27.241" width="38.068" height="5.438" rx="2.719"/><rect x="64.117" y="136.006" width="38.068" height="3.626" rx="1.813"/><rect x="48.709" y="144.164" width="53.476" height="3.626" rx="1.813"/><rect x="48.709" y="149.602" width="36.255" height="3.626" rx="1.813"/><rect x="148.41" y="95.22" width="38.068" height="5.438" rx="2.719"/><rect x="131.188" y="107.002" width="55.289" height="20.847" rx="5.438"/><rect x="3.39" y="97.939" width="26.285" height="6.345" rx="3.172"/><rect x="3.39" y="69.841" width="26.285" height="2.719" rx="1.36"/><rect x="3.39" y="73.466" width="26.285" height="2.719" rx="1.36"/><rect x="3.39" y="77.092" width="26.285" height="2.719" rx="1.36"/><rect x="3.39" y="80.717" width="26.285" height="2.719" rx="1.36"/><rect x="3.39" y="84.343" width="16.315" height="2.719" rx="1.36"/><circle cx="231.797" cy="29.96" r="5.438"/><circle cx="136.627" cy="97.939" r="5.438"/></g><defs><filter id="A" x="-5.674" y="5.488" width="114.204" height="47.131" filterUnits="userSpaceOnUse" class="D"><feFlood result="A" class="E"/><feColorMatrix in="SourceAlpha" values="0 0 0 0 0 0 0 0 0 0 0 0 0 0 0 0 0 0 127 0" result="B"/><feOffset/><feGaussianBlur stdDeviation="4.532"/><feComposite in2="B" operator="out"/><feColorMatrix values="0 0 0 0 0 0 0 0 0 0 0 0 0 0 0 0 0 0 0.06 0"/><feBlend in2="A"/><feBlend in="SourceGraphic"/></filter><filter id="B" x="73" y="90.506" width="24.835" height="14.864" filterUnits="userSpaceOnUse" class="D"><feFlood class="E"/><feGaussianBlur stdDeviation="1.813"/><feComposite in2="SourceAlpha" operator="in"/><feBlend in="SourceGraphic"/></filter><filter id="C" x="81.338" y="95.22" width="15.408" height="20.847" filterUnits="userSpaceOnUse" class="D"><feFlood result="A" class="E"/><feColorMatrix in="SourceAlpha" values="0 0 0 0 0 0 0 0 0 0 0 0 0 0 0 0 0 0 127 0" result="B"/><feOffset dy="3.6255"/><feGaussianBlur stdDeviation="1.813"/><feComposite in2="B" operator="out"/><feColorMatrix values="0 0 0 0 0 0 0 0 0 0 0 0 0 0 0 0 0 0 0.25 0"/><feBlend in2="A"/><feBlend in="SourceGraphic"/></filter><filter id="D" x="217.295" y="48.088" width="80.668" height="98.795" filterUnits="userSpaceOnUse" class="D"><feFlood result="A" class="E"/><feColorMatrix in="SourceAlpha" values="0 0 0 0 0 0 0 0 0 0 0 0 0 0 0 0 0 0 127 0" result="B"/><feOffset/><feGaussianBlur stdDeviation="4.532"/><feComposite in2="B" operator="out"/><feColorMatrix values="0 0 0 0 0 0 0 0 0 0 0 0 0 0 0 0 0 0 0.06 0"/><feBlend in2="A"/><feBlend in="SourceGraphic"/></filter><filter id="E" x="210.95" y="9.114" width="87.012" height="41.693" filterUnits="userSpaceOnUse" class="D"><feFlood result="A" class="E"/><feColorMatrix in="SourceAlpha" values="0 0 0 0 0 0 0 0 0 0 0 0 0 0 0 0 0 0 127 0" result="B"/><feOffset/><feGaussianBlur stdDeviation="4.532"/><feComposite in2="B" operator="out"/><feColorMatrix values="0 0 0 0 0 0 0 0 0 0 0 0 0 0 0 0 0 0 0.06 0"/><feBlend in2="A"/><feBlend in="SourceGraphic"/></filter><filter id="F" x="33.301" y="121.505" width="87.012" height="51.664" filterUnits="userSpaceOnUse" class="D"><feFlood result="A" class="E"/><feColorMatrix in="SourceAlpha" values="0 0 0 0 0 0 0 0 0 0 0 0 0 0 0 0 0 0 127 0" result="B"/><feOffset/><feGaussianBlur stdDeviation="4.532"/><feComposite in2="B" operator="out"/><feColorMatrix values="0 0 0 0 0 0 0 0 0 0 0 0 0 0 0 0 0 0 0.06 0"/><feBlend in2="A"/><feBlend in="SourceGraphic"/></filter><filter id="G" x="115.78" y="77.092" width="87.012" height="64.353" filterUnits="userSpaceOnUse" class="D"><feFlood result="A" class="E"/><feColorMatrix in="SourceAlpha" values="0 0 0 0 0 0 0 0 0 0 0 0 0 0 0 0 0 0 127 0" result="B"/><feOffset/><feGaussianBlur stdDeviation="4.532"/><feComposite in2="B" operator="out"/><feColorMatrix values="0 0 0 0 0 0 0 0 0 0 0 0 0 0 0 0 0 0 0.06 0"/><feBlend in2="A"/><feBlend in="SourceGraphic"/></filter><clipPath id="H"><path fill="#fff" transform="translate(.671 .957)" d="M0 0h290.04v170.399H0z"/></clipPath></defs></svg>