<svg xmlns="http://www.w3.org/2000/svg" width="275" height="130" fill="none" xmlns:v="https://vecta.io/nano"><style><![CDATA[.B{fill-opacity:.3}.C{fill:#fff}.D{stroke-width:.381}]]></style><rect x=".338" y=".96" width="126.893" height="75.229" rx="8.157" fill="#37a6f7"/><rect x="3.963" y="5.492" width="119.642" height="29.004" rx="8.157" class="B C"/><g fill="#000"><rect x="145.358" y="43.56" width="128.705" height="75.229" rx="8.157"/><rect x="23.903" y="87.973" width="111.484" height="41.693" rx="8.157"/></g><g class="C B"><rect x="154.422" y="49.905" width="111.484" height="29.004" rx="5.438"/><rect x="29.342" y="93.411" width="102.421" height="20.847" rx="5.438"/></g><rect x="8.794" y="10.323" width="20.339" height="19.342" rx="4.487" stroke="#fff" stroke-width=".598"/><g class="C"><path d="M14.478 16.446c0-.243.204-.44.445-.44h8.083c.246 0 .445.197.445.44v7.096c0 .243-.204.44-.445.44h-8.083c-.246 0-.445-.197-.445-.44v-7.096zm.897.446v.886h.897v-.886h-.897zm6.281 0v.886h.897v-.886h-.897zm-6.281 1.773v.886h.897v-.886h-.897zm6.281 0v.886h.897v-.886h-.897zm-6.281 1.772v.886h.897v-.886h-.897zm6.281 0v.886h.897v-.886h-.897zm-6.281 1.772v.886h.897v-.886h-.897zm6.281 0v.886h.897v-.886h-.897z"/><rect x="34.78" y="13.649" width="72.51" height="4.532" rx="2.266" class="B"/></g><rect x="163.676" y="57.346" width="12.671" height="12.671" rx="2.855" stroke="#fff" class="D"/><g clip-path="url(#A)" class="C"><path d="M170.105 62.096h1.945c.126 0 .227.101.227.227v3.172c0 .125-.101.227-.227.227h-4.078c-.125 0-.227-.102-.227-.227v-3.625c0-.125.102-.227.227-.227h1.68l.453.453zm-.547 1.246a.34.34 0 1 0-.68 0 .34.34 0 1 0 .68 0zm1.813 1.473l-.907-1.36-1.586 1.36h2.493z"/></g><rect x="34.971" y="97.227" width="12.671" height="12.671" rx="2.855" stroke="#fff" class="D"/><g clip-path="url(#B)" class="C"><g clip-path="url(#C)"><path d="M41.126 101.749c.504 0 .912.443.912.989v.791c0 .546-.408.989-.912.989s-.912-.443-.912-.989v-.791c0-.546.408-.989.912-.989zm-1.631 1.978h.368c.088.67.621 1.186 1.264 1.186s1.175-.516 1.264-1.186h.368c-.084.825-.688 1.48-1.449 1.571v.802h-.365v-.802c-.761-.091-1.365-.746-1.449-1.571z"/></g></g><g class="C B"><rect x="34.78" y="20.9" width="50.757" height="4.532" rx="2.266"/><rect x="183.426" y="58.062" width="70.697" height="4.532" rx="2.266"/><rect x="54.721" y="97.942" width="70.697" height="4.532" rx="2.266"/><rect x="7.589" y="40.841" width="108.765" height="4.532" rx="2.266"/><rect x="183.426" y="65.313" width="49.851" height="4.532" rx="2.266"/><rect x="54.721" y="105.193" width="49.851" height="4.532" rx="2.266"/><rect x="7.589" y="48.092" width="108.765" height="4.532" rx="2.266"/><rect x="154.422" y="85.253" width="108.765" height="4.532" rx="2.266"/><rect x="7.589" y="55.343" width="108.765" height="4.532" rx="2.266"/><rect x="154.422" y="92.504" width="108.765" height="4.532" rx="2.266"/><rect x="31.154" y="118.789" width="100.608" height="4.532" rx="2.266"/><rect x="154.422" y="99.755" width="108.765" height="4.532" rx="2.266"/><rect x="154.422" y="107.006" width="53.476" height="4.532" rx="2.266"/><rect x="7.589" y="62.594" width="53.476" height="4.532" rx="2.266"/></g><path d="M198.061 33.911c.177.177.464.177.641 0l2.884-2.884c.177-.177.177-.464 0-.641s-.464-.177-.641 0l-2.564 2.564-2.563-2.564c-.177-.177-.464-.177-.641 0s-.177.464 0 .641l2.884 2.884zm-59.047-15.276h55.742v-.906h-55.742v.906zm58.914 3.172V33.59h.906V21.807h-.906zm-3.172-3.172c1.752 0 3.172 1.42 3.172 3.172h.906a4.08 4.08 0 0 0-4.078-4.079v.906z" fill="#37a6f7"/><path d="M9.722 82.214c-.177-.177-.464-.177-.641 0l-2.884 2.884c-.177.177-.177.464 0 .641s.464.177.641 0l2.564-2.564 2.564 2.564c.177.177.464.177.641 0s.177-.464 0-.641l-2.884-2.884zm9.196 25.246h-4.985v.906h4.985v-.906zm-9.064-4.079V82.534h-.906v20.847h.906zm4.079 4.079a4.08 4.08 0 0 1-4.079-4.079h-.906c0 2.753 2.232 4.985 4.985 4.985v-.906zm116.603-47.905c-.177.177-.177.464 0 .641l2.884 2.884c.177.177.464.177.641 0s.177-.464 0-.641l-2.564-2.564 2.564-2.564c.177-.177.177-.464 0-.641s-.464-.177-.641 0l-2.884 2.884zm8.025-.133h-7.705v.906h7.705v-.906z" fill="#000"/><defs><clipPath id="A"><path transform="translate(167.292 60.963)" d="M0 0h5.438v5.438H0z" class="C"/></clipPath><clipPath id="B"><path transform="translate(38.587 100.843)" d="M0 0h5.438v5.438H0z" class="C"/></clipPath><clipPath id="C"><path transform="translate(38.406 100.661)" d="M0 0h5.438v5.438H0z" class="C"/></clipPath></defs></svg>