<svg xmlns="http://www.w3.org/2000/svg" width="278" height="143" fill="none" xmlns:v="https://vecta.io/nano"><style><![CDATA[.B{fill-opacity:.13}.C{fill-opacity:.6}.D{fill:#37a6f7}.E{fill-opacity:.64}]]></style><rect x=".349" y="11.339" width="163.628" height="39.667" rx="11.156" fill="#020202" class="B"/><rect x="6.955" y="17.946" width="27.817" height="26.453" rx="6.136" stroke="#fff" stroke-width=".818"/><path d="M14.728 26.32a.61.61 0 0 1 .609-.602h11.055c.336 0 .609.27.609.602v9.704a.61.61 0 0 1-.609.602H15.336c-.336 0-.609-.27-.609-.602V26.32zm1.227.61v1.212h1.227V26.93h-1.227zm8.591 0v1.212h1.227V26.93h-1.227zm-8.59 2.424v1.212h1.227v-1.212h-1.227zm8.591 0v1.212h1.227v-1.212h-1.227zm-8.59 2.424v1.212h1.227v-1.212h-1.227zm8.591 0v1.212h1.227v-1.212h-1.227zm-8.59 2.424v1.212h1.227v-1.212h-1.227zm8.591 0v1.212h1.227v-1.212h-1.227z" fill="#fff"/><g fill="#020202" class="B"><rect x="42.495" y="22.495" width="99.168" height="6.198" rx="3.099"/><rect x="42.495" y="32.412" width="69.418" height="6.198" rx="3.099"/><rect x="5.308" y="59.684" width="148.752" height="6.198" rx="3.099"/><rect x="5.308" y="69.6" width="148.752" height="6.198" rx="3.099"/><rect x="5.308" y="79.517" width="148.752" height="6.198" rx="3.099"/><rect x="5.308" y="89.434" width="73.137" height="6.198" rx="3.099"/></g><path d="M191.056 39.437a11.25 11.25 0 0 1 11.243 11.244 11.25 11.25 0 0 1-11.243 11.244 11.25 11.25 0 0 1-11.244-11.244 11.25 11.25 0 0 1 11.244-11.244zm0 19.989c4.831 0 8.745-3.913 8.745-8.745s-3.914-8.745-8.745-8.745-8.746 3.913-8.746 8.745 3.914 8.745 8.746 8.745zm10.6.089l3.534 3.534-1.767 1.767-3.533-3.534 1.766-1.767z" class="D"/><g clip-path="url(#A)" class="D"><path d="M189.737 54.584a3.9 3.9 0 0 1-.444-.336l-.417-.366-.732.835-.835-.732.731-.835-.417-.366a3.87 3.87 0 0 1-.392-.395l-.758.865-.835-.732.978-1.117c-.314-.728-.398-1.536-.243-2.31l-.823.054-.073-1.108 1.319-.087c.13-.229.284-.449.465-.655s.377-.388.588-.547l-.088-1.319 1.109-.073.054.822c.747-.255 1.559-.278 2.322-.062l.978-1.117.836.732-.758.865a3.89 3.89 0 0 1 .443.336l.418.366.732-.835.835.732-.732.835.418.366c.142.124.272.257.392.396l.757-.865.836.732-.979 1.117c.577 1.335.378 2.94-.644 4.106s-2.586 1.575-3.985 1.178l-.979 1.117-.835-.732.758-.865zm-1.068-3.836l.835.732 2.195-2.506-.835-.732-2.195 2.506zm1.67 1.464l.836.732 2.195-2.506-.835-.732-2.196 2.506z"/></g><path d="M211.534 21.762l-4.532-2.616v5.233l4.532-2.616zm-39.881.453h35.802v-.906h-35.802v.906z" fill="#5e5e5e"/><rect x="220.598" y="5.901" width="57.102" height="71.604" rx="9.064" fill="#c3c3c3"/><rect x="215.16" y="99.257" width="57.102" height="43.506" rx="9.064" fill-opacity=".24" class="D"/><g fill="#d9d9d9"><rect x="239.632" y="14.058" width="30.817" height="5.438" rx="2.719"/><rect x="226.942" y="28.56" width="43.506" height="42.6" rx="7.251"/></g><g fill="#fff" class="C"><rect x="236.913" y="33.092" width="30.817" height="2.719" rx="1.36"/><rect x="229.662" y="36.717" width="38.068" height="2.719" rx="1.36"/><rect x="229.662" y="41.25" width="38.068" height="2.719" rx="1.36"/><rect x="229.662" y="45.781" width="38.068" height="2.719" rx="1.36"/><rect x="229.662" y="50.313" width="38.068" height="2.719" rx="1.36"/><rect x="229.662" y="54.845" width="38.068" height="2.719" rx="1.36"/><rect x="229.662" y="59.377" width="24.472" height="2.719" rx="1.36"/></g><circle cx="212.893" cy="6.354" r="5.665" fill="#ff0707" fill-opacity=".36" stroke="#ec6060" stroke-width=".453"/><path d="M212.48 6.27l-1.563-1.564.549-.549 1.563 1.564 1.649-1.648.521.521-1.648 1.648 1.563 1.564-.549.549-1.564-1.564-1.648 1.648-.521-.521 1.648-1.648z" fill="#ec6060"/><path d="M205.622 118.157l-4.532-2.617.001 5.233 4.531-2.616zm-17.075-7.373l-.453-.008.453.008zm7.25 7.373v.453-.453zm-6.943-52.578l-.76 45.197.906.015.761-45.196-.907-.015zm6.943 53.031h5.747v-.906h-5.747v.906zm-7.703-7.834c-.073 4.305 3.397 7.834 7.703 7.834v-.906a6.8 6.8 0 0 1-6.797-6.913l-.906-.015z" class="D"/><g fill="#fff"><rect x="221.505" y="118.292" width="44.412" height="19.034" rx="3.626" class="E"/><rect x="236.913" y="103.79" width="29.004" height="3.626" rx="1.813" class="E"/><rect x="236.913" y="108.321" width="29.004" height="3.626" rx="1.813" class="E"/><circle cx="226.49" cy="107.868" r="4.079" fill-opacity=".54"/></g><defs><clipPath id="A"><path fill="#fff" transform="matrix(.658984 -.752157 .752157 .658984 181.199 50.8477)" d="M0 0h13.326v13.326H0z"/></clipPath></defs></svg>