<svg xmlns="http://www.w3.org/2000/svg" width="545" height="386" fill="none" xmlns:v="https://vecta.io/nano"><style><![CDATA[.B{fill-opacity:.22}.C{fill:#fff}.D{stroke:#37a6f7}.E{fill:#37a6f7}.F{fill-opacity:.19}.G{shape-rendering:crispEdges}.H{color-interpolation-filters:sRGB}]]></style><path d="M149 252.016l5 2.886v-5.773l-5 2.887zm-77.5-37l2.887-5h-5.774l2.887 5zm146 36.5h-64v1h64v-1zM95 138.016h-7.5v1H95v-1zm-24 16.5v56h1v-56h-1zm16.5-16.5c-9.113 0-16.5 7.387-16.5 16.5h1c0-8.561 6.94-15.5 15.5-15.5v-1z" fill="#9d9d9d"/><rect x="19" y="14.016" width="111.026" height="37.707" rx="18.854" fill-opacity=".2" class="C"/><g filter="url(#A)" class="G"><rect x="255.48" y="147.332" width="245.496" height="162.12" rx="15.054" transform="rotate(7.482 255.48 147.332)" fill="#000" fill-opacity=".14"/><rect x="255.979" y="147.981" width="244.338" height="160.962" rx="14.475" transform="rotate(7.482 255.979 147.981)" stroke-width="1.158" class="D"/></g><circle cx="290.388" cy="192.795" r="19.686" transform="rotate(7.482 290.388 192.795)" fill="#e0e0e0" class="F"/><g fill="#3c3c3c"><rect x="323.348" y="181.939" width="64.848" height="6.948" rx="3.474" transform="rotate(7.482 323.348 181.939)"/><rect x="321.84" y="193.422" width="93.798" height="6.948" rx="3.474" transform="rotate(7.482 321.84 193.422)"/><rect x="320.334" y="204.902" width="93.798" height="6.948" rx="3.474" transform="rotate(7.482 320.334 204.902)"/></g><g fill="#d9d9d9"><circle cx="479.299" cy="199.503" r="1.737" transform="rotate(7.482 479.299 199.503)"/><circle cx="478.666" cy="204.325" r="1.737" transform="rotate(7.482 478.666 204.325)"/><circle cx="478.031" cy="209.148" r="1.737" transform="rotate(7.482 478.031 209.148)"/></g><g class="E F"><rect x="266.348" y="224.674" width="209.598" height="26.634" rx="5.79" transform="rotate(7.482 266.348 224.674)"/><rect x="261.822" y="259.119" width="209.598" height="34.74" rx="5.79" transform="rotate(7.482 261.822 259.119)"/></g><path d="M348.568 119.451l3.81-6.599h-7.62l3.81 6.599zM139.363 32.338h188.086v-1.32H139.363v1.32zm208.545 20.459v60.716h1.32V52.796h-1.32zm-20.459-20.458c11.299 0 20.459 9.16 20.459 20.459h1.32c0-12.028-9.751-21.778-21.779-21.778v1.32z" fill="#9d9d9d"/><circle cx="35.235" cy="32.346" r="7.856" fill="#636363"/><rect x=".346" y="234.362" width="123.923" height="35.308" rx="17.654" stroke-width=".692" class="D E F"/><path d="M46.352 249.692a1.46 1.46 0 0 0-.645-.622c-.274-.149-.598-.223-.974-.223-.649 0-1.169.215-1.561.645-.391.423-.587.99-.587 1.702 0 .759.203 1.353.61 1.783.415.423.982.634 1.701.634.493 0 .907-.125 1.244-.375.344-.251.595-.611.751-1.08h-2.546v-1.478h4.365v1.865c-.149.501-.403.966-.763 1.397-.352.43-.802.778-1.349 1.044s-1.166.399-1.854.399c-.813 0-1.541-.176-2.182-.528a3.9 3.9 0 0 1-1.49-1.49c-.352-.634-.528-1.358-.528-2.171s.176-1.537.528-2.171c.36-.641.857-1.138 1.49-1.49.634-.36 1.357-.54 2.171-.54.986 0 1.815.239 2.488.716.681.477 1.13 1.138 1.349 1.983h-2.218zm9.642 2.253c0 .188-.012.383-.035.587h-4.541c.031.406.16.719.387.938.235.211.52.317.856.317.501 0 .849-.211 1.044-.634h2.136a2.89 2.89 0 0 1-.598 1.162 2.92 2.92 0 0 1-1.068.81c-.43.195-.911.293-1.443.293-.641 0-1.212-.137-1.713-.411s-.892-.665-1.173-1.173-.422-1.103-.422-1.784.137-1.275.411-1.783a2.92 2.92 0 0 1 1.173-1.174c.501-.273 1.076-.41 1.725-.41.634 0 1.197.133 1.69.399s.876.645 1.15 1.138c.282.493.422 1.068.422 1.725zm-2.053-.528c0-.344-.117-.618-.352-.822s-.528-.305-.88-.305c-.336 0-.622.098-.857.294-.227.195-.368.473-.422.833h2.511zm6.761 2.206v1.701h-1.021c-.727 0-1.295-.176-1.701-.528-.407-.36-.61-.942-.61-1.748v-2.605h-.798v-1.666h.798v-1.596h2.006v1.596h1.314v1.666h-1.314v2.628c0 .196.047.337.141.423s.25.129.469.129h.716zm6.268 1.795c-.571 0-1.079-.098-1.525-.293s-.798-.462-1.056-.798c-.258-.344-.403-.728-.434-1.15h1.983a.76.76 0 0 0 .317.551 1.12 1.12 0 0 0 .692.212c.25 0 .442-.047.575-.141a.46.46 0 0 0 .211-.387c0-.188-.098-.325-.293-.411-.196-.094-.512-.196-.951-.305-.469-.11-.861-.223-1.173-.34-.313-.126-.583-.317-.81-.575-.227-.266-.34-.622-.34-1.068a1.8 1.8 0 0 1 .305-1.021c.211-.313.516-.559.915-.739.407-.18.888-.27 1.443-.27.821 0 1.467.203 1.936.61.477.407.751.947.821 1.619h-1.854a.79.79 0 0 0-.305-.54c-.164-.132-.383-.199-.657-.199-.235 0-.415.047-.54.141-.125.086-.188.207-.188.364 0 .187.098.328.293.422.203.094.516.188.939.282.485.125.88.25 1.185.375.305.117.571.313.798.587.235.266.356.626.364 1.079 0 .384-.11.728-.329 1.033-.211.297-.52.532-.927.704-.399.172-.864.258-1.396.258zm7.529-1.795v1.701h-1.021c-.728 0-1.295-.176-1.701-.528-.407-.36-.61-.942-.61-1.748v-2.605h-.798v-1.666h.798v-1.596h2.007v1.596h1.314v1.666h-1.314v2.628c0 .196.047.337.141.423s.25.129.469.129h.716zm.719-1.584c0-.673.125-1.264.375-1.772.258-.509.606-.9 1.044-1.174s.927-.41 1.467-.41c.462 0 .864.094 1.209.281.352.188.622.435.81.74v-.927h2.007v6.547h-2.007v-.927a2.15 2.15 0 0 1-.821.739c-.344.188-.747.282-1.209.282a2.69 2.69 0 0 1-1.455-.411c-.438-.281-.786-.676-1.044-1.185-.25-.516-.375-1.111-.375-1.783zm4.905.011c0-.5-.141-.895-.422-1.185-.274-.289-.61-.434-1.009-.434s-.739.145-1.021.434c-.274.282-.411.673-.411 1.174s.137.899.411 1.197c.282.289.622.434 1.021.434s.735-.145 1.009-.434c.282-.29.422-.685.422-1.186zm5.465-2.182c.235-.36.528-.642.88-.845a2.24 2.24 0 0 1 1.173-.317v2.124h-.552c-.501 0-.876.11-1.127.329-.25.211-.375.586-.375 1.126v3.039H83.58v-6.547h2.007v1.091zm6.662 3.755v1.701h-1.021c-.727 0-1.295-.176-1.701-.528-.407-.36-.61-.942-.61-1.748v-2.605h-.798v-1.666h.798v-1.596h2.007v1.596h1.314v1.666h-1.314v2.628c0 .196.047.337.141.423s.25.129.469.129h.716zm7.29-1.678c0 .188-.012.383-.035.587h-4.541c.031.406.16.719.387.938.235.211.52.317.857.317.501 0 .849-.211 1.044-.634h2.136c-.109.431-.309.818-.599 1.162a2.92 2.92 0 0 1-1.068.81c-.43.195-.911.293-1.443.293-.641 0-1.213-.137-1.713-.411s-.892-.665-1.173-1.173-.422-1.103-.422-1.784.137-1.275.411-1.783a2.92 2.92 0 0 1 1.173-1.174c.501-.273 1.076-.41 1.725-.41.634 0 1.197.133 1.69.399s.876.645 1.15 1.138c.282.493.422 1.068.422 1.725zm-2.053-.528c0-.344-.117-.618-.352-.822s-.528-.305-.88-.305c-.336 0-.622.098-.857.294-.227.195-.368.473-.422.833h2.511zm2.713.622c0-.673.125-1.264.376-1.772.258-.509.606-.9 1.044-1.174s.927-.41 1.467-.41c.43 0 .821.09 1.173.27.36.18.642.422.845.727v-3.039h2.007v8.683h-2.007v-.938c-.188.312-.458.563-.81.75-.344.188-.747.282-1.208.282a2.71 2.71 0 0 1-1.467-.411c-.438-.281-.786-.676-1.044-1.185-.251-.516-.376-1.111-.376-1.783zm4.905.011c0-.5-.141-.895-.422-1.185-.274-.289-.61-.434-1.009-.434a1.37 1.37 0 0 0-1.021.434c-.274.282-.411.673-.411 1.174s.137.899.411 1.197a1.37 1.37 0 0 0 1.021.434c.399 0 .735-.145 1.009-.434.281-.29.422-.685.422-1.186z" fill="#848484"/><circle cx="20.076" cy="251.324" r="10.385" fill="#d9d9d9" fill-opacity=".45"/><g class="C"><rect x="49.375" y="25.705" width="50.434" height="5.404" rx="2.702" transform="rotate(359.809 49.375 25.705)" fill-opacity=".37"/><rect x="49.406" y="34.711" width="72.95" height="5.404" rx="2.702" transform="rotate(359.809 49.406 34.711)" fill-opacity=".37"/></g><rect x="182.421" y="32.666" width="42.237" height="42.237" rx="4.62" transform="rotate(315 182.421 32.666)" fill="#484848" stroke="#1a1a1a" stroke-width="3.96"/><g filter="url(#B)"><rect x="104.76" y="95.799" width="81.575" height="115.407" rx="8.953" transform="rotate(344.512 104.76 95.799)" fill="#1a1a1a"/><rect x="105.372" y="96.145" width="80.58" height="114.412" rx="8.456" transform="rotate(344.512 105.372 96.145)" stroke-width=".995" class="D"/></g><g class="C B"><rect width="26.297" height="3.62" rx="1.81" transform="matrix(.963677 -.26707 .226768 .973949 131.631 95.9297)"/><rect width="38.037" height="3.932" rx="1.966" transform="matrix(.963677 -.26707 .226768 .973949 129.617 102.145)"/></g><g class="E B"><rect width="16.209" height="5.111" rx="2.555" transform="matrix(.963677 -.26707 .226768 .973949 132.662 108.074)"/><rect width="69.834" height="7.676" rx="3.838" transform="matrix(.963677 -.26707 .226768 .973949 130.668 159.084)"/><path d="M134.985 175.851c-.993-3.292.97-6.86 4.29-7.794l55.444-15.607a5.69 5.69 0 0 1 7.099 4.018l3.922 14.472c.886 3.268-1.092 6.733-4.36 7.639l-55.102 15.271a5.69 5.69 0 0 1-7.03-3.863l-4.263-14.136z"/><rect width="16.209" height="5.111" rx="2.555" transform="matrix(.963677 -.26707 .226768 .973949 149.574 103.1)"/></g><g class="C B"><rect x="119.725" y="125.256" width="21.394" height="31.718" rx="1.783" transform="rotate(344.51 119.725 125.256)"/><rect x="143.6" y="118.291" width="21.394" height="31.718" rx="1.783" transform="rotate(344.51 143.6 118.291)"/><rect x="166.48" y="111.328" width="21.394" height="31.718" rx="1.783" transform="rotate(344.51 166.48 111.328)"/></g><circle cx="432.725" cy="105.741" r="33.664" transform="rotate(353.666 432.725 105.741)" class="D"/><path d="M439.249 96.993c2.447.63 4.941-.843 5.571-3.29l2.045.526c-.63 2.447.843 4.941 3.29 5.571l-.526 2.045c-2.447-.63-4.942.843-5.572 3.29l-2.044-.527c.63-2.447-.843-4.941-3.29-5.571l.526-2.045zm-15.61-1.475c.388-1.506 1.923-2.412 3.429-2.025l9.543 2.457.701-2.726-9.542-2.457a5.63 5.63 0 0 0-6.857 4.049l-3.51 13.632c-.775 3.012 1.038 6.082 4.049 6.857l16.359 4.212a5.63 5.63 0 0 0 6.857-4.049l1.755-6.816-2.727-.702-1.755 6.816c-.387 1.506-1.922 2.412-3.428 2.025l-16.359-4.212c-1.506-.388-2.412-1.923-2.024-3.429l3.509-13.632z" class="E"/><circle cx="170.324" cy="315.339" r="17" transform="rotate(353.666 170.324 315.339)" class="D"/><g clip-path="url(#C)" class="E"><path d="M170.461 306.876c.051.37-.065.724-.289.987l.215 1.566 4.16-.569a2.52 2.52 0 0 1 2.838 2.154l1.14 8.321a2.52 2.52 0 0 1-2.155 2.838l-9.985 1.367a2.52 2.52 0 0 1-2.838-2.154l-1.14-8.321a2.52 2.52 0 0 1 2.155-2.838l4.16-.57-.214-1.566a1.25 1.25 0 0 1-.543-.873 1.26 1.26 0 0 1 1.077-1.419 1.26 1.26 0 0 1 1.419 1.077zm-5.671 5.015a.84.84 0 0 0-.718.946l1.139 8.321a.84.84 0 0 0 .946.718l9.985-1.367a.84.84 0 0 0 .718-.946l-1.139-8.321a.84.84 0 0 0-.946-.718l-4.16.57-1.665.227-4.16.57zm-2.987 2.952l-1.664.228.684 4.993 1.664-.228-.684-4.993zm16.642-2.279l1.664-.227.684 4.992-1.664.228-.684-4.993zm-10.304 5.226a1.26 1.26 0 0 0 1.077-1.419 1.26 1.26 0 0 0-1.419-1.077 1.26 1.26 0 0 0-1.077 1.419 1.26 1.26 0 0 0 1.419 1.077zm4.992-.684a1.26 1.26 0 0 0 1.077-1.419 1.26 1.26 0 0 0-1.419-1.077 1.26 1.26 0 0 0-1.077 1.419 1.26 1.26 0 0 0 1.419 1.077z"/></g><circle cx="270.324" cy="88.324" r="17" transform="rotate(353.666 270.324 88.324)" class="D"/><g clip-path="url(#D)" class="E"><path d="M268.304 94.802a2.15 2.15 0 0 1-2.672-1.443c-.34-1.136.306-2.333 1.443-2.672a2.15 2.15 0 0 1 2.411.88l3.319-.991-.351-1.175 1.175-.352-1.011-3.384-1.712-.925-3.385 1.011.352 1.176-3.528 1.054-1.054-3.527 3.528-1.054.351 1.175 3.384-1.011 1.338-2.476 3.239 1.749-1.337 2.475 1.011 3.385 1.176-.351 1.054 3.527-3.528 1.054-.351-1.176-3.318.992a2.15 2.15 0 0 1-1.534 2.059zm-.878-2.939a.92.92 0 1 0 .527 1.764.92.92 0 1 0-.527-1.764zm7.73-1.989l-1.175.351.351 1.176 1.176-.351-.352-1.176zm-2.768-7.123l-.583 1.08 1.08.583.583-1.08-1.08-.583zm-6.394 2.175l-1.175.351.351 1.176 1.176-.351-.352-1.176z"/></g><circle cx="28.064" cy="167.063" r="13.142" transform="rotate(353.666 28.064 167.063)" class="D"/><g clip-path="url(#E)" class="E"><path d="M30.224 160.214l-.631 1.001 1.622 1.022-2.933.665.262 1.154 2.933-.665-1.023 1.622 1.001.631 2.099-3.331-3.331-2.099zm-3.83 3.723a1.48 1.48 0 0 0-1.769-1.115 1.48 1.48 0 0 0-1.115 1.769 1.48 1.48 0 0 0 1.769 1.115 1.48 1.48 0 0 0 1.115-1.769zm1.154-.262a2.66 2.66 0 1 1-5.191 1.177 2.66 2.66 0 1 1 5.191-1.177zm-1.783 7.075l1.622 1.023-.631 1.001-3.331-2.1 2.099-3.33 1.001.63-1.023 1.623 2.933-.665.262 1.153-2.933.665zm5.371-.611l2.307-.523-.523-2.307-2.307.523.523 2.307zm-1.807-2.622a.59.59 0 0 1 .446-.708l3.461-.785a.59.59 0 0 1 .707.446l.785 3.461a.59.59 0 0 1-.446.708l-3.461.784a.59.59 0 0 1-.708-.446l-.785-3.46z"/></g><defs><filter id="A" x="188.549" y="101.512" width="356.156" height="284.347" filterUnits="userSpaceOnUse" class="H"><feFlood flood-opacity="0" result="A"/><feColorMatrix in="SourceAlpha" values="0 0 0 0 0 0 0 0 0 0 0 0 0 0 0 0 0 0 127 0" result="B"/><feOffset/><feGaussianBlur stdDeviation="23.825"/><feComposite in2="B" operator="out"/><feColorMatrix values="0 0 0 0 0.215686 0 0 0 0 0.65098 0 0 0 0 0.968627 0 0 0 0.3 0"/><feBlend in2="A"/><feBlend in="SourceGraphic"/></filter><filter id="B" x="61.063" y="30.317" width="196.826" height="220.396" filterUnits="userSpaceOnUse" class="H"><feFlood flood-opacity="0" result="A"/><feColorMatrix in="SourceAlpha" values="0 0 0 0 0 0 0 0 0 0 0 0 0 0 0 0 0 0 127 0" result="B"/><feOffset/><feGaussianBlur stdDeviation="22.881"/><feComposite in2="B" operator="out"/><feColorMatrix values="0 0 0 0 0.215686 0 0 0 0 0.65098 0 0 0 0 0.968627 0 0 0 0.48 0"/><feBlend in2="A"/><feBlend in="SourceGraphic"/></filter><clipPath id="C"><path transform="matrix(.990756 -.135656 .135656 .990756 159 306.75)" d="M0 0h20.157v20.157H0z" class="C"/></clipPath><clipPath id="D"><path transform="matrix(.958161 -.28623 .28623 .958161 261 83.2148)" d="M0 0h14.726v14.726H0z" class="C"/></clipPath><clipPath id="E"><path transform="matrix(.975246 -.221123 .221123 .975246 20 161.139)" d="M0 0h14.194v14.194H0z" class="C"/></clipPath></defs></svg>