<svg width="15" height="14" viewBox="0 0 15 14" fill="none" xmlns="http://www.w3.org/2000/svg">
<path d="M11.2257 5.92025L7.24689 1.94144C7.0634 1.75147 6.96187 1.49702 6.96417 1.23291C6.96646 0.968805 7.0724 0.716164 7.25916 0.529404C7.44592 0.342644 7.69856 0.236708 7.96267 0.234413C8.22678 0.232118 8.48122 0.333647 8.6712 0.517134L14.3694 6.21538C14.4633 6.30871 14.5378 6.41968 14.5886 6.54189C14.6395 6.66411 14.6656 6.79517 14.6656 6.92754C14.6656 7.0599 14.6395 7.19096 14.5886 7.31318C14.5378 7.4354 14.4633 7.54636 14.3694 7.63969L8.6712 13.3379C8.57828 13.4341 8.46713 13.5109 8.34423 13.5637C8.22134 13.6165 8.08916 13.6443 7.95542 13.6454C7.82167 13.6466 7.68903 13.6211 7.56524 13.5704C7.44144 13.5198 7.32898 13.445 7.2344 13.3504C7.13982 13.2558 7.06503 13.1434 7.01438 13.0196C6.96373 12.8958 6.93825 12.7632 6.93941 12.6294C6.94057 12.4957 6.96836 12.3635 7.02115 12.2406C7.07394 12.1177 7.15068 12.0066 7.24689 11.9136L11.2257 7.93483H1.56979C1.30264 7.93483 1.04643 7.8287 0.857529 7.6398C0.668625 7.4509 0.5625 7.19469 0.5625 6.92754C0.5625 6.66039 0.668625 6.40418 0.857529 6.21528C1.04643 6.02637 1.30264 5.92025 1.56979 5.92025H11.2257Z" fill="#37A6F7"/>
</svg>
