<svg xmlns="http://www.w3.org/2000/svg" width="277" height="118" fill="none" xmlns:v="https://vecta.io/nano"><rect x="102.113" y=".9" width="36.1" height="36.1" rx="8.317" stroke="#969696" stroke-width="1.062"/><path d="M121.3 11.507v17.175h-2.275V11.507h-6.826v-2.29h15.927v2.29H121.3z" fill="#000"/><rect x="205.482" y="3.66" width="42.361" height="42.361" rx="8.587" stroke="#03aa82" stroke-width="1.145"/><path d="M223.646 23.332c1.072 1.885 2.64 3.453 4.525 4.525l1.013-1.418c.337-.471.972-.617 1.481-.339a13.07 13.07 0 0 0 5.247 1.562c.595.047 1.055.544 1.055 1.141v5.109c0 .587-.444 1.079-1.028 1.139-.607.062-1.219.094-1.835.094a17.75 17.75 0 0 1-17.746-17.746 18.04 18.04 0 0 1 .094-1.834c.06-.584.552-1.028 1.139-1.028h5.109c.598 0 1.095.459 1.142 1.055.147 1.857.681 3.637 1.561 5.247.278.508.132 1.144-.339 1.48l-1.418 1.013zm-2.886-.752l2.175-1.554a15.33 15.33 0 0 1-1.256-4.2h-3.02l-.011.573a15.46 15.46 0 0 0 15.456 15.456l.573-.011v-3.02a15.36 15.36 0 0 1-4.2-1.256l-1.554 2.175c-.628-.244-1.235-.532-1.817-.858l-.067-.038a14.38 14.38 0 0 1-5.383-5.384l-.038-.066a14.19 14.19 0 0 1-.858-1.818z" fill="#03aa82"/><rect x="169.107" y="75.145" width="106.794" height="38.974" rx="5.891" stroke="#ffc700" stroke-width=".906"/><path d="M188.593 100.306l-6.393 3.579 1.428-7.186-5.379-4.974 7.276-.863 3.068-6.653 3.069 6.653 7.275.863-5.379 4.974 1.428 7.186-6.393-3.579zm33.91-.453l-6.393 3.579 1.428-7.186-5.379-4.974 7.276-.863 3.068-6.653 3.069 6.653 7.275.863-5.378 4.974 1.427 7.186-6.393-3.579zm33.912-1.624l3.849 2.154-.86-4.326 3.239-2.995-4.381-.519-1.847-4.006v9.692zm0 2.077l-6.394 3.579 1.428-7.186-5.379-4.974 7.276-.863 3.069-6.653 3.068 6.653 7.276.863-5.379 4.974 1.428 7.186-6.393-3.579z" fill="#e7b500"/><g clip-path="url(#A)"><rect x="110.3" y="60.75" width="43.721" height="41.479" rx="8.408" stroke="#6103aa" stroke-width="1.121"/><path d="M120.949 72.514a1.12 1.12 0 0 1 1.112-1.114h20.197c.614 0 1.112.499 1.112 1.114v17.952a1.12 1.12 0 0 1-1.112 1.114h-20.197c-.614 0-1.112-.499-1.112-1.114V72.514zm2.242 1.129v2.242h2.242v-2.242h-2.242zm15.695 0v2.242h2.242v-2.242h-2.242zm-15.695 4.484v2.242h2.242v-2.242h-2.242zm15.695 0v2.242h2.242v-2.242h-2.242zm-15.695 4.484v2.242h2.242V82.61h-2.242zm15.695 0v2.242h2.242V82.61h-2.242zm-15.695 4.484v2.242h2.242v-2.242h-2.242zm15.695 0v2.242h2.242v-2.242h-2.242z" fill="#6103aa"/><rect x="57.617" y="32.54" width="31.496" height="31.496" rx="6.716" stroke="#37a6f7" stroke-width=".896"/><path d="M76.985 42.495h2.896c.4 0 .724.324.724.724v11.584c0 .4-.324.724-.724.724H66.848c-.4 0-.724-.324-.724-.724V43.219c0-.4.324-.724.724-.724h2.896v-1.448h1.448v1.448h4.344v-1.448h1.448v1.448zm-9.412 4.344v7.24h11.584v-7.24H67.572zm1.448 2.896h3.62v2.896h-3.62v-2.896z" fill="#37a6f7"/><rect x=".594" y="54.371" width="41.75" height="41.75" rx="7.893" stroke="#8d4e05" stroke-width="1.052"/><path d="M29.626 72.527v10.87c0 .506-.403.913-.9.913H14.212a.9.9 0 0 1-.9-.899v-16.33a.91.91 0 0 1 .905-.899h9.065v5.438c0 .501.406.906.906.906h5.438zm0-1.813h-4.532v-4.529l4.532 4.529z" fill="#8d4e05"/><rect x="14.917" y="4.342" width="27.604" height="27.604" rx="5.219" stroke="#257d17" stroke-width=".696"/><g clip-path="url(#B)"><g clip-path="url(#C)"><path d="M31.318 21.081l-3.605 3.605-3.605-3.605a5.1 5.1 0 0 1 0-7.21 5.1 5.1 0 0 1 7.21 0 5.1 5.1 0 0 1 0 7.21zm-3.605-2.472c.626 0 1.133-.507 1.133-1.133s-.507-1.133-1.133-1.133-1.133.507-1.133 1.133.507 1.133 1.133 1.133z" fill="#257d17"/></g></g><rect x="53.952" y="82.35" width="35.147" height="35.147" rx="6.116" stroke="#364cc3" stroke-width=".815"/><g clip-path="url(#D)"><path d="M74.959 100.293c-.531.074-.859.619-.676 1.123l1.655 4.546c.159.437-.066.921-.504 1.08l-2.648.964c-.437.159-.921-.066-1.08-.504l-1.654-4.546c-.184-.504-.785-.71-1.24-.425l-1.169.733c-.594.373-1.357-.101-1.286-.799l1.109-10.977c.071-.702.921-1.011 1.426-.519l7.906 7.696c.502.489.223 1.342-.472 1.439l-1.367.189zm-1.465 5.538a.45.45 0 0 0 .269-.577l-1.935-5.315c-.183-.504.144-1.049.676-1.123l1.292-.179c.139-.019.195-.19.094-.288l-4.582-4.46c-.101-.098-.271-.037-.285.104l-.626 6.191c-.021.209.208.351.386.239l.959-.601c.454-.285 1.056-.078 1.239.426l1.935 5.315a.45.45 0 0 0 .577.269z" fill="#364cc3"/></g><rect x="154.539" y="17.071" width="30.207" height="30.207" rx="5.809" stroke="#af1616" stroke-width=".775"/><path d="M175.838 32.175a6.2 6.2 0 0 0-6.196-6.196 6.2 6.2 0 0 0-6.196 6.196 6.2 6.2 0 0 0 6.196 6.196c1.271 0 2.454-.383 3.437-1.04l.86 1.289a7.71 7.71 0 0 1-4.297 1.3 7.75 7.75 0 0 1-7.746-7.745 7.75 7.75 0 0 1 7.746-7.745c4.277 0 7.745 3.468 7.745 7.745v1.162a2.71 2.71 0 0 1-4.954 1.523 3.86 3.86 0 0 1-2.791 1.188c-2.139 0-3.873-1.734-3.873-3.873s1.734-3.873 3.873-3.873c.872 0 1.676.288 2.324.774h1.549v4.26a1.16 1.16 0 1 0 2.323 0v-1.162zm-6.196-2.324c-1.283 0-2.324 1.04-2.324 2.324s1.041 2.324 2.324 2.324 2.323-1.04 2.323-2.324-1.04-2.324-2.323-2.324z" fill="#af1616"/></g><defs><clipPath id="A"><path fill="#fff" transform="translate(.067 3.994)" d="M0 0h193.964v113.911H0z"/></clipPath><clipPath id="B"><path fill="#fff" transform="translate(21.528 10.953)" d="M0 0h14.383v14.383H0z"/></clipPath><clipPath id="C"><path fill="#fff" transform="translate(20.914 11.245)" d="M0 0h13.596v13.596H0z"/></clipPath><clipPath id="D"><path fill="#fff" transform="translate(61.698 90.096)" d="M0 0h19.654v19.654H0z"/></clipPath></defs></svg>