<svg width="24" height="25" viewBox="0 0 24 25" fill="none" xmlns="http://www.w3.org/2000/svg">
<path d="M14.1393 14.0323L15.9027 20.4691C16.1296 21.2974 15.6283 22.1498 14.7941 22.3541L12.2195 22.9844C11.4168 23.181 10.6036 22.7027 10.3852 21.9056L8.59995 15.3887L6.65854 16.3162C5.52238 16.8591 4.25486 15.8696 4.5057 14.6357L6.81116 3.29487C7.06193 2.06128 8.61448 1.64501 9.44876 2.58767L17.2669 11.4215C18.1208 12.3864 17.4681 13.9099 16.1804 13.9572L14.1393 14.0323ZM12.9486 20.5332C13.2603 20.4568 13.4476 20.1383 13.3628 19.8288L11.7105 13.7973C11.4507 12.8487 12.143 11.9057 13.1259 11.8696L14.6211 11.8145L11.692 8.50486L9.37124 5.88262C9.12096 5.59982 8.65519 5.7247 8.57996 6.09477L7.03985 13.6707L8.447 12.9984C9.30502 12.5885 10.3249 13.0548 10.5762 13.972L12.2632 20.1301C12.3448 20.4279 12.6486 20.6066 12.9486 20.5332V20.5332Z" fill="#707070"/>
</svg>
