<svg width="25" height="24" viewBox="0 0 25 24" fill="none" xmlns="http://www.w3.org/2000/svg">
<path d="M7.40009 18.4946L8.12482 18.9172C9.33557 19.6232 10.7116 20.0002 12.1475 20.0002C16.5658 20.0002 20.1475 16.4185 20.1475 12.0002C20.1475 7.58196 16.5658 4.00024 12.1475 4.00024C7.72918 4.00024 4.14746 7.58196 4.14746 12.0002C4.14746 13.4365 4.52469 14.813 5.23114 16.024L5.65352 16.748L5.00003 19.1496L7.40009 18.4946ZM2.15164 22.0002L3.5036 17.0317C2.64142 15.5538 2.14746 13.8347 2.14746 12.0002C2.14746 6.47739 6.62461 2.00024 12.1475 2.00024C17.6703 2.00024 22.1475 6.47739 22.1475 12.0002C22.1475 17.523 17.6703 22.0002 12.1475 22.0002C10.3136 22.0002 8.59499 21.5066 7.11734 20.6449L2.15164 22.0002ZM8.5388 7.30857C8.67268 7.29916 8.80701 7.29772 8.94107 7.30426C8.99523 7.30782 9.04913 7.31408 9.10307 7.32031C9.26233 7.3387 9.43746 7.43569 9.49634 7.56918C9.79466 8.2456 10.0841 8.92589 10.3647 9.60987C10.4266 9.76086 10.3893 9.95657 10.2715 10.1459C10.2117 10.243 10.1178 10.3792 10.009 10.5185C9.89587 10.6632 9.65247 10.9293 9.65247 10.9293C9.65247 10.9293 9.55386 11.0475 9.59103 11.1946C9.60551 11.2502 9.65169 11.3312 9.69356 11.3993C9.71675 11.437 9.73828 11.4707 9.75225 11.494C10.0082 11.9213 10.3522 12.3545 10.7724 12.7618C10.8928 12.8785 11.0096 12.9976 11.1352 13.1082C11.6035 13.5211 12.1333 13.8585 12.7055 14.1084L12.7106 14.1107C12.7951 14.1471 12.8385 14.167 12.9622 14.2195C13.0246 14.2459 13.0884 14.2687 13.1539 14.286C13.1776 14.2922 13.2019 14.2957 13.2263 14.2974C13.388 14.3071 13.4815 14.2034 13.5214 14.1557C14.2449 13.2792 14.3111 13.222 14.3161 13.2224V13.224C14.4112 13.1238 14.5607 13.089 14.6941 13.0972C14.755 13.1009 14.8156 13.1126 14.871 13.1379C15.4028 13.3805 16.2723 13.7589 16.2723 13.7589L16.8538 14.0203C16.9512 14.0673 17.0401 14.178 17.0444 14.2856C17.047 14.3525 17.0542 14.4605 17.0303 14.6581C16.999 14.9168 16.9203 15.2283 16.8421 15.3915C16.7871 15.506 16.7159 15.6076 16.6331 15.6936C16.5208 15.8102 16.4374 15.881 16.3024 15.9816C16.2202 16.0428 16.1776 16.0716 16.1776 16.0716C16.0387 16.1592 15.9604 16.203 15.7949 16.2911C15.5375 16.4282 15.2531 16.507 14.9618 16.522C14.7761 16.5315 14.5909 16.5449 14.4054 16.5349C14.3972 16.5344 13.8372 16.4484 13.8372 16.4484C12.4153 16.0744 11.1003 15.3738 9.99682 14.4022C9.77121 14.2036 9.56198 13.9887 9.34842 13.7761C8.45936 12.891 7.7863 11.9366 7.37817 11.0338C7.17691 10.5886 7.04947 10.1118 7.04746 9.62122C7.04377 9.01429 7.24247 8.42344 7.61217 7.9421C7.68505 7.84721 7.75422 7.74879 7.87357 7.6361C7.99996 7.51675 8.0804 7.45268 8.16705 7.40835C8.28255 7.34926 8.40941 7.31766 8.5388 7.30857Z" fill="#707070"/>
</svg>
