<svg width="25" height="24" viewBox="0 0 25 24" fill="none" xmlns="http://www.w3.org/2000/svg">
<g clip-path="url(#clip0_2229_2681)">
<path d="M13.6465 2.00024C13.6465 2.44449 13.4534 2.84363 13.1465 3.11829V5.00024H18.1465C19.8034 5.00024 21.1465 6.34339 21.1465 8.00024V18.0002C21.1465 19.6571 19.8034 21.0002 18.1465 21.0002H6.14648C4.48963 21.0002 3.14648 19.6571 3.14648 18.0002V8.00024C3.14648 6.34339 4.48963 5.00024 6.14648 5.00024H11.1465V3.11829C10.8396 2.84363 10.6465 2.44449 10.6465 2.00024C10.6465 1.17181 11.3181 0.500244 12.1465 0.500244C12.9749 0.500244 13.6465 1.17181 13.6465 2.00024ZM6.14648 7.00024C5.5942 7.00024 5.14648 7.44796 5.14648 8.00024V18.0002C5.14648 18.5525 5.5942 19.0002 6.14648 19.0002H18.1465C18.6988 19.0002 19.1465 18.5525 19.1465 18.0002V8.00024C19.1465 7.44796 18.6988 7.00024 18.1465 7.00024H13.1465H11.1465H6.14648ZM2.14648 10.0002H0.146484V16.0002H2.14648V10.0002ZM22.1465 10.0002H24.1465V16.0002H22.1465V10.0002ZM9.14648 14.5002C9.97491 14.5002 10.6465 13.8286 10.6465 13.0002C10.6465 12.1718 9.97491 11.5002 9.14648 11.5002C8.31805 11.5002 7.64648 12.1718 7.64648 13.0002C7.64648 13.8286 8.31805 14.5002 9.14648 14.5002ZM15.1465 14.5002C15.9749 14.5002 16.6465 13.8286 16.6465 13.0002C16.6465 12.1718 15.9749 11.5002 15.1465 11.5002C14.3181 11.5002 13.6465 12.1718 13.6465 13.0002C13.6465 13.8286 14.3181 14.5002 15.1465 14.5002Z" fill="#707070"/>
</g>
<defs>
<clipPath id="clip0_2229_2681">
<rect width="24" height="24" fill="white" transform="translate(0.146484 0.000244141)"/>
</clipPath>
</defs>
</svg>
