<svg width="24" height="25" viewBox="0 0 24 25" fill="none" xmlns="http://www.w3.org/2000/svg">
<path d="M7 2V3H3C1.34315 3 0 4.34315 0 6V9C0 11.7614 2.23858 14 5 14H11C13.7614 14 16 11.7614 16 9V6C16 4.34315 14.6569 3 13 3H9V2H7ZM2 6C2 5.44772 2.44772 5 3 5H13C13.5523 5 14 5.44772 14 6V9C14 10.6568 12.6569 12 11 12H5C3.34315 12 2 10.6568 2 9V6ZM5.5 10C6.3284 10 7 9.32843 7 8.5C7 7.67157 6.3284 7 5.5 7C4.67157 7 4 7.67157 4 8.5C4 9.32843 4.67157 10 5.5 10ZM10.5 10C11.3284 10 12 9.32843 12 8.5C12 7.67157 11.3284 7 10.5 7C9.6716 7 9 7.67157 9 8.5C9 9.32843 9.6716 10 10.5 10ZM2 23C2 19.6863 4.68629 17 8 17C11.3137 17 14 19.6863 14 23H16C16 18.5817 12.4183 15 8 15C3.58172 15 0 18.5817 0 23H2Z" fill="#707070"/>
</svg>
