<svg xmlns="http://www.w3.org/2000/svg" width="480" height="306" fill="none" xmlns:v="https://vecta.io/nano"><path d="M46.235.609c-.216-.216-.566-.216-.782 0l-3.519 3.519c-.216.216-.216.566 0 .782s.566.216.782 0l3.128-3.128 3.128 3.128c.216.216.566.216.782 0s.216-.566 0-.782L46.235.609zm-.782 304.782c.216.216.566.216.782 0l3.519-3.519c.216-.216.216-.566 0-.782s-.566-.216-.782 0l-3.128 3.128-3.128-3.128c-.216-.216-.566-.216-.782 0s-.216.566 0 .782l3.519 3.519zM.609 253.248c-.216.216-.216.566 0 .782l3.519 3.519c.216.216.566.216.782 0s.216-.566 0-.782l-3.128-3.128 3.128-3.127c.216-.216.216-.566 0-.782s-.566-.216-.782 0l-3.519 3.518zm421.782.782c.216-.216.216-.566 0-.782l-3.519-3.518c-.216-.216-.566-.216-.782 0s-.216.566 0 .782l3.128 3.127-3.128 3.128c-.216.216-.216.566 0 .782s.566.216.782 0l3.519-3.519zM45.291 1v304h1.106V1h-1.106zM1 254.192h421v-1.106H1v1.106z" fill="#9d9d9d"/><g filter="url(#A)"><path d="M136 231c91.069-11.167 277.366-69 294-211" stroke="#37a6f7" stroke-width="1.106"/></g><path d="M406.03 270.377v5.206c0 .429.091.735.274.918.183.172.5.258.951.258h1.08V278h-1.322c-.817 0-1.429-.188-1.837-.564s-.613-.994-.613-1.853v-5.206h-1.144v-1.209h1.144v-2.224h1.467v2.224h2.305v1.209h-2.305zm4.839-2.643c-.279 0-.516-.097-.709-.29s-.29-.43-.29-.71.097-.515.29-.709a.96.96 0 0 1 .709-.29c.269 0 .494.097.677.29.193.194.29.43.29.709a.97.97 0 0 1-.29.71c-.183.193-.408.29-.677.29zm.709 1.434V278h-1.466v-8.832h1.466zm13.121-.161c.687 0 1.3.145 1.837.435.537.279.962.704 1.273 1.273s.468 1.263.468 2.079V278h-1.451v-4.996c0-.881-.22-1.553-.661-2.015-.429-.473-1.015-.709-1.756-.709-.763 0-1.37.247-1.822.741-.451.484-.676 1.188-.676 2.112V278h-1.451v-4.996c0-.881-.22-1.553-.661-2.015-.43-.473-1.015-.709-1.756-.709-.763 0-1.37.247-1.822.741-.451.484-.677 1.188-.677 2.112V278h-1.466v-8.832h1.466v1.273c.291-.462.677-.816 1.161-1.063.494-.248 1.037-.371 1.628-.371.741 0 1.396.166 1.966.5s.994.821 1.273 1.466a2.89 2.89 0 0 1 1.225-1.45c.569-.344 1.203-.516 1.902-.516zm14.042 4.239a8.43 8.43 0 0 1-.049.886h-7.059c.054.87.349 1.553.887 2.047.548.483 1.208.725 1.982.725.634 0 1.16-.145 1.579-.435a2.37 2.37 0 0 0 .903-1.193h1.579a3.83 3.83 0 0 1-1.418 2.079c-.709.527-1.59.79-2.643.79-.838 0-1.59-.188-2.256-.564-.656-.376-1.171-.908-1.547-1.596-.377-.698-.565-1.504-.565-2.417s.183-1.714.548-2.401.876-1.215 1.531-1.58c.667-.376 1.429-.564 2.289-.564.838 0 1.579.183 2.224.548a3.72 3.72 0 0 1 1.483 1.515c.354.634.532 1.354.532 2.16zm-1.515-.307c0-.558-.124-1.036-.371-1.434-.247-.408-.586-.715-1.015-.919-.419-.215-.887-.322-1.402-.322-.742 0-1.376.236-1.902.709-.516.473-.811 1.128-.887 1.966h5.577zM57.568 173.307c-.913 0-1.708-.183-2.385-.548-.688-.365-1.219-.87-1.596-1.515-.376-.655-.564-1.402-.564-2.24 0-1.085.263-1.977.79-2.676.526-.709 1.257-1.176 2.192-1.402v1.58c-.537.15-.962.446-1.273.886-.312.43-.467.967-.467 1.612 0 .838.29 1.515.87 2.031.569.515 1.381.773 2.434.773 1.064 0 1.886-.258 2.466-.773s.87-1.193.87-2.031c0-.645-.151-1.182-.451-1.612s-.731-.725-1.289-.886v-1.58c.903.237 1.628.709 2.176 1.419.537.709.806 1.595.806 2.659 0 .838-.188 1.585-.564 2.24a3.94 3.94 0 0 1-1.596 1.515c-.688.365-1.493.548-2.417.548zm-4.561-14.721c0-.666.145-1.268.435-1.805.279-.538.704-.957 1.273-1.257.569-.312 1.262-.468 2.079-.468H62v1.451h-4.996c-.881 0-1.552.22-2.015.66-.473.441-.709 1.043-.709 1.805 0 .774.242 1.392.725 1.854.483.451 1.187.677 2.111.677H62v1.466H50.074v-1.466h4.351a2.9 2.9 0 0 1-1.048-1.193 3.94 3.94 0 0 1-.371-1.724zm.161-13.758H62v1.466h-1.306c.451.28.806.672 1.064 1.177.247.494.371 1.042.371 1.644 0 .687-.14 1.305-.419 1.853-.29.548-.72.983-1.289 1.306-.569.311-1.263.467-2.079.467h-5.173v-1.451h4.98c.87 0 1.542-.22 2.015-.66.462-.441.693-1.043.693-1.805 0-.785-.242-1.403-.725-1.854s-1.187-.677-2.111-.677H53.17v-1.466zm1.434-3.943a2.83 2.83 0 0 1-1.177-1.096c-.279-.484-.419-1.069-.419-1.757h1.515v.387c0 1.644.892 2.466 2.675 2.466H62v1.466h-8.832v-1.466h1.434zm-1.596-8.849c0-1.074.328-1.945.983-2.611.645-.666 1.579-.999 2.804-.999H62v1.45h-4.996c-.881 0-1.552.221-2.015.661-.473.441-.709 1.042-.709 1.805 0 .774.242 1.392.725 1.854.483.451 1.187.677 2.111.677H62v1.466h-8.832v-1.466h1.257a2.94 2.94 0 0 1-1.048-1.177c-.247-.505-.371-1.058-.371-1.66zm1.596-11.769a2.83 2.83 0 0 1-1.177-1.096c-.279-.484-.419-1.069-.419-1.757h1.515v.387c0 1.644.892 2.466 2.675 2.466H62v1.466h-8.832v-1.466h1.434zm2.949-3.998c-.903 0-1.692-.183-2.369-.548-.688-.365-1.219-.865-1.596-1.499-.376-.644-.564-1.359-.564-2.143 0-.774.167-1.445.5-2.015s.752-.994 1.257-1.273h-1.612v-1.483H62v1.483h-1.644c.516.29.946.725 1.289 1.305.333.57.5 1.236.5 1.999a4 4 0 0 1-.58 2.127c-.387.634-.929 1.134-1.628 1.499s-1.493.548-2.385.548zm.016-7.478c-.666 0-1.246.134-1.741.403a2.77 2.77 0 0 0-1.128 1.096 2.87 2.87 0 0 0-.403 1.499 2.97 2.97 0 0 0 .387 1.499c.258.451.634.811 1.128 1.079s1.074.403 1.741.403c.677 0 1.268-.134 1.773-.403.494-.268.876-.628 1.144-1.079a2.97 2.97 0 0 0 .387-1.499c0-.548-.129-1.048-.387-1.499a2.88 2.88 0 0 0-1.144-1.096c-.505-.269-1.09-.403-1.757-.403zm-3.191-5.75h5.206c.43 0 .736-.091.919-.274.172-.183.258-.5.258-.951v-1.08H62v1.322c0 .816-.188 1.429-.564 1.837s-.994.612-1.853.612h-5.206v1.145h-1.209v-1.145h-2.224v-1.466h2.224v-2.305h1.209v2.305zm2.869-12.14a8.64 8.64 0 0 1 .886.048v7.059c.87-.054 1.553-.349 2.047-.886.483-.548.725-1.209.725-1.982 0-.634-.145-1.16-.435-1.579a2.37 2.37 0 0 0-1.193-.903v-1.579a3.83 3.83 0 0 1 2.079 1.418c.526.709.79 1.59.79 2.643 0 .838-.188 1.59-.564 2.256-.376.655-.908 1.171-1.596 1.547-.698.376-1.504.564-2.417.564s-1.714-.183-2.401-.548a3.81 3.81 0 0 1-1.579-1.531c-.376-.666-.564-1.429-.564-2.289 0-.838.183-1.579.548-2.224a3.72 3.72 0 0 1 1.515-1.483c.634-.355 1.354-.532 2.16-.532zm-.306 1.515c-.559 0-1.037.124-1.434.371-.408.247-.715.586-.919 1.015-.215.419-.322.886-.322 1.402 0 .741.236 1.375.709 1.902.473.516 1.128.811 1.966.886v-5.576zm8.058-11.519c-1.01 1.031-2.294 1.837-3.852 2.418-1.558.569-3.239.854-5.044.854-1.848 0-3.573-.301-5.174-.903-1.612-.612-2.939-1.483-3.981-2.611v-1.531h.145a10.86 10.86 0 0 0 4.078 2.724c1.579.602 3.223.902 4.932.902a13.45 13.45 0 0 0 4.77-.854 11.6 11.6 0 0 0 3.981-2.53h.145v1.531zM58.922 65.8c.516 0 1.01.129 1.483.387.462.258.849.639 1.16 1.144.312.494.489 1.09.532 1.789h1.305v.87h-1.305c-.086.978-.398 1.773-.935 2.385a2.72 2.72 0 0 1-2.079.935v-1.563a2.04 2.04 0 0 0 1.176-.5c.333-.301.543-.72.629-1.257h-4.029c-.183.72-.371 1.3-.564 1.741s-.494.817-.902 1.128-.956.467-1.644.467c-.87 0-1.59-.301-2.16-.903-.569-.612-.886-1.424-.951-2.434H49.3v-.87h1.338c.075-.913.371-1.649.886-2.208.505-.559 1.166-.881 1.982-.967v1.563a1.85 1.85 0 0 0-1.015.5c-.312.279-.516.65-.612 1.112h3.932c.183-.709.371-1.284.564-1.725.183-.451.478-.827.886-1.128.408-.312.962-.467 1.66-.467zm-5.254 6.028c.526 0 .929-.156 1.209-.467s.51-.768.693-1.37h-3.723c.054.559.236 1.005.548 1.338.301.333.725.5 1.273.5zm7.236-2.708c-.065-.58-.274-1.031-.629-1.354-.355-.333-.779-.5-1.273-.5-.526 0-.929.161-1.209.484-.29.322-.521.779-.693 1.37h3.804zm4.094-9.923h-.145a11.4 11.4 0 0 0-3.981-2.514c-1.515-.58-3.105-.87-4.77-.87-1.708 0-3.352.306-4.932.919-1.59.602-2.949 1.504-4.078 2.708h-.145v-1.531c1.042-1.128 2.369-1.993 3.981-2.595 1.601-.612 3.326-.919 5.174-.919 1.805 0 3.487.29 5.044.87 1.558.569 2.842 1.37 3.852 2.401v1.531zm386.075 171.677c.283-1.6.763-2.852 1.44-3.755.688-.904 1.69-1.356 3.008-1.356 1.017 0 1.741.278 2.174.833.443.546.664 1.313.664 2.302 0 .583-.066 1.242-.198 1.976-.282 1.61-.767 2.867-1.454 3.77-.678.904-1.676 1.356-2.993 1.356-1.017 0-1.747-.273-2.189-.819-.433-.555-.65-1.332-.65-2.33 0-.583.066-1.242.198-1.977zm5.832 0c.131-.771.197-1.388.197-1.849 0-.669-.136-1.182-.409-1.539-.264-.367-.72-.551-1.37-.551-.64 0-1.158.174-1.553.522-.395.339-.701.791-.918 1.356-.207.565-.381 1.252-.522 2.061-.132.772-.198 1.394-.198 1.864 0 .669.132 1.186.395 1.553.273.358.735.537 1.384.537.64 0 1.158-.169 1.553-.508.396-.349.697-.805.904-1.37s.386-1.257.537-2.076zm3.218-2.781c.113-.631.395-1.135.847-1.511a2.4 2.4 0 0 1 1.582-.565c.527 0 .946.146 1.256.438.32.292.48.692.48 1.2a2.56 2.56 0 0 1-.042.438c-.113.63-.4 1.139-.861 1.525a2.38 2.38 0 0 1-1.568.565c-.527 0-.95-.146-1.27-.438-.311-.292-.466-.692-.466-1.2a2.46 2.46 0 0 1 .042-.452zm8.02-1.949L460.688 236h-1.285l7.469-9.856h1.271zm-5.733.664c-.329 0-.607.113-.833.339-.226.216-.371.532-.437.946-.029.141-.043.268-.043.381 0 .292.076.518.226.678.151.15.363.226.636.226.32 0 .593-.109.819-.325.226-.226.376-.546.451-.96.019-.085.029-.203.029-.353 0-.301-.076-.532-.226-.692s-.358-.24-.622-.24zm.932 7.243c.113-.64.396-1.148.848-1.525a2.39 2.39 0 0 1 1.581-.564c.518 0 .932.146 1.243.437.32.292.48.692.48 1.201a2.53 2.53 0 0 1-.043.451c-.113.631-.395 1.139-.847 1.525-.452.377-.974.565-1.567.565-.527 0-.951-.146-1.271-.438-.311-.291-.466-.691-.466-1.2 0-.15.014-.301.042-.452zm2.274-1.284a1.14 1.14 0 0 0-.819.324c-.226.217-.377.537-.452.96-.028.142-.042.264-.042.368 0 .291.075.517.225.677.161.151.372.226.636.226a1.14 1.14 0 0 0 .819-.325c.226-.216.376-.531.452-.946a1.79 1.79 0 0 0 .028-.367c0-.301-.075-.527-.226-.677-.151-.16-.358-.24-.621-.24zM449.37 15.161l.211-1.172h2.655L450.471 24h-1.299l1.553-8.839h-1.355zm4.226 3.714c.282-1.6.762-2.852 1.44-3.756.687-.904 1.69-1.355 3.008-1.355 1.016 0 1.741.278 2.174.833.443.546.664 1.313.664 2.302 0 .584-.066 1.243-.198 1.977-.282 1.61-.767 2.866-1.454 3.77-.678.904-1.676 1.355-2.994 1.355-1.016 0-1.746-.273-2.188-.819-.433-.555-.65-1.332-.65-2.33 0-.584.066-1.242.198-1.977zm5.831 0c.132-.772.198-1.388.198-1.85 0-.668-.136-1.181-.409-1.539-.264-.367-.72-.551-1.37-.551-.64 0-1.158.174-1.553.522-.396.339-.701.791-.918 1.355-.207.565-.381 1.252-.522 2.062-.132.772-.198 1.393-.198 1.864 0 .668.132 1.186.395 1.553.273.358.735.537 1.384.537.64 0 1.158-.169 1.553-.508.396-.348.697-.805.904-1.37s.386-1.257.536-2.076zm3.035 0c.283-1.6.763-2.852 1.441-3.756.687-.904 1.689-1.355 3.007-1.355 1.017 0 1.742.278 2.175.833.442.546.663 1.313.663 2.302 0 .584-.066 1.243-.197 1.977-.283 1.61-.768 2.866-1.455 3.77-.678.904-1.675 1.355-2.993 1.355-1.017 0-1.746-.273-2.189-.819-.433-.555-.649-1.332-.649-2.33 0-.584.066-1.242.197-1.977zm5.832 0c.132-.772.198-1.388.198-1.85 0-.668-.137-1.181-.41-1.539-.264-.367-.72-.551-1.37-.551-.64 0-1.157.174-1.553.522-.395.339-.701.791-.918 1.355-.207.565-.381 1.252-.522 2.062-.132.772-.198 1.393-.198 1.864 0 .668.132 1.186.396 1.553.273.358.734.537 1.383.537.641 0 1.158-.169 1.554-.508.395-.348.696-.805.903-1.37s.386-1.257.537-2.076zm3.218-2.782c.113-.631.396-1.134.847-1.511a2.39 2.39 0 0 1 1.582-.565c.527 0 .946.146 1.257.438.32.292.48.692.48 1.2a2.47 2.47 0 0 1-.043.438c-.113.631-.4 1.139-.861 1.525-.452.377-.974.565-1.567.565-.528 0-.951-.146-1.271-.438-.311-.292-.466-.692-.466-1.2a2.47 2.47 0 0 1 .042-.452zm8.02-1.949L472.077 24h-1.285l7.47-9.856h1.27zm-5.732.664a1.13 1.13 0 0 0-.833.339c-.226.216-.372.532-.438.946a1.98 1.98 0 0 0-.042.381c0 .292.075.518.225.678.151.151.363.226.636.226a1.14 1.14 0 0 0 .819-.325c.226-.226.376-.546.452-.96.018-.085.028-.202.028-.353 0-.301-.075-.532-.226-.692s-.358-.24-.621-.24zm.932 7.244c.113-.64.395-1.148.847-1.525s.979-.565 1.581-.565c.518 0 .932.146 1.243.438.32.292.48.692.48 1.2a2.63 2.63 0 0 1-.042.452 2.52 2.52 0 0 1-.848 1.525c-.452.377-.974.565-1.567.565-.527 0-.951-.146-1.271-.438-.31-.292-.466-.692-.466-1.2 0-.151.014-.301.043-.452zm2.273-1.285a1.14 1.14 0 0 0-.819.325c-.226.216-.377.537-.452.96-.028.141-.042.264-.042.367 0 .292.075.518.226.678.16.151.371.226.635.226a1.14 1.14 0 0 0 .819-.325c.226-.216.377-.532.452-.946.019-.085.028-.207.028-.367 0-.301-.075-.527-.226-.678-.15-.16-.358-.24-.621-.24zm-15.691 105.034c0 1.171-.269 2.063-.806 2.676-.526.612-1.214.918-2.063.918-.247 0-.478-.021-.693-.064-.752-.129-1.424-.457-2.014-.983s-1.01-1.231-1.258-2.112l-4.48 1.822v-3.111l4.271-1.596v-.66l-4.271-.758v-2.756l11.314 1.999v4.625zm-3.675.709l.339.033c.344 0 .607-.113.789-.339.194-.215.291-.537.291-.967v-1.708l-2.837-.5v1.709c0 .505.124.902.371 1.192.247.301.596.494 1.047.58zm-7.752 8.564c0-.956.199-1.8.596-2.53a4.2 4.2 0 0 1 1.677-1.677c.72-.397 1.547-.596 2.482-.596 1.321 0 2.498.285 3.529.854a6.15 6.15 0 0 1 2.434 2.369c.58 1.021.87 2.176.87 3.466 0 .967-.199 1.815-.596 2.546a4.06 4.06 0 0 1-1.66 1.692c-.709.398-1.526.597-2.45.597-1.322 0-2.509-.285-3.562-.855-1.042-.569-1.859-1.364-2.45-2.385-.58-1.021-.87-2.181-.87-3.481zm2.547.419c0 .709.182 1.332.548 1.869a3.59 3.59 0 0 0 1.466 1.241c.623.301 1.295.452 2.015.452.773 0 1.38-.215 1.821-.645s.661-1.031.661-1.805c0-.709-.183-1.338-.548-1.886-.366-.537-.854-.956-1.467-1.257-.602-.29-1.268-.435-1.998-.435-.774 0-1.386.215-1.838.645-.44.429-.66 1.037-.66 1.821zm8.88 11.622L450 145.117v-2.756l11.314 1.998v2.756z" fill="#9d9d9d"/><path stroke="#fff" stroke-opacity=".29" stroke-dasharray="2 2" d="M441.5 236V9"/><defs><filter id="A" x="132.933" y="16.936" width="300.616" height="217.613" filterUnits="userSpaceOnUse" color-interpolation-filters="sRGB"><feFlood flood-opacity="0" result="A"/><feColorMatrix in="SourceAlpha" values="0 0 0 0 0 0 0 0 0 0 0 0 0 0 0 0 0 0 127 0" result="B"/><feOffset/><feGaussianBlur stdDeviation="1.5"/><feComposite in2="B" operator="out"/><feColorMatrix values="0 0 0 0 0.215686 0 0 0 0 0.65098 0 0 0 0 0.968627 0 0 0 1 0"/><feBlend in2="A"/><feBlend in="SourceGraphic"/></filter></defs></svg>