<svg xmlns="http://www.w3.org/2000/svg" width="471" height="383" fill="none" xmlns:v="https://vecta.io/nano"><style><![CDATA[.B{fill:#fff}.C{fill:#37a6f7}.D{fill:#d9d9d9}.E{fill-opacity:.1}.F{fill-opacity:.16}.G{fill-opacity:.3}.H{fill-opacity:.2}.I{fill:#8097a1}.J{stroke-width:.776}]]></style><g class="C"><rect x="209.363" y="247.038" width="260.708" height="128.802" rx="23.666" fill-opacity=".24" stroke="#37a6f7" class="J"/><rect x="222.939" y="259.842" width="236.654" height="48.107" rx="17.846" fill-opacity=".25"/></g><g class="D"><rect x="280.359" y="271.48" width="162.167" height="8.535" rx="4.268" class="F"/><rect x="280.359" y="283.895" width="162.167" height="8.535" rx="4.268" class="F"/><rect x="233.027" y="318.035" width="209.497" height="8.535" rx="4.268" class="F"/><rect x="233.027" y="330.449" width="209.497" height="8.535" rx="4.268" class="F"/><rect x="233.027" y="345.191" width="121.819" height="8.535" rx="4.268" class="F"/><rect x="234.58" y="266.049" width="36.468" height="35.692" rx="13.191" fill-opacity=".22"/></g><g filter="url(#B)"><path d="M110.832 55h251.586c13.149 0 23.808 10.659 23.808 23.807v189.816c0 13.148-10.659 23.807-23.808 23.807H110.832V55z" fill="#171717" fill-opacity=".48"/><path d="M111.475 55.643h250.943c12.793 0 23.164 10.371 23.164 23.164v189.816c0 12.793-10.371 23.164-23.164 23.164H111.475V55.643z" stroke="#9b9b9b" stroke-opacity=".3" stroke-width="1.287"/><path fill="#0f1c24" d="M110.832 109.693h274.75v55.336h-274.75z"/><ellipse cx="139.077" cy="137.491" rx="19.258" ry="19.394" fill="#5d5d5d" class="H"/><path d="M351.11 130.684v-6.004l-1.081.483v-.637l1.341-.599h.434v6.757h-.694zm2.477 0l3.358-6.149h-4.053v-.608h4.806v.541l-3.32 6.216h-.791zm5.5.077a.5.5 0 0 1-.367-.155c-.097-.103-.145-.225-.145-.366 0-.148.048-.271.145-.367a.5.5 0 0 1 .367-.155.47.47 0 0 1 .357.155.48.48 0 0 1 .154.367.5.5 0 0 1-.154.366.47.47 0 0 1-.357.155zm0-3.832a.5.5 0 0 1-.367-.154c-.097-.103-.145-.226-.145-.367 0-.148.048-.27.145-.367a.5.5 0 0 1 .367-.154.47.47 0 0 1 .357.154.48.48 0 0 1 .154.367.5.5 0 0 1-.154.367.47.47 0 0 1-.357.154zm4.391 3.861a2.24 2.24 0 0 1-1.371-.444c-.392-.296-.701-.705-.926-1.226-.225-.528-.338-1.132-.338-1.814 0-.689.113-1.294.338-1.815s.534-.93.926-1.226a2.24 2.24 0 0 1 1.371-.444 2.2 2.2 0 0 1 1.361.444c.399.296.711.705.936 1.226s.338 1.126.338 1.815c0 .682-.113 1.286-.338 1.814-.225.521-.537.93-.936 1.226a2.2 2.2 0 0 1-1.361.444zm0-.628c.393 0 .73-.115 1.013-.347.29-.238.515-.57.676-.994.161-.431.241-.936.241-1.515s-.08-1.081-.241-1.506c-.161-.431-.386-.763-.676-.994a1.52 1.52 0 0 0-1.013-.357c-.386 0-.724.119-1.013.357-.29.231-.515.563-.676.994-.161.425-.241.926-.241 1.506s.08 1.084.241 1.515c.161.424.386.756.676.994a1.57 1.57 0 0 0 1.013.347zm3.434.522v-.512l2.702-2.953a5.17 5.17 0 0 0 .492-.608 1.82 1.82 0 0 0 .251-.502 1.54 1.54 0 0 0 .078-.493c0-.341-.136-.62-.406-.839-.264-.225-.601-.338-1.013-.338a2.11 2.11 0 0 0-.878.183c-.271.123-.573.335-.908.637l-.405-.482c.354-.322.711-.56 1.071-.714a2.74 2.74 0 0 1 1.129-.242c.406 0 .766.077 1.081.232a1.81 1.81 0 0 1 .744.618c.18.263.27.566.27.907a2.17 2.17 0 0 1-.087.627c-.058.187-.161.39-.309.608a7.7 7.7 0 0 1-.637.772l-2.307 2.5 3.485-.009v.608h-4.353z" class="I"/><ellipse cx="365.04" cy="145.894" rx="7.061" ry="7.111" class="C"/><circle cx="139.143" cy="248.032" r="19.303" fill="#676767" class="H"/><circle cx="139.143" cy="192.696" r="19.303" fill="#6f6f6f" class="H"/><path d="M354.885 243.232v-6.003l-1.081.483v-.637l1.341-.599h.435v6.756h-.695zm2.959 0v-6.003l-1.08.483v-.637l1.341-.599h.434v6.756h-.695zm2.69.078a.5.5 0 0 1-.367-.155.52.52 0 0 1-.145-.367c0-.148.049-.27.145-.366a.5.5 0 0 1 .367-.155.47.47 0 0 1 .357.155c.103.096.154.218.154.366a.5.5 0 0 1-.154.367.47.47 0 0 1-.357.155zm0-3.832c-.142 0-.264-.052-.367-.154a.52.52 0 0 1-.145-.367.5.5 0 0 1 .512-.521.47.47 0 0 1 .357.154.48.48 0 0 1 .154.367.5.5 0 0 1-.154.367c-.097.102-.216.154-.357.154zm1.699 3.754v-.511l2.702-2.954c.212-.231.376-.434.492-.608a1.83 1.83 0 0 0 .251-.501 1.54 1.54 0 0 0 .077-.493 1.03 1.03 0 0 0-.405-.839c-.264-.226-.602-.338-1.013-.338-.316 0-.608.061-.879.183s-.572.335-.907.637l-.405-.482c.354-.322.711-.56 1.071-.715s.737-.241 1.129-.241c.406 0 .766.077 1.081.232a1.81 1.81 0 0 1 .743.617c.181.264.271.567.271.908a2.17 2.17 0 0 1-.087.627c-.058.187-.161.389-.309.608-.148.212-.36.47-.637.772l-2.307 2.5 3.484-.01v.608h-4.352zm8.622 0v-1.804h-3.649v-.551l3.591-4.401h.743v4.344h.936v.608h-.936v1.804h-.685zm-2.838-2.412h2.838v-3.504l-2.838 3.504z" class="I"/><path d="M351.668 189.184v-6.004l-1.081.483v-.637l1.342-.599h.434v6.757h-.695zm5.508 0v-1.805h-3.649v-.55l3.591-4.402h.743v4.344h.936v.608h-.936v1.805h-.685zm-2.838-2.413h2.838v-3.504l-2.838 3.504zm5.986 2.49a.5.5 0 0 1-.367-.155c-.097-.103-.145-.225-.145-.366 0-.148.048-.271.145-.367a.5.5 0 0 1 .367-.155.47.47 0 0 1 .357.155.48.48 0 0 1 .154.367.5.5 0 0 1-.154.366.47.47 0 0 1-.357.155zm0-3.832a.5.5 0 0 1-.367-.154c-.097-.103-.145-.226-.145-.367 0-.148.048-.27.145-.367a.5.5 0 0 1 .367-.154.47.47 0 0 1 .357.154.48.48 0 0 1 .154.367.5.5 0 0 1-.154.367.47.47 0 0 1-.357.154zm3.928 3.861c-.463 0-.898-.081-1.303-.242a3.07 3.07 0 0 1-1.062-.714l.464-.453a2.84 2.84 0 0 0 .868.617c.303.123.644.184 1.023.184.328 0 .618-.058.869-.174.257-.116.457-.277.598-.483a1.21 1.21 0 0 0 .213-.704c0-.251-.065-.473-.193-.666a1.23 1.23 0 0 0-.512-.463c-.219-.11-.47-.164-.753-.164h-.801v-.599h.772c.367 0 .663-.112.888-.338.232-.225.348-.518.348-.878 0-.238-.065-.454-.193-.647a1.31 1.31 0 0 0-.531-.453c-.219-.116-.467-.174-.743-.174-.348 0-.66.064-.937.193-.27.122-.546.331-.83.627l-.463-.463c.303-.322.644-.563 1.023-.724.38-.167.785-.251 1.216-.251.412 0 .779.081 1.101.242.328.16.585.382.772.666.186.276.28.591.28.945a1.47 1.47 0 0 1-.348.956 1.81 1.81 0 0 1-.917.579c.457.103.824.302 1.101.598a1.47 1.47 0 0 1 .415 1.033c0 .373-.103.708-.309 1.004-.2.296-.48.528-.84.695-.354.167-.759.251-1.216.251zm5.561 0c-.463 0-.898-.081-1.303-.242a3.07 3.07 0 0 1-1.062-.714l.464-.453a2.84 2.84 0 0 0 .868.617c.303.123.644.184 1.023.184.328 0 .618-.058.869-.174.257-.116.457-.277.598-.483a1.21 1.21 0 0 0 .213-.704c0-.251-.065-.473-.193-.666a1.23 1.23 0 0 0-.512-.463c-.219-.11-.47-.164-.753-.164h-.801v-.599h.772c.367 0 .663-.112.888-.338.232-.225.348-.518.348-.878 0-.238-.065-.454-.193-.647a1.31 1.31 0 0 0-.531-.453c-.219-.116-.467-.174-.743-.174-.348 0-.66.064-.936.193-.271.122-.547.331-.831.627l-.463-.463c.303-.322.644-.563 1.023-.724.38-.167.785-.251 1.216-.251.412 0 .779.081 1.101.242.328.16.585.382.772.666.186.276.28.591.28.945a1.47 1.47 0 0 1-.348.956 1.81 1.81 0 0 1-.917.579c.457.103.824.302 1.101.598a1.47 1.47 0 0 1 .415 1.033c0 .373-.103.708-.309 1.004-.2.296-.48.528-.84.695-.354.167-.759.251-1.216.251z" class="I"/><circle cx="365.636" cy="204.277" r="7.078" class="C"/><circle cx="365.636" cy="258.328" r="7.078" class="C"/><rect x="115.982" y="75.893" width="2.432" height="12.656" rx=".395" class="C"/><rect x="123.854" y="75.893" width="2.027" height="4.264" rx=".395" class="B"/><rect x="123.855" y="81.207" width="2.027" height="7.343" rx=".395" class="B"/><rect x="119.398" y="83.238" width="2.03" height="6.485" rx=".395" transform="rotate(270 119.398 83.238)" class="B"/><path d="M130.613 89.445c-.73 0-1.394-.168-1.992-.505-.59-.337-1.057-.79-1.404-1.361s-.519-1.211-.519-1.922.164-1.352.491-1.922a3.8 3.8 0 0 1 1.361-1.361c.571-.337 1.207-.505 1.909-.505s1.323.173 1.866.519.968.814 1.277 1.403c.318.589.477 1.258.477 2.006v.505h-5.416a2.23 2.23 0 0 0 .407.786 2.05 2.05 0 0 0 .715.547c.29.131.599.196.926.196a2.51 2.51 0 0 0 .898-.154c.281-.103.519-.248.716-.435l1.262 1.151c-.448.365-.912.631-1.389.8-.467.168-.996.253-1.585.253zm-1.978-4.518h3.549a1.79 1.79 0 0 0-.364-.758 1.74 1.74 0 0 0-.618-.519 1.58 1.58 0 0 0-.786-.196 1.79 1.79 0 0 0-.813.182c-.244.122-.449.295-.618.519-.159.215-.276.472-.35.772zm8.46 4.378h-1.884V79.049h1.884v10.256zm5.111 0a3.22 3.22 0 0 1-1.274-.254 3.43 3.43 0 0 1-1.754-1.754 3.22 3.22 0 0 1-.254-1.274v-2.179h-.911v-1.863h.911v-2.932h1.864v2.932h2.836v1.863h-2.836v2.179a1.4 1.4 0 0 0 .11.555c.073.169.173.317.301.445s.279.231.452.308a1.42 1.42 0 0 0 .555.11h1.418v1.864h-1.418zm9.578 0h-.452l-.726-1.007a6.31 6.31 0 0 1-.569.452c-.197.137-.404.258-.624.363a3.98 3.98 0 0 1-.678.24 2.76 2.76 0 0 1-.699.089c-.516 0-1.002-.087-1.459-.26s-.849-.425-1.192-.754a3.62 3.62 0 0 1-.802-1.219c-.196-.48-.294-1.025-.294-1.637 0-.571.098-1.094.294-1.569s.464-.891.802-1.233c.343-.343.74-.608 1.192-.795a3.73 3.73 0 0 1 1.459-.288c.238 0 .473.03.706.089s.459.141.678.247.427.228.624.37a5.05 5.05 0 0 1 .562.459l.726-.87h.452v7.324zm-1.884-3.734a1.87 1.87 0 0 0-.151-.74 2.03 2.03 0 0 0-.397-.637 1.91 1.91 0 0 0-.596-.445c-.224-.114-.464-.171-.72-.171a2.03 2.03 0 0 0-.726.13 1.68 1.68 0 0 0-.589.384 1.83 1.83 0 0 0-.391.63c-.095.247-.143.53-.143.85s.048.605.143.856.227.454.391.624a1.68 1.68 0 0 0 .589.384 2.03 2.03 0 0 0 .726.13c.256 0 .496-.055.72-.164s.427-.263.596-.445a2.14 2.14 0 0 0 .397-.637 1.92 1.92 0 0 0 .151-.747zm5.186 3.734h-1.87v-7.337h.452l.617.87c.301-.274.644-.484 1.027-.63a3.23 3.23 0 0 1 1.192-.226h1.651v1.863h-1.651a1.42 1.42 0 0 0-.555.11 1.41 1.41 0 0 0-.452.301c-.128.128-.228.279-.301.452s-.11.359-.11.555v4.042z" class="B"/><path d="M167.082 86.359a2.82 2.82 0 0 1-.233 1.144 3.01 3.01 0 0 1-.637.939 3 3 0 0 1-.931.63 2.84 2.84 0 0 1-1.145.233h-4.912V79.48h4.912c.407 0 .788.078 1.145.233a2.94 2.94 0 0 1 .931.637c.27.265.482.575.637.932a2.82 2.82 0 0 1 .233 1.144c0 .183-.025.37-.075.562a2.73 2.73 0 0 1-.212.555c-.092.178-.201.34-.329.486a1.88 1.88 0 0 1-.425.363 1.51 1.51 0 0 1 .432.356c.128.146.237.308.328.486s.16.365.206.562.075.379.075.562zm-5.892.98h2.946c.137 0 .265-.025.384-.075a.95.95 0 0 0 .308-.206.97.97 0 0 0 .213-.315.98.98 0 0 0 .075-.384.98.98 0 0 0-.075-.384c-.05-.119-.121-.222-.213-.308-.086-.091-.189-.162-.308-.212s-.247-.075-.384-.075h-2.946v1.959zm0-3.926h2.946a.98.98 0 0 0 .384-.075c.119-.05.222-.119.308-.206a.97.97 0 0 0 .213-.315 1.03 1.03 0 0 0 .075-.391.98.98 0 0 0-.075-.384.9.9 0 0 0-.213-.308c-.086-.091-.189-.162-.308-.212s-.247-.075-.384-.075h-2.946v1.966zm14.271 2.158c0 .548-.098 1.06-.294 1.535s-.464.879-.802 1.226a3.81 3.81 0 0 1-1.192.815c-.452.196-.939.295-1.459.295a3.66 3.66 0 0 1-1.46-.295 3.93 3.93 0 0 1-1.192-.815c-.338-.347-.605-.756-.801-1.226s-.295-.987-.295-1.535c0-.557.098-1.073.295-1.548s.463-.884.801-1.226a3.77 3.77 0 0 1 1.192-.815 3.66 3.66 0 0 1 1.46-.295c.52 0 1.007.094 1.459.281s.854.445 1.192.788.605.747.802 1.226a4.13 4.13 0 0 1 .294 1.589zm-1.884 0c0-.301-.05-.573-.151-.815a1.84 1.84 0 0 0-.397-.63c-.169-.178-.368-.313-.596-.404s-.464-.144-.719-.144a1.86 1.86 0 0 0-.727.144c-.223.091-.42.226-.589.404-.164.174-.294.384-.39.63s-.144.514-.144.815c0 .283.048.546.144.788s.226.452.39.63a1.95 1.95 0 0 0 .589.425 1.79 1.79 0 0 0 .727.151c.255 0 .495-.048.719-.144s.427-.231.596-.404a1.84 1.84 0 0 0 .397-.63 2.13 2.13 0 0 0 .151-.815zm6.543 3.734a3.22 3.22 0 0 1-1.274-.254c-.398-.174-.747-.409-1.049-.706-.296-.301-.532-.651-.705-1.048a3.22 3.22 0 0 1-.254-1.274v-2.179h-.911v-1.863h.911v-2.932h1.864v2.932h2.836v1.863h-2.836v2.179c0 .196.036.381.109.555a1.42 1.42 0 0 0 .302.445c.128.128.278.231.452.308a1.42 1.42 0 0 0 .555.11h1.418v1.864h-1.418z" class="C"/><rect x="169.406" y="139.576" width="108.628" height="7.759" rx="3.88" class="D E"/><rect x="169.406" y="126.385" width="40.348" height="7.759" rx="3.88" class="D E"/><rect x="169.406" y="183.803" width="40.348" height="7.759" rx="3.88" class="D E"/><rect x="169.406" y="196.994" width="108.628" height="7.759" rx="3.88" class="D E"/><rect x="169.406" y="239.67" width="40.348" height="7.759" rx="3.88" class="D E"/><rect x="169.406" y="252.861" width="108.628" height="7.759" rx="3.88" class="D E"/><mask id="A" class="B"><path d="M60 78.807C60 65.659 70.659 55 83.807 55h28.955v237.43H83.807C70.659 292.43 60 281.771 60 268.623V78.807z"/></mask><path d="M60 78.807C60 65.659 70.659 55 83.807 55h28.955v237.43H83.807C70.659 292.43 60 281.771 60 268.623V78.807z" fill="#0b0b0b"/><path d="M58.713 78.807c0-13.859 11.235-25.094 25.094-25.094h28.955v2.574H83.807c-12.438 0-22.52 10.083-22.52 22.521h-2.574zm54.049 214.91H83.807c-13.859 0-25.094-11.235-25.094-25.094h2.574c0 12.438 10.083 22.521 22.521 22.521h28.955v2.573zm-28.955 0c-13.859 0-25.094-11.235-25.094-25.094V78.807c0-13.859 11.235-25.094 25.094-25.094v2.574c-12.438 0-22.52 10.083-22.52 22.521v189.816c0 12.438 10.083 22.521 22.521 22.521v2.573zM112.762 55v237.43V55z" fill="#9b9b9b" mask="url(#A)" class="G"/><rect x="74.96" y="122.079" width="24.396" height="22.199" rx="6.274" fill-opacity=".15" stroke="#37a6f7" stroke-width=".322" class="C"/><path d="M82.212 128.552c.057-.257.286-.441.55-.441h7.882c.264 0 .492.184.55.441l1.126 5.067a.56.56 0 0 1 .013.122v3.942c0 .31-.252.563-.563.563H81.635c-.311 0-.563-.253-.563-.563v-3.942a.56.56 0 0 1 .013-.122l1.126-5.067zm1.001.685l-.876 3.941h2.676a1.69 1.69 0 0 0 1.689 1.689 1.69 1.69 0 0 0 1.689-1.689h2.676l-.876-3.941h-6.979zm6.07 5.067c-.434.995-1.426 1.69-2.581 1.69s-2.146-.695-2.581-1.69h-1.923v2.816h9.008v-2.816h-1.923z" class="C"/><path d="M80.27 168.246c0-2.708 2.195-4.903 4.903-4.903s4.902 2.195 4.902 4.903h-1.226a3.68 3.68 0 0 0-3.677-3.677 3.68 3.68 0 0 0-3.677 3.677H80.27zm4.903-5.515c-2.031 0-3.677-1.646-3.677-3.677s1.645-3.677 3.677-3.677 3.677 1.645 3.677 3.677-1.645 3.677-3.677 3.677zm0-1.226a2.45 2.45 0 1 0 0-4.902 2.45 2.45 0 1 0 0 4.902zm5.076 2.269c1.704.768 2.89 2.481 2.89 4.472h-1.226c0-1.493-.89-2.778-2.168-3.354l.503-1.118zm-.421-6.918a3.37 3.37 0 0 1-.978 6.474v-1.234c1.04-.148 1.838-1.042 1.838-2.123 0-.846-.489-1.577-1.201-1.926l.34-1.191z" class="B G"/><path d="M84.818 193.395s4.548-.129 6.778 1.446l.634-.109c.35-.06.585-.393.525-.743l-.661-3.845c.523-.234.842-.801.74-1.392s-.591-1.018-1.162-1.064l-.661-3.845c-.06-.35-.393-.585-.743-.525l-.634.109c-1.575 2.23-5.905 3.627-5.905 3.627l-2.537.436a1.29 1.29 0 0 0-1.05 1.487l.654 3.804a1.29 1.29 0 0 0 1.486 1.051l.634-.109 1.179 3.061 1.268-.218-.545-3.171zm.359-5.506l1.48-.657c1.01-.496 2.278-1.222 3.257-2.172l1.401 8.149c-1.24-.569-2.677-.83-3.796-.96l-1.614-.125-.728-4.235zm-3.768.87l2.537-.437.654 3.805-2.537.436-.654-3.804z" class="B G"/><path d="M86.704 213.471a7.24 7.24 0 0 1 7.239 7.238 7.24 7.24 0 0 1-7.239 7.239 7.24 7.24 0 0 1-7.239-7.239 7.24 7.24 0 0 1 7.239-7.238zm0 1.447c-3.198 0-5.791 2.593-5.791 5.791a5.79 5.79 0 1 0 11.582 0c0-3.198-2.593-5.791-5.791-5.791zm-2.3 8.211l-.572.993c-.163.286-.528.382-.814.218s-.382-.528-.219-.814l.426-.735c.479-.149.87-.035 1.179.338zm3.176-4.836l1.754 3.035h1.55c.33 0 .595.266.595.596s-.266.595-.595.595h-.861l.581 1.007c.163.286.067.648-.219.814s-.648.068-.814-.218l-2.201-3.812c-.499-.861-.143-1.725.21-2.017zm.201-2.204c.286.163.382.528.219.814l-2.554 4.422h1.848c.598 0 .934.704.674 1.191h-5.415c-.33 0-.596-.265-.596-.595s.266-.596.596-.596h1.518l1.944-3.368-.607-1.054c-.163-.286-.067-.648.219-.814s.648-.067.814.219l.26.458.266-.458c.163-.286.528-.383.814-.219z" class="B G"/><path stroke="#9b9b9b" stroke-width=".643" d="M113.085 98.756v167.938"/><path d="M86.385 72.908a9.12 9.12 0 0 1 9.115 9.115 9.12 9.12 0 0 1-9.115 9.115 9.12 9.12 0 0 1-9.116-9.115 9.12 9.12 0 0 1 9.116-9.115zm-5.448 12.23c1.338 1.997 3.347 3.267 5.594 3.267s4.256-1.27 5.594-3.267c-1.465-1.367-3.432-2.203-5.594-2.203s-4.128.836-5.594 2.203zm5.448-4.026c1.51 0 2.735-1.224 2.735-2.735s-1.224-2.735-2.735-2.735-2.735 1.224-2.735 2.735 1.224 2.735 2.735 2.735z" fill="#707070"/></g><circle cx="436.32" cy="185.352" r="22.89" stroke="#969696" class="J"/><circle cx="136.429" cy="358.771" r="23.337" stroke="#b2b2b2" stroke-width=".657"/><path d="M141.548 361.979l.154.156.155-.156c.771-.77 2.019-.77 2.789 0a1.97 1.97 0 0 1 0 2.789l-2.943 2.944-2.944-2.944a1.97 1.97 0 0 1 0-2.789c.77-.77 2.018-.77 2.789 0zm-5.12-1.454v7.012h-7.012c0-3.799 3.022-6.893 6.794-7.008l.218-.004zm0-11.394a5.26 5.26 0 0 1 5.259 5.259 5.26 5.26 0 0 1-5.259 5.259 5.26 5.26 0 0 1-5.259-5.259 5.26 5.26 0 0 1 5.259-5.259z" fill-opacity=".6" class="B"/><g clip-path="url(#C)" class="D"><path d="M432.092 189.892l10.931-1.599-1.348-9.213-12.284 1.797 1.504 10.277 1.197-1.262zm.756 1.458l-3.027 3.187-2.078-14.203c-.062-.424.232-.818.656-.88l13.819-2.022c.424-.062.818.232.88.656l1.573 10.748c.062.424-.232.818-.656.88l-11.167 1.634zm2.928-4.349l1.536-.225.224 1.535-1.535.225-.225-1.535zm-2.45-3.709c.065-1.268 1.016-2.355 2.319-2.546a2.72 2.72 0 0 1 3.081 2.294 2.72 2.72 0 0 1-2.294 3.081l-.768.112-.225-1.536.768-.112c.636-.093 1.076-.684.983-1.32s-.684-1.076-1.32-.983c-.559.082-.966.548-.994 1.091l-1.55-.081z" fill-opacity=".89"/></g><defs><filter id="B" x=".803" y="-1.623" width="444.618" height="355.823" filterUnits="userSpaceOnUse" color-interpolation-filters="sRGB"><feFlood flood-opacity="0"/><feGaussianBlur stdDeviation="7.371"/><feComposite in2="SourceAlpha" operator="in" result="B"/><feColorMatrix in="SourceAlpha" values="0 0 0 0 0 0 0 0 0 0 0 0 0 0 0 0 0 0 127 0" result="C"/><feOffset dy="2.57377"/><feGaussianBlur stdDeviation="29.598"/><feComposite in2="C" operator="out"/><feColorMatrix values="0 0 0 0 1 0 0 0 0 1 0 0 0 0 1 0 0 0 0.13 0"/><feBlend in2="B"/><feBlend in="SourceGraphic"/></filter><clipPath id="C"><path transform="matrix(.989466 -.144767 .144767 .989466 425.758 177.486)" d="M0 0h18.622v18.622H0z" class="B"/></clipPath></defs></svg>