<svg xmlns="http://www.w3.org/2000/svg" width="448" height="411" fill="none" xmlns:v="https://vecta.io/nano"><g filter="url(#A)"><rect x="41.152" y="77.94" width="250.464" height="196.929" rx="34.415" fill="#101010"/><rect x="42.108" y="78.896" width="248.552" height="195.017" rx="33.459" stroke="#484848" stroke-width="1.912"/></g><g fill="#101010" stroke="#484848" stroke-width="1.912"><rect x="334.634" y="86.543" width="105.156" height="139.571" rx="25.811"/><rect x="120.497" y="317.888" width="326.941" height="91.773" rx="33.459"/></g><g fill="#1a1a1a"><rect x="56.445" y="141.034" width="217.961" height="110.892" rx="21.031"/><rect x="203.666" y="330.315" width="227.52" height="66.918" rx="21.031"/><rect x="345.146" y="141.034" width="86.037" height="65.006" rx="13.384"/></g><path d="M103.857 107.413v11.471h-1.508v-8.554l-3.813 8.554h-1.061l-3.829-8.57v8.57h-1.508v-11.471h1.625l4.244 9.482 4.243-9.482h1.608zm10.847 6.581a8.91 8.91 0 0 1-.05.911h-7.26c.055.896.359 1.597.911 2.106.564.497 1.243.746 2.039.746.652 0 1.194-.15 1.625-.448a2.44 2.44 0 0 0 .928-1.227h1.624c-.243.873-.729 1.586-1.458 2.139-.73.541-1.636.812-2.719.812-.862 0-1.635-.193-2.321-.58a4.14 4.14 0 0 1-1.591-1.641c-.387-.719-.58-1.547-.58-2.487s.188-1.762.564-2.47.9-1.248 1.574-1.624c.685-.387 1.47-.58 2.354-.58.862 0 1.625.188 2.288.563a3.83 3.83 0 0 1 1.525 1.558c.364.652.547 1.393.547 2.222zm-1.558-.315c0-.575-.128-1.067-.382-1.476a2.4 2.4 0 0 0-1.044-.944c-.431-.221-.912-.332-1.442-.332-.763 0-1.415.243-1.956.729-.531.487-.835 1.161-.912 2.023h5.736zm6.765 5.354c-.696 0-1.321-.116-1.873-.348-.553-.243-.989-.575-1.31-.995-.32-.431-.497-.922-.53-1.475h1.558c.044.453.254.823.63 1.111.386.287.889.431 1.508.431.575 0 1.028-.127 1.359-.382s.498-.574.498-.961a.93.93 0 0 0-.531-.879c-.353-.199-.9-.392-1.641-.58-.674-.177-1.226-.353-1.657-.53-.42-.188-.785-.459-1.095-.813-.298-.364-.447-.839-.447-1.425a2.15 2.15 0 0 1 .414-1.277c.277-.386.669-.69 1.177-.911.509-.232 1.089-.348 1.741-.348 1.005 0 1.818.254 2.437.762s.95 1.205.994 2.089h-1.508c-.033-.475-.227-.857-.581-1.144-.342-.287-.806-.431-1.392-.431-.541 0-.972.116-1.293.348s-.481.536-.481.912c0 .298.094.547.282.746.199.188.442.342.73.464.298.11.707.238 1.226.381.652.177 1.183.354 1.592.531a2.64 2.64 0 0 1 1.044.762c.298.343.453.79.464 1.343a2.3 2.3 0 0 1-.414 1.343c-.277.397-.669.712-1.177.944-.498.221-1.072.332-1.724.332zm8.66 0c-.696 0-1.32-.116-1.873-.348-.552-.243-.989-.575-1.309-.995a2.68 2.68 0 0 1-.531-1.475h1.558c.045.453.255.823.63 1.111.387.287.89.431 1.509.431.574 0 1.027-.127 1.359-.382s.497-.574.497-.961a.93.93 0 0 0-.53-.879c-.354-.199-.901-.392-1.641-.58-.674-.177-1.227-.353-1.658-.53a3.14 3.14 0 0 1-1.094-.813c-.298-.364-.448-.839-.448-1.425 0-.464.139-.89.415-1.277s.668-.69 1.177-.911c.508-.232 1.088-.348 1.74-.348 1.006 0 1.818.254 2.437.762s.95 1.205.995 2.089h-1.509c-.033-.475-.226-.857-.58-1.144-.343-.287-.807-.431-1.392-.431-.542 0-.973.116-1.293.348s-.481.536-.481.912c0 .298.094.547.282.746.199.188.442.342.729.464a15.77 15.77 0 0 0 1.227.381c.652.177 1.182.354 1.591.531a2.63 2.63 0 0 1 1.044.762c.299.343.454.79.465 1.343 0 .497-.139.945-.415 1.343s-.668.712-1.177.944c-.497.221-1.072.332-1.724.332zm4.881-4.724c0-.929.188-1.741.564-2.437.376-.707.89-1.254 1.542-1.641.663-.387 1.398-.58 2.204-.58.796 0 1.487.171 2.072.514s1.023.773 1.31 1.293V109.8h1.525v9.084h-1.525v-1.691c-.298.53-.746.972-1.343 1.326-.585.343-1.271.514-2.055.514-.807 0-1.536-.199-2.188-.597a4.19 4.19 0 0 1-1.542-1.674c-.376-.718-.564-1.536-.564-2.453zm7.692.016c0-.685-.138-1.282-.415-1.79s-.652-.895-1.127-1.16a2.95 2.95 0 0 0-1.541-.415c-.564 0-1.078.133-1.542.398s-.834.652-1.111 1.16-.414 1.106-.414 1.791c0 .696.138 1.304.414 1.823.277.508.647.901 1.111 1.177.464.265.978.398 1.542.398a3.05 3.05 0 0 0 1.541-.398c.475-.276.851-.669 1.127-1.177.277-.519.415-1.122.415-1.807zm7.82-4.674c.785 0 1.47.171 2.056.514.597.342 1.039.773 1.326 1.293V109.8h1.525v9.283c0 .829-.177 1.563-.53 2.204a3.75 3.75 0 0 1-1.525 1.525c-.652.365-1.415.547-2.288.547-1.194 0-2.188-.281-2.984-.845s-1.265-1.332-1.409-2.304h1.492c.166.552.508.994 1.028 1.326.519.343 1.144.514 1.873.514.829 0 1.503-.26 2.022-.779.531-.52.796-1.249.796-2.188v-1.907c-.298.531-.74.973-1.326 1.327s-1.271.53-2.056.53a4.2 4.2 0 0 1-2.204-.597 4.19 4.19 0 0 1-1.542-1.674c-.376-.718-.564-1.536-.564-2.453 0-.929.188-1.741.564-2.437.376-.707.89-1.254 1.542-1.641.663-.387 1.398-.58 2.204-.58zm3.382 4.674c0-.685-.138-1.282-.414-1.79s-.652-.895-1.128-1.16a2.95 2.95 0 0 0-1.541-.415c-.564 0-1.078.133-1.542.398s-.834.652-1.11 1.16-.415 1.106-.415 1.791c0 .696.138 1.304.415 1.823.276.508.646.901 1.11 1.177.464.265.978.398 1.542.398a3.05 3.05 0 0 0 1.541-.398c.476-.276.851-.669 1.128-1.177.276-.519.414-1.122.414-1.807zm12.362-.331c0 .287-.016.591-.049.911h-7.261c.055.896.359 1.597.912 2.106.563.497 1.243.746 2.039.746.652 0 1.193-.15 1.624-.448a2.44 2.44 0 0 0 .929-1.227h1.624c-.243.873-.729 1.586-1.459 2.139-.729.541-1.635.812-2.718.812-.862 0-1.636-.193-2.321-.58a4.14 4.14 0 0 1-1.591-1.641c-.387-.719-.58-1.547-.58-2.487s.187-1.762.563-2.47.901-1.248 1.575-1.624c.685-.387 1.47-.58 2.354-.58.862 0 1.624.188 2.287.563a3.83 3.83 0 0 1 1.525 1.558c.365.652.547 1.393.547 2.222zm-1.558-.315c0-.575-.127-1.067-.381-1.476a2.4 2.4 0 0 0-1.044-.944c-.431-.221-.912-.332-1.443-.332-.762 0-1.414.243-1.956.729-.53.487-.834 1.161-.911 2.023h5.735zm15.08-6.349v1.227h-3.149v10.327h-1.509v-10.327h-3.166v-1.227h7.824zm10.145 6.664c0 .287-.016.591-.049.911h-7.261c.055.896.359 1.597.912 2.106.563.497 1.243.746 2.039.746.652 0 1.193-.15 1.624-.448a2.43 2.43 0 0 0 .928-1.227h1.625c-.243.873-.729 1.586-1.459 2.139-.729.541-1.635.812-2.718.812-.862 0-1.636-.193-2.321-.58-.674-.387-1.205-.934-1.591-1.641-.387-.719-.581-1.547-.581-2.487s.188-1.762.564-2.47.901-1.248 1.575-1.624c.685-.387 1.47-.58 2.354-.58.862 0 1.624.188 2.287.563a3.83 3.83 0 0 1 1.525 1.558c.365.652.547 1.393.547 2.222zm-1.558-.315c0-.575-.127-1.067-.381-1.476a2.4 2.4 0 0 0-1.045-.944c-.431-.221-.911-.332-1.442-.332-.762 0-1.414.243-1.956.729-.53.487-.834 1.161-.911 2.023h5.735zm14.473-4.045c.708 0 1.337.149 1.89.448.553.287.989.724 1.31 1.309s.48 1.299.48 2.139v5.354h-1.492v-5.139c0-.906-.226-1.597-.679-2.072-.442-.486-1.045-.729-1.807-.729-.785 0-1.409.254-1.873.762-.464.497-.696 1.221-.696 2.172v5.006h-1.492v-5.139c0-.906-.227-1.597-.68-2.072-.442-.486-1.044-.729-1.807-.729-.784 0-1.409.254-1.873.762-.464.497-.696 1.221-.696 2.172v5.006h-1.509V109.8h1.509v1.309a3 3 0 0 1 1.193-1.094c.509-.254 1.067-.381 1.675-.381.762 0 1.436.171 2.022.514s1.022.845 1.309 1.508a2.98 2.98 0 0 1 1.26-1.491 3.71 3.71 0 0 1 1.956-.531zm7.663 1.84c.299-.519.741-.95 1.326-1.293.597-.353 1.288-.53 2.072-.53.807 0 1.536.193 2.188.58.663.387 1.183.934 1.559 1.641.375.696.563 1.508.563 2.437 0 .917-.188 1.735-.563 2.453s-.896 1.276-1.559 1.674c-.652.398-1.381.597-2.188.597-.773 0-1.458-.171-2.055-.514-.586-.354-1.033-.79-1.343-1.309v5.984h-1.508V109.8h1.508v1.674zm6.167 2.835c0-.685-.139-1.282-.415-1.791s-.652-.895-1.127-1.16c-.464-.265-.978-.398-1.542-.398-.552 0-1.066.138-1.541.415-.464.265-.84.657-1.127 1.177-.277.508-.415 1.099-.415 1.773 0 .685.138 1.288.415 1.807.287.508.663.901 1.127 1.177.475.265.989.398 1.541.398.564 0 1.078-.133 1.542-.398.475-.276.851-.669 1.127-1.177.276-.519.415-1.127.415-1.823zm5.035-7.692v12.267h-1.508v-12.267h1.508zm2.008 7.692c0-.929.187-1.741.563-2.437.376-.707.89-1.254 1.542-1.641.663-.387 1.398-.58 2.204-.58.796 0 1.487.171 2.072.514s1.023.773 1.31 1.293V109.8h1.525v9.084h-1.525v-1.691c-.298.53-.746.972-1.343 1.326-.585.343-1.271.514-2.055.514-.807 0-1.536-.199-2.188-.597a4.19 4.19 0 0 1-1.542-1.674c-.376-.718-.563-1.536-.563-2.453zm7.691.016c0-.685-.138-1.282-.414-1.79s-.652-.895-1.128-1.16a2.95 2.95 0 0 0-1.541-.415c-.564 0-1.078.133-1.542.398s-.834.652-1.11 1.16-.415 1.106-.415 1.791c0 .696.138 1.304.415 1.823.276.508.646.901 1.11 1.177.464.265.978.398 1.542.398a3.05 3.05 0 0 0 1.541-.398c.476-.276.851-.669 1.128-1.177.276-.519.414-1.122.414-1.807zm5.914-3.282v5.354c0 .442.094.757.282.945.188.177.514.265.978.265h1.111v1.277h-1.36c-.84 0-1.469-.194-1.889-.58s-.63-1.023-.63-1.907v-5.354h-1.177V109.8h1.177v-2.288h1.508v2.288h2.371v1.243h-2.371zm12.487 2.951a8.91 8.91 0 0 1-.05.911h-7.261c.056.896.359 1.597.912 2.106.564.497 1.243.746 2.039.746.652 0 1.193-.15 1.624-.448a2.44 2.44 0 0 0 .929-1.227h1.624c-.243.873-.729 1.586-1.459 2.139-.729.541-1.635.812-2.718.812-.862 0-1.636-.193-2.321-.58a4.14 4.14 0 0 1-1.591-1.641c-.387-.719-.58-1.547-.58-2.487s.188-1.762.563-2.47a3.91 3.91 0 0 1 1.575-1.624c.685-.387 1.47-.58 2.354-.58.862 0 1.624.188 2.287.563s1.172.895 1.526 1.558c.364.652.547 1.393.547 2.222zm-1.559-.315c0-.575-.127-1.067-.381-1.476a2.4 2.4 0 0 0-1.044-.944c-.431-.221-.912-.332-1.442-.332-.763 0-1.415.243-1.956.729-.531.487-.835 1.161-.912 2.023h5.735zm-92.271 230.255c-.32-.674-.784-1.193-1.392-1.558-.608-.376-1.315-.564-2.122-.564s-1.536.188-2.188.564c-.641.365-1.149.895-1.525 1.591-.365.686-.547 1.481-.547 2.387s.182 1.702.547 2.387c.376.686.884 1.216 1.525 1.592.652.364 1.381.547 2.188.547 1.127 0 2.056-.337 2.785-1.011s1.155-1.586 1.276-2.735h-4.608v-1.227h6.216v1.16c-.088.951-.387 1.824-.895 2.619a5.62 5.62 0 0 1-2.006 1.873c-.829.454-1.751.68-2.768.68-1.072 0-2.05-.249-2.934-.746-.884-.508-1.586-1.21-2.105-2.105-.509-.895-.763-1.906-.763-3.034s.254-2.138.763-3.033a5.5 5.5 0 0 1 2.105-2.105c.884-.509 1.862-.763 2.934-.763 1.227 0 2.31.304 3.249.912.95.608 1.641 1.464 2.072 2.569h-1.807zm5.658.597a2.91 2.91 0 0 1 1.127-1.21c.498-.287 1.1-.431 1.807-.431v1.558h-.398c-1.69 0-2.536.917-2.536 2.752v4.94h-1.508v-9.084h1.508v1.475zm8.637 7.758c-.851 0-1.624-.194-2.32-.58-.686-.387-1.227-.934-1.625-1.641-.387-.719-.58-1.548-.58-2.487 0-.928.199-1.746.597-2.453.409-.719.961-1.266 1.657-1.641.697-.387 1.476-.58 2.338-.58s1.641.193 2.337.58a4.07 4.07 0 0 1 1.641 1.624c.409.707.613 1.531.613 2.47s-.21 1.768-.63 2.487a4.27 4.27 0 0 1-1.674 1.641c-.707.386-1.492.58-2.354.58zm0-1.326c.542 0 1.05-.127 1.525-.382a2.84 2.84 0 0 0 1.144-1.143c.298-.509.448-1.128.448-1.857s-.144-1.348-.431-1.856-.663-.885-1.128-1.128a3.09 3.09 0 0 0-1.508-.381c-.553 0-1.061.127-1.525.381-.453.243-.818.619-1.094 1.128s-.414 1.127-.414 1.856c0 .741.132 1.365.397 1.873.277.509.641.89 1.094 1.144.453.243.951.365 1.492.365zm14.698-7.907v9.084h-1.509v-1.343c-.287.464-.69.829-1.21 1.094-.508.254-1.072.381-1.691.381-.707 0-1.342-.143-1.906-.431a3.3 3.3 0 0 1-1.343-1.326c-.32-.586-.48-1.298-.48-2.138v-5.321h1.492v5.122c0 .895.226 1.586.679 2.072.453.475 1.072.713 1.857.713.807 0 1.442-.249 1.906-.746s.696-1.221.696-2.172v-4.989h1.509zm4.055 1.674c.299-.519.741-.95 1.326-1.293.597-.354 1.288-.53 2.072-.53.807 0 1.536.193 2.188.58.664.387 1.183.934 1.559 1.641.375.696.563 1.508.563 2.437 0 .917-.188 1.735-.563 2.453a4.14 4.14 0 0 1-1.559 1.674c-.652.398-1.381.597-2.188.597-.773 0-1.458-.171-2.055-.514-.586-.354-1.033-.79-1.343-1.31v5.985h-1.508v-13.394h1.508v1.674zm6.167 2.835c0-.686-.138-1.282-.415-1.791s-.652-.895-1.127-1.16c-.464-.265-.978-.398-1.542-.398-.552 0-1.066.138-1.541.414-.464.266-.84.658-1.127 1.177-.277.509-.415 1.1-.415 1.774 0 .685.138 1.288.415 1.807.287.508.663.901 1.127 1.177.475.265.989.398 1.541.398.564 0 1.078-.133 1.542-.398.475-.276.851-.669 1.127-1.177.277-.519.415-1.127.415-1.823zm-38.817 21.949l-.63 2.984h2.288v1.326h-2.57l-.712 3.316h-1.443l.713-3.316h-3.481l-.713 3.316h-1.442l.713-3.316h-2.602v-1.326h2.884l.63-2.984h-2.57v-1.326h2.852l.712-3.315h1.442l-.712 3.315h3.481l.713-3.315h1.442l-.713 3.315h2.304v1.326h-2.586zm-1.442 0H149.9l-.63 2.984h3.481l.63-2.984zm8.153 1.393c-.619-.243-1.094-.597-1.426-1.061s-.497-1.028-.497-1.691c0-.597.149-1.133.448-1.608.298-.486.74-.867 1.326-1.144.597-.287 1.315-.43 2.155-.43s1.552.143 2.138.43c.597.277 1.044.658 1.343 1.144.309.475.464 1.011.464 1.608 0 .641-.171 1.205-.514 1.691-.343.475-.812.829-1.409 1.061.685.21 1.227.58 1.625 1.111.408.519.613 1.149.613 1.889 0 .719-.177 1.348-.531 1.89-.353.53-.856.945-1.508 1.243-.641.288-1.381.431-2.221.431s-1.581-.143-2.222-.431c-.629-.298-1.121-.713-1.475-1.243-.353-.542-.53-1.171-.53-1.89 0-.74.199-1.376.596-1.906s.94-.895 1.625-1.094zm4.492-2.569c0-.675-.221-1.194-.663-1.559s-1.05-.547-1.823-.547c-.763 0-1.365.183-1.807.547s-.663.89-.663 1.575a1.84 1.84 0 0 0 .679 1.492c.465.376 1.061.564 1.791.564.74 0 1.337-.188 1.79-.564a1.87 1.87 0 0 0 .696-1.508zm-2.486 3.232c-.818 0-1.487.193-2.006.58-.519.376-.779.945-.779 1.708 0 .707.249 1.276.746 1.707.508.431 1.188.646 2.039.646s1.525-.215 2.022-.646.746-1 .746-1.707c0-.741-.254-1.305-.763-1.691-.508-.398-1.176-.597-2.005-.597zm8.203 2.354c.11.63.364 1.116.762 1.459.409.342.956.513 1.641.513.918 0 1.592-.359 2.023-1.077.442-.718.652-1.928.63-3.63-.232.497-.619.889-1.161 1.177a3.92 3.92 0 0 1-1.807.414c-.74 0-1.403-.149-1.989-.448a3.38 3.38 0 0 1-1.359-1.342c-.332-.586-.497-1.293-.497-2.122 0-1.182.342-2.133 1.027-2.851.686-.73 1.658-1.094 2.918-1.094 1.547 0 2.63.503 3.249 1.508.63 1.006.945 2.503.945 4.492 0 1.393-.127 2.542-.382 3.448-.243.907-.663 1.597-1.259 2.072-.586.476-1.393.713-2.421.713-1.127 0-2.005-.304-2.635-.911s-.989-1.382-1.078-2.321h1.393zm2.337-2.42c.74 0 1.348-.227 1.823-.68.476-.464.713-1.089.713-1.873 0-.829-.232-1.498-.696-2.006s-1.116-.762-1.956-.762c-.774 0-1.392.243-1.857.729-.453.486-.679 1.127-.679 1.923 0 .807.226 1.453.679 1.939s1.111.73 1.973.73zm180.341-250.708l-2.752-4.724h-1.824v4.724h-1.508v-11.554h3.73c.873 0 1.608.149 2.204.448.608.298 1.061.701 1.36 1.21s.447 1.088.447 1.74a3.37 3.37 0 0 1-.696 2.105c-.453.608-1.138 1.012-2.056 1.211l2.901 4.84h-1.806zm-4.576-5.934h2.222c.817 0 1.431-.199 1.84-.597.409-.409.613-.951.613-1.625 0-.685-.204-1.215-.613-1.591-.398-.376-1.012-.564-1.84-.564h-2.222v4.377zm16.633-3.15v9.084h-1.508v-1.343c-.288.464-.691.829-1.21 1.094-.509.254-1.072.382-1.691.382-.707 0-1.343-.144-1.906-.431-.564-.299-1.012-.741-1.343-1.327-.321-.585-.481-1.298-.481-2.138v-5.321h1.492v5.122c0 .895.227 1.586.68 2.072.453.475 1.072.713 1.856.713.807 0 1.442-.249 1.907-.746s.696-1.221.696-2.171v-4.99h1.508zm6.973-.166c1.105 0 2 .337 2.685 1.011.686.663 1.028 1.625 1.028 2.885v5.354h-1.492v-5.139c0-.906-.226-1.597-.679-2.072-.453-.486-1.072-.729-1.857-.729-.796 0-1.431.248-1.906.746-.464.497-.696 1.221-.696 2.171v5.023h-1.509v-9.084h1.509v1.293a3.01 3.01 0 0 1 1.21-1.078 3.83 3.83 0 0 1 1.707-.381zm18.653.166v9.084h-1.509v-1.343c-.287.464-.69.829-1.21 1.094-.508.254-1.072.382-1.691.382-.707 0-1.342-.144-1.906-.431a3.31 3.31 0 0 1-1.343-1.327c-.32-.585-.48-1.298-.48-2.138v-5.321h1.492v5.122c0 .895.226 1.586.679 2.072.453.475 1.072.713 1.857.713.807 0 1.442-.249 1.906-.746s.696-1.221.696-2.171v-4.99h1.509zm6.973-.166c1.105 0 2 .337 2.685 1.011.685.663 1.028 1.625 1.028 2.885v5.354h-1.492v-5.139c0-.906-.227-1.597-.68-2.072-.453-.486-1.072-.729-1.856-.729-.796 0-1.431.248-1.907.746-.464.497-.696 1.221-.696 2.171v5.023h-1.508v-9.084h1.508v1.293a3.02 3.02 0 0 1 1.21-1.078c.52-.254 1.089-.381 1.708-.381zm8.017 1.409v5.354c0 .442.094.757.282.945.188.177.514.266.978.266h1.11v1.276h-1.359c-.84 0-1.47-.193-1.89-.58s-.63-1.022-.63-1.907v-5.354h-1.177v-1.243h1.177v-2.288h1.509v2.288h2.37v1.243h-2.37zm4.977-2.718a.99.99 0 1 1 0-2.056.92.92 0 0 1 .696.299.99.99 0 0 1 .299.729.99.99 0 0 1-.299.729.92.92 0 0 1-.696.299zm.729 1.475v9.084h-1.508v-9.084h1.508zm4.08-3.183v12.267h-1.509v-12.267h1.509zm4.079 0v12.267h-1.508v-12.267h1.508z" fill="#fff"/><path d="M379.253 271.11h-1.46a3.05 3.05 0 0 0-.453-1.106c-.212-.318-.471-.585-.777-.801s-.638-.385-1.007-.495-.754-.164-1.154-.164c-.73 0-1.391.184-1.984.553s-1.057.912-1.406 1.631-.518 1.599-.518 2.643.172 1.925.518 2.643.818 1.261 1.406 1.63 1.254.554 1.984.554a4.02 4.02 0 0 0 1.154-.165c.369-.11.704-.273 1.007-.489s.565-.488.777-.806.366-.691.453-1.107h1.46a4.85 4.85 0 0 1-.601 1.654c-.29.487-.651.901-1.083 1.242a4.72 4.72 0 0 1-1.454.771 5.41 5.41 0 0 1-1.713.265c-1.028 0-1.942-.251-2.743-.753s-1.43-1.217-1.89-2.143-.688-2.025-.688-3.296.229-2.371.688-3.297 1.089-1.64 1.89-2.143 1.715-.753 2.743-.753a5.41 5.41 0 0 1 1.713.265 4.65 4.65 0 0 1 1.454.777c.432.337.793.749 1.083 1.236s.491 1.034.601 1.654zm5.844 8.477c-.817 0-1.533-.194-2.149-.583s-1.091-.932-1.436-1.631-.513-1.514-.513-2.448c0-.942.171-1.764.513-2.467s.824-1.248 1.436-1.636 1.332-.583 2.149-.583 1.53.194 2.142.583 1.095.934 1.437 1.636.518 1.525.518 2.467c0 .934-.173 1.75-.518 2.448s-.821 1.243-1.437 1.631-1.326.583-2.142.583zm0-1.248c.62 0 1.13-.159 1.53-.477s.697-.736.889-1.254.288-1.079.288-1.683-.096-1.168-.288-1.69a2.84 2.84 0 0 0-.889-1.265c-.4-.322-.91-.483-1.53-.483s-1.131.161-1.531.483a2.84 2.84 0 0 0-.889 1.265c-.192.522-.288 1.085-.288 1.69s.096 1.165.288 1.683.489.936.889 1.254.91.477 1.531.477zm9.631 1.248c-.753 0-1.418-.191-1.995-.571-.577-.385-1.028-.926-1.354-1.625s-.489-1.532-.489-2.49c0-.95.163-1.774.489-2.472s.779-1.238 1.36-1.619 1.252-.571 2.013-.571c.589 0 1.054.098 1.395.294s.608.412.789.66l.43.6h.117v-4.45h1.389v12.055h-1.342v-1.389h-.164c-.102.165-.248.373-.436.624s-.457.469-.807.665-.814.289-1.395.289zm.189-1.248c.557 0 1.028-.145 1.413-.436s.676-.7.877-1.218.3-1.125.3-1.807c0-.675-.098-1.266-.295-1.772s-.486-.907-.871-1.189-.859-.43-1.424-.43c-.589 0-1.079.151-1.472.453-.388.298-.681.705-.877 1.219s-.288 1.083-.288 1.719c0 .643.098 1.228.294 1.754s.494.938.883 1.248.879.459 1.46.459zm6.693 1.059v-9.041h1.389v9.041h-1.389zm.706-10.548c-.271 0-.504-.092-.7-.277s-.289-.406-.289-.665.096-.481.289-.665.429-.277.7-.277.502.092.695.277a.88.88 0 0 1 .294.665.88.88 0 0 1-.294.665c-.193.185-.424.277-.695.277zm4.617 5.109v5.439h-1.39v-9.041h1.343v1.412h.117c.212-.459.534-.828.966-1.106.431-.283.989-.424 1.671-.424.613 0 1.148.126 1.607.377s.817.624 1.072 1.13.382 1.138.382 1.907v5.745h-1.389v-5.651c0-.71-.184-1.263-.553-1.66s-.875-.6-1.519-.6c-.443 0-.84.096-1.189.288a2.07 2.07 0 0 0-.818.842c-.2.369-.3.816-.3 1.342zm11.957 9.018c-.671 0-1.248-.086-1.731-.259s-.885-.392-1.207-.671-.571-.569-.759-.883l1.107-.777c.125.165.284.354.476.565s.456.403.789.56c.338.161.779.241 1.325.241.73 0 1.332-.177 1.807-.53s.712-.906.712-1.66v-1.836h-.118a7.63 7.63 0 0 1-.435.612c-.185.239-.452.453-.801.641s-.812.277-1.401.277c-.73 0-1.385-.173-1.966-.518s-1.034-.848-1.371-1.507-.501-1.46-.501-2.402c0-.926.163-1.732.489-2.419s.779-1.224 1.36-1.601 1.251-.571 2.013-.571c.588 0 1.055.098 1.401.294s.616.412.8.66l.436.6h.141v-1.436h1.342v9.3c0 .777-.176 1.409-.529 1.896s-.821.85-1.413 1.077c-.589.232-1.244.347-1.966.347zm-.047-4.968c.557 0 1.028-.127 1.412-.382s.677-.622.877-1.101.301-1.052.301-1.719c0-.652-.098-1.226-.295-1.725s-.486-.889-.871-1.171-.859-.424-1.424-.424c-.589 0-1.08.149-1.472.447s-.681.699-.877 1.201-.289 1.06-.289 1.672c0 .628.099 1.183.295 1.666s.494.855.883 1.13.879.406 1.46.406z" fill="#ff6363"/><path d="M135.968 162.066h-57.71c-3.599 0-6.516 2.568-6.516 5.736s2.917 5.736 6.516 5.736h57.71c3.599 0 6.516-2.568 6.516-5.736s-2.917-5.736-6.516-5.736z" fill="#484848"/><path d="M70.591 107.931h-5.953c-1.644 0-2.976 1.313-2.976 2.933v5.867c0 1.621 1.333 2.934 2.976 2.934h5.953c1.644 0 2.976-1.313 2.976-2.934v-5.867c0-1.62-1.333-2.933-2.976-2.933z" fill="#a2cead"/><path d="M70.607 102.796h-5.997c-4.509 0-8.164 3.603-8.164 8.047v5.911c0 4.444 3.655 8.047 8.164 8.047h5.997c4.509 0 8.164-3.603 8.164-8.047v-5.911c0-4.444-3.655-8.047-8.164-8.047z" stroke="#3a523e" stroke-width="1.473"/><g fill="#484848"><rect x="71.742" y="181.185" width="175.898" height="9.56" rx="4.78"/><rect x="220.873" y="358.994" width="175.898" height="9.56" rx="4.78"/><rect x="71.742" y="196.48" width="175.898" height="9.56" rx="4.78"/><rect x="220.873" y="374.29" width="175.898" height="9.56" rx="4.78"/><rect x="71.742" y="211.775" width="175.898" height="9.56" rx="4.78"/><rect x="184.545" y="227.071" width="63.094" height="9.56" rx="4.78"/><rect x="366.182" y="150.593" width="49.71" height="9.56" rx="4.78"/></g><g fill="#37a6f7"><rect x="366.182" y="165.889" width="51.622" height="9.56" rx="4.78" fill-opacity=".3"/><rect x="220.873" y="341.788" width="51.622" height="9.56" rx="4.78" fill-opacity=".3"/></g><rect x="275.364" y="15.802" width="139.571" height="34.415" rx="8.604" fill="#101010" stroke="#484848" stroke-width="1.912"/><path d="M296.955 24.406h-4.69c-3.526 0-6.384 2.817-6.384 6.293v4.622c0 3.475 2.858 6.293 6.384 6.293h4.69c3.526 0 6.384-2.817 6.384-6.293v-4.622c0-3.475-2.858-6.292-6.384-6.292z" fill="#37a6f7" fill-opacity=".2" stroke="#37a6f7" stroke-width="1.152"/><path d="M319.498 38.699c-.762 0-1.447-.133-2.055-.398-.597-.276-1.067-.652-1.409-1.127a2.93 2.93 0 0 1-.531-1.674h1.608c.056.541.277 1 .663 1.376.398.365.973.547 1.724.547.719 0 1.282-.177 1.691-.53a1.76 1.76 0 0 0 .63-1.392c0-.442-.121-.801-.365-1.078a2.33 2.33 0 0 0-.911-.63c-.365-.144-.857-.298-1.476-.464-.762-.199-1.375-.398-1.84-.597-.453-.199-.845-.508-1.177-.928-.32-.431-.48-1.006-.48-1.724 0-.63.16-1.188.48-1.674s.769-.862 1.343-1.127c.586-.265 1.254-.398 2.006-.398 1.083 0 1.967.271 2.652.812.696.541 1.089 1.26 1.177 2.155h-1.658c-.055-.442-.287-.829-.696-1.16-.409-.343-.95-.514-1.624-.514-.63 0-1.144.166-1.542.497-.398.32-.597.773-.597 1.359 0 .42.116.763.348 1.028a2.48 2.48 0 0 0 .879.613c.354.133.845.287 1.475.464.763.21 1.376.42 1.84.63.464.199.862.514 1.194.945.331.42.497.995.497 1.724 0 .564-.149 1.094-.447 1.591s-.741.901-1.327 1.21-1.276.464-2.072.464zm7.906-7.957v5.354c0 .442.094.757.282.945.188.177.514.265.978.265h1.11v1.276h-1.359c-.84 0-1.47-.193-1.89-.58s-.63-1.022-.63-1.906v-5.354h-1.176v-1.243h1.176v-2.288h1.509v2.288h2.37v1.243h-2.37zm3.634 3.266c0-.928.188-1.74.564-2.437.376-.707.89-1.254 1.542-1.641.663-.387 1.398-.58 2.204-.58.796 0 1.487.171 2.072.514s1.023.773 1.31 1.293v-1.658h1.525v9.084h-1.525v-1.691c-.298.53-.746.972-1.343 1.326-.585.343-1.271.514-2.055.514-.807 0-1.536-.199-2.188-.597s-1.166-.956-1.542-1.674-.564-1.536-.564-2.453zm7.692.017c0-.685-.138-1.282-.414-1.79s-.652-.895-1.128-1.16c-.464-.276-.978-.414-1.541-.414s-1.078.133-1.542.398-.834.652-1.111 1.16-.414 1.105-.414 1.79c0 .696.138 1.304.414 1.823a3.01 3.01 0 0 0 1.111 1.177 3.05 3.05 0 0 0 1.542.398 3.05 3.05 0 0 0 1.541-.398c.476-.276.851-.669 1.128-1.177.276-.519.414-1.122.414-1.807zm5.583-3.05a2.91 2.91 0 0 1 1.127-1.21c.497-.287 1.099-.431 1.807-.431v1.558h-.398c-1.691 0-2.536.917-2.536 2.752v4.94h-1.509v-9.084h1.509v1.475zm6.515-.232v5.354c0 .442.094.757.282.945.188.177.514.265.978.265h1.11v1.276h-1.359c-.84 0-1.47-.193-1.89-.58s-.63-1.022-.63-1.906v-5.354h-1.176v-1.243h1.176v-2.288h1.509v2.288h2.37v1.243h-2.37z" fill="#fff"/><circle cx="274.405" cy="33.965" r="4.015" fill="#d9d9d9" fill-opacity=".29" stroke="#37a6f7" stroke-width=".382"/><path d="M173.586 70.917l5.359-9.651-11.037.184 5.678 9.466zm-.546-32.715l-.956.016.956-.016zm1.358 24.097l-.402-24.113-1.912.032.402 24.113 1.912-.032zm4.46-28.972l91.708 1.595.033-1.912-91.708-1.595-.033 1.912zm-4.862 4.859a4.78 4.78 0 0 1 4.862-4.859l.033-1.912c-3.784-.066-6.87 3.018-6.807 6.802l1.912-.032z" fill="#fff" fill-opacity=".5"/><path d="M156.822 301.637l5.52-9.56h-11.039l5.519 9.56zm-.956-19.119v10.515h1.912v-10.515h-1.912zm166.339-157.736l-9.559-5.519v11.039l9.559-5.52zm-19.119.956h10.516v-1.912h-10.516v1.912z" fill="gray"/><path d="M355.664 155.02v2.415l-1.912.805v-3.22l-2.867-3.622v-.805h7.647v.805l-2.868 3.622zm-3.63-3.622l2.674 3.378 2.675-3.378h-5.349z" fill="#484848"/><g filter="url(#B)"><path d="M282.029 271.335a1.34 1.34 0 0 0-1.169 1.848l2.919 7.062a1.34 1.34 0 0 1-.779 1.769l-2.105.766a1.34 1.34 0 0 1-1.695-.746l-3.025-7.319a1.34 1.34 0 0 0-2.045-.556l-3.016 2.281a1.34 1.34 0 0 1-2.139-1.2l1.863-18.636a1.34 1.34 0 0 1 2.266-.825l13.407 13.078a1.34 1.34 0 0 1-.867 2.295l-3.615.183z" fill="#9d9d9d"/></g><g stroke-width=".574"><rect x="327.653" y="253.551" width="107.642" height="36.9" rx="11.758" fill="#ff6e6e" fill-opacity=".23" stroke="#ff6363"/><rect x=".713" y="301.35" width="107.642" height="61.756" rx="11.758" fill="#27ae60" fill-opacity=".23" stroke="#03aa82"/></g><g stroke-width=".191"><rect x="333.582" y="259.48" width="25.046" height="25.046" rx="7.743" fill="#ff6e6e" fill-opacity=".23" stroke="#ff6363"/><rect x="9.506" y="317.582" width="25.046" height="25.046" rx="7.743" fill="#03aa82" fill-opacity=".2" stroke="#03aa82"/></g><path d="M345.054 272.262l-3.323-3.435 1.134-1.098 3.324 3.436 3.404-3.294 1.108 1.145-3.404 3.294 3.323 3.435-1.135 1.098-3.323-3.436-3.405 3.294-1.108-1.145 3.405-3.294z" fill="#ff6363"/><path d="M49.846 312.818c1.26 0 2.348.238 3.266.713a4.84 4.84 0 0 1 2.122 2.006c.497.873.746 1.901.746 3.083s-.249 2.21-.746 3.083c-.486.862-1.194 1.525-2.122 1.989-.917.454-2.006.68-3.266.68h-3.597v-11.554h3.597zm0 10.311c1.492 0 2.63-.392 3.415-1.177.785-.796 1.177-1.906 1.177-3.332 0-1.437-.398-2.558-1.194-3.365-.785-.807-1.917-1.21-3.398-1.21h-2.089v9.084h2.089zm9.632-6.366c.265-.519.641-.922 1.127-1.21.497-.287 1.1-.431 1.807-.431v1.559h-.398c-1.691 0-2.536.917-2.536 2.751v4.94h-1.509v-9.084h1.509v1.475zm4.112 3.034c0-.928.188-1.741.564-2.437.376-.707.89-1.254 1.542-1.641.663-.387 1.398-.58 2.205-.58.796 0 1.486.171 2.072.514s1.022.773 1.31 1.293v-1.658h1.525v9.084h-1.525v-1.691c-.298.531-.746.973-1.343 1.326-.586.343-1.271.514-2.055.514-.807 0-1.536-.199-2.188-.596a4.18 4.18 0 0 1-1.542-1.675c-.376-.719-.564-1.536-.564-2.453zm7.691.017c0-.686-.138-1.282-.414-1.791s-.652-.895-1.127-1.16a2.96 2.96 0 0 0-1.542-.414c-.564 0-1.078.132-1.542.397s-.834.652-1.111 1.161-.414 1.105-.414 1.79c0 .696.138 1.304.414 1.823.276.509.647.901 1.111 1.177.464.266.978.398 1.542.398s1.078-.132 1.542-.398a2.96 2.96 0 0 0 1.127-1.177c.276-.519.414-1.121.414-1.806zm7.82-4.675c.785 0 1.47.171 2.056.514.597.342 1.039.773 1.326 1.293v-1.658h1.525v9.283c0 .829-.177 1.564-.53 2.205-.354.652-.862 1.16-1.525 1.525-.652.364-1.415.547-2.288.547-1.194 0-2.188-.282-2.984-.846a3.3 3.3 0 0 1-1.409-2.304h1.492c.166.553.508.995 1.028 1.326.519.343 1.144.514 1.873.514.829 0 1.503-.26 2.022-.779.53-.519.796-1.249.796-2.188v-1.906c-.298.53-.74.972-1.326 1.326s-1.271.53-2.056.53a4.21 4.21 0 0 1-2.205-.596c-.652-.398-1.166-.956-1.542-1.675s-.564-1.536-.564-2.453c0-.928.188-1.741.564-2.437.376-.707.89-1.254 1.542-1.641.663-.387 1.398-.58 2.205-.58zm3.382 4.675c0-.686-.138-1.282-.414-1.791s-.652-.895-1.127-1.16a2.96 2.96 0 0 0-1.542-.414c-.564 0-1.078.132-1.542.397s-.834.652-1.111 1.161-.415 1.105-.415 1.79c0 .696.138 1.304.415 1.823a2.99 2.99 0 0 0 1.111 1.177c.464.266.978.398 1.542.398s1.078-.132 1.542-.398a2.96 2.96 0 0 0 1.127-1.177c.276-.519.414-1.121.414-1.806zm-27.365 26.558l-1.508-1.525c-.564.586-1.166 1.022-1.807 1.31-.641.276-1.365.414-2.172.414-.796 0-1.503-.144-2.122-.431a3.36 3.36 0 0 1-1.426-1.227c-.331-.53-.497-1.149-.497-1.856 0-.807.227-1.514.68-2.122.464-.619 1.144-1.105 2.039-1.459-.354-.42-.608-.806-.762-1.16s-.232-.741-.232-1.16a2.41 2.41 0 0 1 .365-1.31 2.53 2.53 0 0 1 1.078-.928c.465-.221 1-.332 1.608-.332.597 0 1.116.116 1.558.348s.774.558.995.978c.221.409.321.868.298 1.376h-1.508c.011-.453-.116-.807-.381-1.061-.265-.265-.608-.398-1.028-.398-.442 0-.801.128-1.078.382-.265.243-.398.558-.398.945a1.91 1.91 0 0 0 .265.961c.188.309.497.691.928 1.144l3.448 3.464.298-.464 1.127-1.89h1.625l-1.359 2.354c-.188.332-.409.68-.663 1.045l2.602 2.602h-1.973zm-5.487-1.094c.597 0 1.133-.116 1.608-.348.486-.232.945-.591 1.376-1.078l-3.398-3.414c-1.415.541-2.122 1.398-2.122 2.569 0 .652.232 1.194.696 1.625.475.431 1.088.646 1.84.646zm16.889-10.46c1.26 0 2.348.238 3.266.713a4.84 4.84 0 0 1 2.122 2.006c.497.873.746 1.901.746 3.083s-.249 2.21-.746 3.083c-.486.862-1.194 1.525-2.122 1.989-.917.454-2.006.68-3.266.68h-3.597v-11.554h3.597zm0 10.311c1.492 0 2.63-.392 3.415-1.177.785-.796 1.177-1.906 1.177-3.332 0-1.437-.398-2.558-1.194-3.365-.785-.807-1.917-1.21-3.398-1.21h-2.089v9.084h2.089zm9.631-6.366c.265-.519.641-.922 1.127-1.21.497-.287 1.1-.431 1.807-.431v1.559h-.398c-1.691 0-2.536.917-2.536 2.751v4.94h-1.508v-9.084h1.508v1.475zm8.637 7.758c-.851 0-1.625-.193-2.321-.58a4.22 4.22 0 0 1-1.624-1.641c-.387-.718-.58-1.547-.58-2.486 0-.929.199-1.747.597-2.454.409-.718.961-1.265 1.658-1.641.696-.387 1.475-.58 2.337-.58s1.641.193 2.337.58a4.07 4.07 0 0 1 1.641 1.625c.409.707.613 1.53.613 2.47s-.21 1.768-.63 2.486a4.27 4.27 0 0 1-1.674 1.641c-.707.387-1.492.58-2.354.58zm0-1.326c.541 0 1.05-.127 1.525-.381s.856-.636 1.144-1.144c.298-.508.448-1.127.448-1.856s-.144-1.349-.431-1.857-.663-.884-1.127-1.127a3.09 3.09 0 0 0-1.508-.381c-.553 0-1.061.127-1.525.381-.453.243-.818.619-1.094 1.127s-.414 1.127-.414 1.857c0 .74.133 1.364.398 1.873.276.508.641.889 1.094 1.143.453.244.95.365 1.492.365zm8.15-6.233c.298-.519.74-.95 1.326-1.293.597-.353 1.287-.53 2.072-.53.807 0 1.536.193 2.188.58.663.387 1.183.934 1.559 1.641.375.696.563 1.509.563 2.437 0 .917-.188 1.735-.563 2.453s-.895 1.277-1.559 1.675c-.652.397-1.381.596-2.188.596-.773 0-1.459-.171-2.055-.514-.586-.353-1.033-.79-1.343-1.309v5.984H91.43v-13.394h1.508v1.674zm6.166 2.835c0-.685-.138-1.282-.414-1.79a2.86 2.86 0 0 0-1.127-1.161c-.464-.265-.978-.397-1.542-.397-.553 0-1.067.138-1.542.414-.464.265-.84.657-1.127 1.177-.276.508-.414 1.099-.414 1.774 0 .685.138 1.287.414 1.806.287.509.663.901 1.127 1.177.475.266.989.398 1.542.398.564 0 1.077-.132 1.542-.398a2.96 2.96 0 0 0 1.127-1.177c.276-.519.414-1.127.414-1.823zm-77.341-9.779l1.237 1.35 7.418-8.093 1.239 1.352-8.658 9.445-5.577-6.084 1.239-1.352 1.862 2.031 1.238 1.351zm.002-2.703l4.34-4.735 1.236 1.348-4.34 4.735-1.236-1.348zm-2.477 5.406l-1.238 1.351-5.577-6.084 1.239-1.352 1.238 1.351-.001.001 4.339 4.733z" fill="#03aa82"/><defs><filter id="A" x="4.826" y="41.614" width="323.116" height="269.583" filterUnits="userSpaceOnUse" color-interpolation-filters="sRGB"><feFlood flood-opacity="0" result="A"/><feColorMatrix in="SourceAlpha" values="0 0 0 0 0 0 0 0 0 0 0 0 0 0 0 0 0 0 127 0" result="B"/><feOffset/><feGaussianBlur stdDeviation="18.163"/><feComposite in2="B" operator="out"/><feColorMatrix values="0 0 0 0 1 0 0 0 0 1 0 0 0 0 1 0 0 0 0.25 0"/><feBlend in2="A"/><feBlend in="SourceGraphic"/></filter><filter id="B" x="232.64" y="219.07" width="90.605" height="100.118" filterUnits="userSpaceOnUse" color-interpolation-filters="sRGB"><feFlood flood-opacity="0" result="A"/><feColorMatrix in="SourceAlpha" values="0 0 0 0 0 0 0 0 0 0 0 0 0 0 0 0 0 0 127 0" result="B"/><feOffset/><feGaussianBlur stdDeviation="18.163"/><feComposite in2="B" operator="out"/><feColorMatrix values="0 0 0 0 1 0 0 0 0 1 0 0 0 0 1 0 0 0 0.25 0"/><feBlend in2="A"/><feBlend in="SourceGraphic"/></filter></defs></svg>