<svg xmlns="http://www.w3.org/2000/svg" width="691" height="553" fill="none" xmlns:v="https://vecta.io/nano"><style><![CDATA[.B{fill:#fff}.C{fill:#37a6f7}.D{stroke:#37a6f7}.E{fill-opacity:.3}]]></style><g filter="url(#B)"><path d="M171 88h391c20.435 0 37 16.565 37 37v295c0 20.435-16.565 37-37 37H171V88z" fill="#171717" fill-opacity=".48"/><path d="M172 89h390c19.882 0 36 16.118 36 36v295c0 19.882-16.118 36-36 36H172V89z" stroke="#9b9b9b" stroke-opacity=".3" stroke-width="2"/><rect x="176" y="120.472" width="3.78" height="19.67" rx=".614" class="C"/><rect x="188.23" y="120.472" width="3.15" height="6.627" rx=".614" class="B"/><rect x="188.232" y="128.728" width="3.15" height="11.413" rx=".614" class="B"/><rect x="181.305" y="131.884" width="3.156" height="10.079" rx=".614" transform="rotate(270 181.305 131.884)" class="B"/><path d="M198.738 140.218c-1.134 0-2.166-.262-3.096-.785-.916-.523-1.643-1.228-2.181-2.115s-.807-1.883-.807-2.988.255-2.1.763-2.987a5.9 5.9 0 0 1 2.116-2.115c.886-.524 1.875-.785 2.965-.785s2.057.269 2.9.807 1.505 1.264 1.985 2.18c.494.916.741 1.955.741 3.118v.785h-8.417c.131.451.342.858.632 1.222a3.2 3.2 0 0 0 1.113.85c.45.204.93.305 1.439.305s.974-.08 1.395-.24c.436-.159.807-.385 1.112-.676l1.963 1.789c-.698.567-1.417.981-2.159 1.243-.727.261-1.548.392-2.464.392zm-3.075-7.022h5.517c-.101-.45-.29-.843-.567-1.177-.261-.349-.581-.618-.959-.807a2.46 2.46 0 0 0-1.221-.305 2.79 2.79 0 0 0-1.265.283c-.378.189-.698.458-.959.807a3.37 3.37 0 0 0-.546 1.199zM208.812 140h-2.928v-15.939h2.928V140zm7.944 0c-.703 0-1.363-.131-1.981-.394-.617-.27-1.161-.635-1.629-1.097-.461-.468-.827-1.011-1.097-1.629-.262-.617-.394-1.277-.394-1.98v-3.386h-1.416v-2.896h1.416v-4.557h2.896v4.557h4.409v2.896h-4.409v3.386a2.19 2.19 0 0 0 .171.862 2.2 2.2 0 0 0 .468.692 2.33 2.33 0 0 0 .703.48 2.21 2.21 0 0 0 .863.17h2.204V140h-2.204zm14.885 0h-.703l-1.129-1.565c-.276.248-.571.483-.883.703a6.96 6.96 0 0 1-.969.564 6.29 6.29 0 0 1-1.054.373 4.31 4.31 0 0 1-1.086.138c-.803 0-1.559-.135-2.268-.405-.703-.269-1.321-.66-1.853-1.171-.525-.518-.941-1.15-1.246-1.895s-.458-1.594-.458-2.545c0-.887.153-1.7.458-2.438.305-.746.721-1.384 1.246-1.917a5.65 5.65 0 0 1 1.853-1.235c.709-.298 1.465-.447 2.268-.447a4.43 4.43 0 0 1 1.096.138c.362.093.714.22 1.054.384a6.29 6.29 0 0 1 .969.575 7.61 7.61 0 0 1 .873.713l1.129-1.352h.703V140zm-2.928-5.803a2.91 2.91 0 0 0-.235-1.15c-.149-.376-.354-.706-.617-.99a2.97 2.97 0 0 0-.926-.692 2.42 2.42 0 0 0-1.118-.266c-.398 0-.774.067-1.129.202-.348.135-.653.334-.916.596-.255.263-.458.589-.607.98-.149.383-.223.823-.223 1.32s.074.941.223 1.331c.149.383.352.706.607.969a2.62 2.62 0 0 0 .916.596 3.15 3.15 0 0 0 1.129.203c.397 0 .77-.086 1.118-.256.354-.177.663-.408.926-.692.263-.291.468-.621.617-.99a2.99 2.99 0 0 0 .235-1.161zm8.06 5.803h-2.907v-11.404h.703l.958 1.353a5 5 0 0 1 1.597-.98 5.03 5.03 0 0 1 1.853-.351h2.566v2.896h-2.566c-.305 0-.593.057-.863.17s-.504.27-.702.469-.355.433-.469.703-.17.557-.17.862V140z" class="B"/><path d="M255.417 135.422a4.41 4.41 0 0 1-.362 1.778c-.242.553-.572 1.04-.991 1.458-.411.412-.894.739-1.448.98s-1.146.362-1.778.362h-7.634v-15.269h7.634c.632 0 1.225.121 1.778.362s1.037.572 1.448.991c.419.411.749.894.991 1.448s.362 1.146.362 1.778a3.44 3.44 0 0 1-.117.873 4.33 4.33 0 0 1-.33.862 3.71 3.71 0 0 1-.512.756c-.198.228-.418.416-.66.565a2.35 2.35 0 0 1 .671.553 3.76 3.76 0 0 1 .511.756 3.79 3.79 0 0 1 .32.873c.078.299.117.59.117.874zm-9.157 1.522h4.578a1.52 1.52 0 0 0 .597-.117 1.51 1.51 0 0 0 .479-.319c.142-.142.252-.306.33-.49s.117-.383.117-.596a1.52 1.52 0 0 0-.117-.597c-.078-.184-.188-.344-.33-.479-.135-.142-.295-.252-.479-.33a1.52 1.52 0 0 0-.597-.117h-4.578v3.045zm0-6.101h4.578a1.52 1.52 0 0 0 .597-.117 1.51 1.51 0 0 0 .479-.319c.142-.142.252-.306.33-.49.078-.192.117-.394.117-.607s-.039-.412-.117-.596a1.41 1.41 0 0 0-.33-.48 1.43 1.43 0 0 0-.479-.33 1.52 1.52 0 0 0-.597-.117h-4.578v3.056zm22.179 3.354c0 .852-.153 1.647-.458 2.385a6.03 6.03 0 0 1-1.246 1.906c-.525.532-1.143.955-1.853 1.267a5.63 5.63 0 0 1-2.268.458c-.802 0-1.558-.153-2.267-.458a6.09 6.09 0 0 1-1.853-1.267 6.03 6.03 0 0 1-1.246-1.906c-.305-.738-.458-1.533-.458-2.385 0-.866.153-1.668.458-2.406s.721-1.374 1.246-1.906c.532-.54 1.15-.962 1.853-1.267.709-.305 1.465-.458 2.267-.458.81 0 1.566.145 2.268.436a5.38 5.38 0 0 1 1.853 1.225 5.73 5.73 0 0 1 1.246 1.906c.305.738.458 1.562.458 2.47zm-2.928 0a3.28 3.28 0 0 0-.235-1.267c-.149-.383-.355-.71-.617-.98a2.6 2.6 0 0 0-.927-.628c-.347-.149-.72-.223-1.118-.223s-.773.074-1.128.223a2.62 2.62 0 0 0-.916.628c-.255.27-.458.597-.607.98-.149.376-.223.799-.223 1.267a3.3 3.3 0 0 0 .223 1.225c.149.376.352.702.607.979.263.277.568.497.916.66.355.156.731.235 1.128.235s.771-.075 1.118-.224c.355-.149.664-.359.927-.628s.468-.597.617-.98a3.33 3.33 0 0 0 .235-1.267zM275.679 140c-.703 0-1.363-.131-1.98-.394a5.35 5.35 0 0 1-1.63-1.097c-.461-.468-.827-1.011-1.096-1.629-.263-.617-.394-1.277-.394-1.98v-3.386h-1.416v-2.896h1.416v-4.557h2.896v4.557h4.408v2.896h-4.408v3.386c0 .305.057.593.17.862a2.2 2.2 0 0 0 .469.692 2.33 2.33 0 0 0 .703.48c.269.113.557.17.862.17h2.204V140h-2.204zm22.456-1.565a7.78 7.78 0 0 1-2.385 1.405 7.8 7.8 0 0 1-2.737.49c-.724 0-1.423-.096-2.097-.287-.668-.185-1.296-.448-1.885-.788-.582-.348-1.114-.763-1.597-1.246s-.898-1.015-1.246-1.597a8.32 8.32 0 0 1-.798-1.885c-.185-.674-.277-1.373-.277-2.097s.092-1.424.277-2.098a8.06 8.06 0 0 1 .798-1.885c.348-.589.763-1.125 1.246-1.607s1.015-.895 1.597-1.235c.589-.348 1.217-.614 1.885-.799.674-.192 1.373-.288 2.097-.288.944 0 1.856.164 2.737.49a7.51 7.51 0 0 1 2.385 1.406l-1.619 2.662c-.447-.483-.976-.852-1.586-1.108-.611-.262-1.25-.394-1.917-.394-.674 0-1.306.128-1.895.384s-1.104.603-1.544 1.043c-.44.433-.788.948-1.043 1.544-.256.589-.384 1.217-.384 1.885s.128 1.295.384 1.884c.255.582.603 1.093 1.043 1.533s.955.788 1.544 1.044a4.72 4.72 0 0 0 1.895.383 4.93 4.93 0 0 0 1.917-.383c.61-.263 1.139-.635 1.586-1.118l1.619 2.662zM310.241 140h-.703l-1.129-1.565c-.276.248-.571.483-.883.703-.305.213-.628.401-.969.564a6.29 6.29 0 0 1-1.054.373 4.31 4.31 0 0 1-1.086.138c-.802 0-1.558-.135-2.268-.405-.703-.269-1.321-.66-1.853-1.171-.525-.518-.94-1.15-1.246-1.895s-.458-1.594-.458-2.545c0-.887.153-1.7.458-2.438.306-.746.721-1.384 1.246-1.917a5.65 5.65 0 0 1 1.853-1.235 5.8 5.8 0 0 1 2.268-.447 4.43 4.43 0 0 1 1.096.138c.362.093.714.22 1.054.384a6.29 6.29 0 0 1 .969.575 7.61 7.61 0 0 1 .873.713l1.129-1.352h.703V140zm-2.928-5.803c0-.397-.078-.781-.234-1.15-.15-.376-.355-.706-.618-.99a2.96 2.96 0 0 0-.926-.692 2.42 2.42 0 0 0-1.118-.266c-.398 0-.774.067-1.129.202-.348.135-.653.334-.916.596-.255.263-.458.589-.607.98-.149.383-.223.823-.223 1.32s.074.941.223 1.331c.149.383.352.706.607.969a2.62 2.62 0 0 0 .916.596 3.15 3.15 0 0 0 1.129.203c.397 0 .77-.086 1.118-.256a3.19 3.19 0 0 0 .926-.692c.263-.291.468-.621.618-.99.156-.377.234-.763.234-1.161zM326.968 140h-2.896v-7.24a1.39 1.39 0 0 0-.117-.565c-.071-.177-.174-.333-.309-.468s-.291-.238-.468-.309a1.39 1.39 0 0 0-.565-.117c-.198 0-.387.039-.564.117-.17.071-.323.174-.458.309a1.63 1.63 0 0 0-.309.468 1.51 1.51 0 0 0-.106.565V140h-2.907v-7.24a1.39 1.39 0 0 0-.117-.565c-.071-.177-.174-.333-.309-.468s-.291-.238-.468-.309a1.39 1.39 0 0 0-.565-.117 1.39 1.39 0 0 0-.564.117c-.17.071-.323.174-.458.309a1.65 1.65 0 0 0-.309.468 1.51 1.51 0 0 0-.106.565V140h-2.907v-11.404h.703l.788.874a4.58 4.58 0 0 1 1.331-.788c.49-.192.997-.288 1.522-.288.533 0 1.051.1 1.555.298.511.199.958.543 1.342 1.033.177-.241.379-.447.606-.617s.465-.309.714-.416c.255-.106.518-.181.788-.223a4.37 4.37 0 0 1 .798-.075 4.22 4.22 0 0 1 1.693.341 4.24 4.24 0 0 1 1.384.937 4.25 4.25 0 0 1 .937 1.384 4.28 4.28 0 0 1 .341 1.704V140zm5.058 4.344h-2.928v-15.748h.702l1.161 1.374a7.84 7.84 0 0 1 .862-.703 6.42 6.42 0 0 1 .969-.564c.341-.163.692-.291 1.054-.383s.728-.139 1.097-.139c.802 0 1.555.146 2.257.437a5.44 5.44 0 0 1 1.853 1.214c.532.525.951 1.16 1.256 1.906.306.738.458 1.558.458 2.459 0 .937-.152 1.782-.458 2.534-.305.746-.724 1.381-1.256 1.906-.525.518-1.143.916-1.853 1.193-.702.276-1.455.415-2.257.415-.255 0-.511-.029-.767-.085-.248-.057-.496-.132-.745-.224l-.724-.33-.681-.373v5.111zm5.824-10.147c0-.483-.078-.916-.234-1.299a2.77 2.77 0 0 0-.618-.969 2.65 2.65 0 0 0-.926-.617 3.01 3.01 0 0 0-1.129-.213c-.397 0-.774.071-1.129.213a2.67 2.67 0 0 0-.915.617c-.263.263-.472.586-.628.969a3.56 3.56 0 0 0-.224 1.299 3.47 3.47 0 0 0 .224 1.267c.156.383.365.71.628.98a2.82 2.82 0 0 0 .915.628 2.89 2.89 0 0 0 1.129.224c.398 0 .774-.075 1.129-.224s.663-.359.926-.628.469-.597.618-.98a3.33 3.33 0 0 0 .234-1.267zM353.427 140h-.702l-1.129-1.565a9.74 9.74 0 0 1-.884.703c-.305.213-.628.401-.969.564a6.29 6.29 0 0 1-1.054.373 4.31 4.31 0 0 1-1.086.138c-.802 0-1.558-.135-2.268-.405-.703-.269-1.32-.66-1.853-1.171-.525-.518-.94-1.15-1.245-1.895s-.458-1.594-.458-2.545c0-.887.152-1.7.458-2.438a5.85 5.85 0 0 1 1.245-1.917 5.66 5.66 0 0 1 1.853-1.235 5.8 5.8 0 0 1 2.268-.447 4.44 4.44 0 0 1 1.097.138 5.69 5.69 0 0 1 1.054.384 6.29 6.29 0 0 1 .969.575c.312.22.603.457.873.713l1.129-1.352h.702V140zm-2.928-5.803c0-.397-.078-.781-.234-1.15a3.15 3.15 0 0 0-.618-.99 2.95 2.95 0 0 0-.926-.692c-.348-.178-.72-.266-1.118-.266a3.15 3.15 0 0 0-1.129.202 2.63 2.63 0 0 0-.915.596c-.256.263-.458.589-.607.98-.149.383-.224.823-.224 1.32s.075.941.224 1.331a2.85 2.85 0 0 0 .607.969c.262.263.568.461.915.596a3.15 3.15 0 0 0 1.129.203 2.51 2.51 0 0 0 1.118-.256c.355-.177.664-.408.926-.692.263-.291.469-.621.618-.99.156-.377.234-.763.234-1.161zm8.582-8.699c0 .27-.053.522-.16.756-.099.234-.237.44-.415.618-.177.17-.387.308-.628.415a1.92 1.92 0 0 1-.756.149c-.27 0-.525-.05-.767-.149-.234-.107-.44-.245-.617-.415a2.21 2.21 0 0 1-.416-.618 1.92 1.92 0 0 1-.149-.756 1.89 1.89 0 0 1 .149-.745 2.01 2.01 0 0 1 .416-.618c.177-.177.383-.316.617-.415.242-.107.497-.16.767-.16s.522.053.756.16a1.9 1.9 0 0 1 .628.415c.178.171.316.376.415.618a1.77 1.77 0 0 1 .16.745zm-.5 14.502h-2.928v-11.404h2.928V140zm10.338-5.803c0-.397-.078-.781-.234-1.15-.149-.376-.355-.706-.617-.99-.263-.291-.572-.522-.927-.692-.348-.178-.72-.266-1.118-.266s-.773.067-1.128.202c-.348.135-.653.334-.916.596-.256.263-.458.589-.607.98-.149.383-.224.823-.224 1.32 0 .476.075.905.224 1.288a2.97 2.97 0 0 0 .607.969 2.81 2.81 0 0 0 .916.629 3.01 3.01 0 0 0 1.128.213 2.51 2.51 0 0 0 1.118-.256c.355-.177.664-.408.927-.692.262-.291.468-.621.617-.99.156-.377.234-.763.234-1.161zm2.928 4.366c0 .802-.152 1.554-.457 2.257s-.724 1.317-1.257 1.842c-.525.525-1.143.94-1.852 1.246-.703.305-1.456.457-2.258.457l-1.458-.021v-2.907l1.437.022c.454 0 .841-.061 1.161-.181a2.31 2.31 0 0 0 .809-.479 2.26 2.26 0 0 0 .522-.693c.134-.262.241-.539.319-.83a1.33 1.33 0 0 1-.49.458c-.213.113-.451.206-.713.277-.256.078-.526.131-.809.159l-.778.043c-.802 0-1.558-.138-2.268-.415-.702-.277-1.32-.671-1.852-1.182-.526-.518-.941-1.15-1.246-1.895s-.458-1.587-.458-2.524c0-.859.153-1.657.458-2.396a5.98 5.98 0 0 1 1.246-1.916c.532-.54 1.15-.962 1.852-1.267.71-.305 1.466-.458 2.268-.458a4.44 4.44 0 0 1 1.097.138 5.69 5.69 0 0 1 1.054.384 6.29 6.29 0 0 1 .969.575c.312.22.603.457.873.713l1.129-1.352h.702v9.945zM376.98 140h-2.907v-11.404h.703l.958 1.108a5.02 5.02 0 0 1 1.586-.98 5.06 5.06 0 0 1 1.864-.351 4.86 4.86 0 0 1 1.969.405c.618.262 1.157.628 1.619 1.096.461.462.823 1.005 1.086 1.629a4.89 4.89 0 0 1 .404 1.981V140h-2.906v-6.516c0-.298-.057-.579-.171-.841-.113-.27-.269-.504-.468-.703s-.43-.355-.692-.469-.543-.17-.841-.17a2.21 2.21 0 0 0-.863.17c-.27.114-.504.27-.703.469s-.354.433-.468.703c-.114.262-.17.543-.17.841V140z" class="C"/><path d="M192.723 188.133c0-1.143.258-2.168.773-3.076.516-.919 1.216-1.636 2.101-2.152a5.87 5.87 0 0 1 2.976-.773c1.277 0 2.392.308 3.345.925s1.647 1.49 2.084 2.622h-1.832c-.325-.706-.796-1.249-1.412-1.631-.605-.381-1.334-.571-2.185-.571-.818 0-1.552.19-2.202.571s-1.16.925-1.53 1.631c-.37.695-.555 1.513-.555 2.454 0 .93.185 1.749.555 2.455.37.694.88 1.232 1.53 1.613s1.384.572 2.202.572c.851 0 1.58-.185 2.185-.555.616-.381 1.087-.924 1.412-1.63h1.832c-.437 1.12-1.132 1.989-2.084 2.605-.953.605-2.068.908-3.345.908a5.96 5.96 0 0 1-2.976-.757c-.885-.515-1.585-1.227-2.101-2.134s-.773-1.934-.773-3.077zm12.985 1.227c0-.941.19-1.765.571-2.471.381-.717.903-1.272 1.564-1.664.672-.392 1.417-.588 2.235-.588.807 0 1.508.174 2.102.521s1.036.784 1.328 1.311v-1.681h1.546V194h-1.546v-1.715c-.303.538-.757.987-1.362 1.345-.594.348-1.289.521-2.084.521a4.17 4.17 0 0 1-2.219-.605 4.24 4.24 0 0 1-1.564-1.698c-.381-.728-.571-1.557-.571-2.488zm7.8.017c0-.695-.14-1.3-.421-1.815s-.661-.908-1.143-1.177c-.47-.28-.991-.42-1.563-.42s-1.093.134-1.563.403-.846.661-1.127 1.177-.42 1.121-.42 1.815c0 .706.14 1.323.42 1.85.281.515.656.913 1.127 1.193.47.269.992.403 1.563.403a3.09 3.09 0 0 0 1.563-.403c.482-.28.863-.678 1.143-1.193.281-.527.421-1.138.421-1.833zm15.209-4.757c.717 0 1.356.151 1.916.454.561.291 1.003.734 1.328 1.328s.488 1.317.488 2.168V194h-1.513v-5.211c0-.919-.23-1.619-.689-2.101-.448-.493-1.059-.74-1.832-.74-.796 0-1.429.258-1.9.773-.471.505-.706 1.239-.706 2.202V194h-1.513v-5.211c0-.919-.23-1.619-.689-2.101-.448-.493-1.059-.74-1.832-.74-.796 0-1.429.258-1.9.773-.471.505-.706 1.239-.706 2.202V194h-1.53v-9.212h1.53v1.328c.303-.482.706-.852 1.21-1.109.516-.258 1.082-.387 1.698-.387.773 0 1.457.174 2.051.521s1.037.857 1.328 1.53c.258-.65.684-1.154 1.278-1.513s1.255-.538 1.983-.538zm7.771 1.866c.303-.527.751-.964 1.345-1.311.605-.359 1.305-.538 2.101-.538.818 0 1.558.196 2.219.588.672.392 1.199.947 1.58 1.664.381.706.572 1.53.572 2.471 0 .931-.191 1.76-.572 2.488s-.908 1.295-1.58 1.698a4.17 4.17 0 0 1-2.219.605c-.784 0-1.479-.173-2.084-.521-.594-.358-1.048-.801-1.362-1.328v6.069h-1.53v-13.583h1.53v1.698zm6.253 2.874c0-.694-.14-1.3-.42-1.815s-.661-.908-1.143-1.177c-.471-.269-.992-.403-1.563-.403a3.06 3.06 0 0 0-1.564.42c-.47.269-.851.667-1.143 1.194-.28.515-.42 1.115-.42 1.798 0 .695.14 1.306.42 1.833.292.515.673.913 1.143 1.193.482.269 1.003.403 1.564.403.571 0 1.092-.134 1.563-.403.482-.28.863-.678 1.143-1.193.28-.527.42-1.144.42-1.85zm3.006 0c0-.941.19-1.765.571-2.471.381-.717.902-1.272 1.563-1.664a4.36 4.36 0 0 1 2.236-.588c.807 0 1.507.174 2.101.521s1.037.784 1.328 1.311v-1.681h1.547V194h-1.547v-1.715c-.302.538-.756.987-1.361 1.345-.594.348-1.289.521-2.085.521-.818 0-1.557-.201-2.219-.605s-1.182-.969-1.563-1.698-.571-1.557-.571-2.488zm7.799.017c0-.695-.14-1.3-.42-1.815s-.661-.908-1.143-1.177a3 3 0 0 0-1.563-.42c-.572 0-1.093.134-1.564.403s-.846.661-1.126 1.177-.42 1.121-.42 1.815c0 .706.14 1.323.42 1.85a3.05 3.05 0 0 0 1.126 1.193c.471.269.992.403 1.564.403s1.092-.134 1.563-.403c.482-.28.863-.678 1.143-1.193.28-.527.42-1.138.42-1.833zm4.922-6.085c-.291 0-.538-.101-.74-.303s-.302-.448-.302-.739a1.01 1.01 0 0 1 .302-.74c.202-.202.449-.302.74-.302a.93.93 0 0 1 .706.302c.202.202.303.448.303.74s-.101.538-.303.739a.93.93 0 0 1-.706.303zm.74 1.496V194h-1.53v-9.212h1.53zm6.406-.151c.796 0 1.49.174 2.084.521.605.347 1.054.784 1.345 1.311v-1.681h1.547v9.414c0 .84-.18 1.585-.538 2.235-.359.662-.874 1.177-1.547 1.547-.661.37-1.434.555-2.32.555-1.21 0-2.219-.286-3.025-.858s-1.284-1.35-1.429-2.336h1.513c.168.56.515 1.008 1.042 1.345.527.347 1.16.521 1.899.521.841 0 1.525-.264 2.051-.79.538-.527.807-1.267.807-2.219v-1.933c-.302.537-.751.986-1.345 1.344s-1.288.538-2.084.538a4.26 4.26 0 0 1-2.236-.605c-.661-.403-1.182-.969-1.563-1.698s-.572-1.557-.572-2.488c0-.941.191-1.765.572-2.471.381-.717.902-1.272 1.563-1.664a4.36 4.36 0 0 1 2.236-.588zm3.429 4.74c0-.695-.14-1.3-.42-1.815s-.661-.908-1.143-1.177c-.471-.28-.992-.42-1.564-.42s-1.092.134-1.563.403a2.92 2.92 0 0 0-1.126 1.177c-.28.515-.42 1.121-.42 1.815 0 .706.14 1.323.42 1.85.28.515.655.913 1.126 1.193.471.269.992.403 1.563.403s1.093-.134 1.564-.403c.482-.28.863-.678 1.143-1.193.28-.527.42-1.138.42-1.833zm8.62-4.757c1.121 0 2.028.342 2.723 1.025.695.673 1.042 1.648 1.042 2.925V194h-1.512v-5.211c0-.919-.23-1.619-.69-2.101-.459-.493-1.087-.74-1.882-.74-.807 0-1.452.252-1.934.756-.47.505-.706 1.239-.706 2.203V194h-1.529v-9.212h1.529v1.311a3.05 3.05 0 0 1 1.228-1.092c.526-.258 1.103-.387 1.731-.387zm15.234 0c1.121 0 2.028.342 2.723 1.025.695.673 1.042 1.648 1.042 2.925V194h-1.512v-5.211c0-.919-.23-1.619-.69-2.101-.459-.493-1.087-.74-1.882-.74-.807 0-1.452.252-1.934.756-.47.505-.706 1.239-.706 2.203V194h-1.529v-9.212h1.529v1.311a3.05 3.05 0 0 1 1.228-1.092c.526-.258 1.103-.387 1.731-.387zm5.693 4.74c0-.941.19-1.765.571-2.471.381-.717.902-1.272 1.564-1.664.672-.392 1.417-.588 2.235-.588.807 0 1.508.174 2.102.521s1.036.784 1.328 1.311v-1.681h1.546V194h-1.546v-1.715c-.303.538-.757.987-1.362 1.345-.594.348-1.289.521-2.084.521-.819 0-1.558-.201-2.219-.605s-1.183-.969-1.564-1.698-.571-1.557-.571-2.488zm7.8.017c0-.695-.141-1.3-.421-1.815s-.661-.908-1.143-1.177c-.47-.28-.992-.42-1.563-.42a3.09 3.09 0 0 0-1.563.403c-.471.269-.847.661-1.127 1.177s-.42 1.121-.42 1.815c0 .706.14 1.323.42 1.85.28.515.656.913 1.127 1.193a3.09 3.09 0 0 0 1.563.403c.571 0 1.093-.134 1.563-.403.482-.28.863-.678 1.143-1.193.28-.527.421-1.138.421-1.833zm15.209-4.757c.717 0 1.356.151 1.916.454.561.291 1.003.734 1.328 1.328s.488 1.317.488 2.168V194h-1.513v-5.211c0-.919-.23-1.619-.689-2.101-.449-.493-1.059-.74-1.833-.74-.795 0-1.429.258-1.899.773-.471.505-.706 1.239-.706 2.202V194h-1.513v-5.211c0-.919-.23-1.619-.689-2.101-.449-.493-1.059-.74-1.833-.74-.795 0-1.428.258-1.899.773-.471.505-.706 1.239-.706 2.202V194h-1.53v-9.212h1.53v1.328c.302-.482.706-.852 1.21-1.109.516-.258 1.082-.387 1.698-.387.773 0 1.457.174 2.051.521s1.036.857 1.328 1.53c.258-.65.683-1.154 1.277-1.513a3.76 3.76 0 0 1 1.984-.538zm14.646 4.421a9.19 9.19 0 0 1-.05.925h-7.363c.056.907.364 1.619.924 2.134.572.505 1.261.757 2.068.757.661 0 1.21-.151 1.647-.454.449-.314.762-.728.942-1.244h1.647c-.246.885-.74 1.608-1.479 2.169-.74.549-1.659.823-2.757.823-.874 0-1.659-.196-2.353-.588a4.19 4.19 0 0 1-1.614-1.664c-.392-.729-.589-1.569-.589-2.522s.191-1.787.572-2.504.913-1.267 1.597-1.648c.695-.392 1.49-.588 2.387-.588.874 0 1.647.19 2.32.571s1.188.908 1.546 1.581c.37.661.555 1.412.555 2.252zm-1.58-.319c0-.583-.129-1.082-.387-1.496a2.43 2.43 0 0 0-1.059-.959c-.437-.224-.924-.336-1.462-.336-.774 0-1.435.247-1.984.74-.538.493-.846 1.177-.924 2.051h5.816z" class="B"/><path d="M196.942 218.283c1.278 0 2.382.241 3.312.723.941.471 1.658 1.149 2.151 2.034.505.886.757 1.928.757 3.127s-.252 2.241-.757 3.127c-.493.874-1.21 1.546-2.151 2.017-.93.459-2.034.689-3.312.689h-3.648v-11.717h3.648zm0 10.456c1.513 0 2.667-.398 3.463-1.193.796-.807 1.194-1.933 1.194-3.379 0-1.457-.404-2.594-1.211-3.412-.795-.819-1.944-1.228-3.446-1.228h-2.118v9.212h2.118zm16.643-3.698c0 .291-.017.6-.051.925h-7.363c.056.907.365 1.619.925 2.134.571.505 1.261.757 2.068.757.661 0 1.21-.151 1.647-.454.448-.314.762-.728.941-1.244h1.648c-.247.885-.74 1.608-1.48 2.169-.739.549-1.658.823-2.756.823-.875 0-1.659-.196-2.354-.588-.683-.392-1.221-.947-1.614-1.664-.392-.729-.588-1.569-.588-2.522s.191-1.787.572-2.504.913-1.267 1.597-1.648c.694-.392 1.49-.588 2.387-.588.874 0 1.647.19 2.319.571s1.188.908 1.547 1.581c.37.661.555 1.412.555 2.252zm-1.581-.319c0-.583-.128-1.082-.386-1.496-.258-.426-.611-.746-1.059-.959a3.16 3.16 0 0 0-1.463-.336c-.773 0-1.434.247-1.983.74-.538.493-.846 1.177-.925 2.051h5.816zm6.861 5.429c-.706 0-1.339-.117-1.9-.353-.56-.246-1.003-.582-1.328-1.008a2.73 2.73 0 0 1-.538-1.496h1.581c.044.459.257.834.638 1.126.393.291.902.437 1.53.437.583 0 1.042-.129 1.378-.387s.505-.582.505-.975c0-.403-.18-.7-.538-.891-.359-.201-.913-.397-1.664-.588-.684-.179-1.244-.359-1.681-.538-.426-.19-.796-.465-1.11-.824-.302-.369-.454-.851-.454-1.445 0-.471.14-.902.421-1.295s.678-.7 1.193-.924c.516-.236 1.104-.353 1.765-.353 1.02 0 1.844.258 2.471.773s.964 1.222 1.009 2.118h-1.53c-.034-.482-.23-.868-.588-1.16-.348-.291-.818-.437-1.412-.437-.549 0-.986.118-1.311.353s-.488.544-.488.925c0 .302.095.554.286.756a2.45 2.45 0 0 0 .739.471 16.48 16.48 0 0 0 1.244.387c.662.179 1.2.358 1.614.537.415.169.768.426 1.059.774.303.347.46.801.471 1.361 0 .505-.14.958-.42 1.362s-.678.723-1.194.958c-.504.224-1.087.336-1.748.336zm4.95-4.774c0-.952.19-1.782.571-2.488.381-.717.908-1.272 1.58-1.664.684-.392 1.463-.588 2.337-.588 1.132 0 2.062.274 2.79.824.74.549 1.228 1.311 1.463 2.286h-1.647c-.157-.561-.465-1.003-.925-1.328-.448-.325-1.009-.488-1.681-.488-.874 0-1.58.303-2.118.908-.538.594-.807 1.44-.807 2.538 0 1.11.269 1.967.807 2.572s1.244.908 2.118.908c.672 0 1.233-.157 1.681-.471s.756-.762.925-1.345h1.647c-.247.942-.74 1.698-1.479 2.27-.74.56-1.665.84-2.774.84-.874 0-1.653-.196-2.337-.588-.672-.392-1.199-.947-1.58-1.664s-.571-1.558-.571-2.522zm12.312-3.093c.269-.527.65-.936 1.143-1.227.504-.291 1.115-.437 1.832-.437v1.58h-.403c-1.715 0-2.572.93-2.572 2.791V230h-1.53v-9.212h1.53v1.496zm5.531-2.992c-.291 0-.538-.101-.74-.303s-.302-.448-.302-.739a1.01 1.01 0 0 1 .302-.74c.202-.202.449-.302.74-.302a.93.93 0 0 1 .706.302c.202.202.303.448.303.74s-.101.538-.303.739a.93.93 0 0 1-.706.303zm.74 1.496V230h-1.53v-9.212h1.53zm4.137 1.698c.302-.527.75-.964 1.344-1.311.605-.359 1.306-.538 2.102-.538.818 0 1.557.196 2.218.588.673.392 1.2.947 1.581 1.664.381.706.571 1.53.571 2.471 0 .931-.19 1.76-.571 2.488s-.908 1.295-1.581 1.698c-.661.404-1.4.605-2.218.605-.785 0-1.48-.173-2.085-.521-.594-.358-1.048-.801-1.361-1.328v6.069h-1.53v-13.583h1.53v1.698zm6.253 2.874c0-.694-.14-1.3-.42-1.815s-.662-.908-1.143-1.177c-.471-.269-.992-.403-1.564-.403a3.06 3.06 0 0 0-1.563.42c-.471.269-.852.667-1.143 1.194-.28.515-.42 1.115-.42 1.798 0 .695.14 1.306.42 1.833.291.515.672.913 1.143 1.193.482.269 1.003.403 1.563.403.572 0 1.093-.134 1.564-.403a3.02 3.02 0 0 0 1.143-1.193c.28-.527.42-1.144.42-1.85zm5.443-3.311v5.429c0 .449.095.768.285.959.191.179.521.269.992.269h1.126V230h-1.378c-.852 0-1.49-.196-1.916-.588s-.639-1.037-.639-1.934v-5.429h-1.194v-1.261h1.194v-2.32h1.53v2.32h2.403v1.261h-2.403zm5.047-2.757c-.291 0-.538-.101-.74-.303s-.302-.448-.302-.739a1.01 1.01 0 0 1 .302-.74c.202-.202.449-.302.74-.302a.93.93 0 0 1 .706.302c.202.202.303.448.303.74s-.101.538-.303.739a.93.93 0 0 1-.706.303zm.74 1.496V230h-1.53v-9.212h1.53zm6.624 9.363c-.863 0-1.647-.196-2.353-.588a4.27 4.27 0 0 1-1.647-1.664c-.393-.729-.589-1.569-.589-2.522 0-.941.202-1.77.605-2.488.415-.728.975-1.283 1.681-1.664.706-.392 1.496-.588 2.371-.588s1.664.196 2.37.588a4.13 4.13 0 0 1 1.664 1.648c.415.717.622 1.552.622 2.504s-.213 1.793-.639 2.522c-.415.717-.98 1.272-1.698 1.664s-1.513.588-2.387.588zm0-1.345a3.23 3.23 0 0 0 1.547-.386c.482-.258.868-.645 1.16-1.16.302-.516.454-1.143.454-1.883s-.146-1.367-.437-1.882-.673-.897-1.144-1.144c-.47-.257-.98-.386-1.529-.386-.561 0-1.076.129-1.547.386-.459.247-.829.628-1.109 1.144s-.421 1.143-.421 1.882c0 .751.135 1.384.404 1.9.28.515.65.902 1.109 1.16.46.246.964.369 1.513.369zm11.223-8.186c1.121 0 2.029.342 2.724 1.025.694.673 1.042 1.648 1.042 2.925V230h-1.513v-5.211c0-.919-.23-1.619-.689-2.101-.46-.493-1.087-.74-1.883-.74-.807 0-1.451.252-1.933.756-.471.505-.706 1.239-.706 2.203V230h-1.53v-9.212h1.53v1.311c.302-.47.712-.835 1.227-1.092.527-.258 1.104-.387 1.731-.387z" class="B"/><path d="M192.723 261.133c0-1.143.258-2.168.773-3.076.516-.919 1.216-1.636 2.101-2.152a5.87 5.87 0 0 1 2.976-.773c1.277 0 2.392.308 3.345.925s1.647 1.49 2.084 2.622h-1.832c-.325-.706-.796-1.249-1.412-1.631-.605-.381-1.334-.571-2.185-.571-.818 0-1.552.19-2.202.571s-1.16.925-1.53 1.631c-.37.695-.555 1.513-.555 2.454 0 .93.185 1.749.555 2.455.37.694.88 1.232 1.53 1.613s1.384.572 2.202.572c.851 0 1.58-.185 2.185-.555.616-.381 1.087-.924 1.412-1.63h1.832c-.437 1.12-1.132 1.989-2.084 2.605-.953.605-2.068.908-3.345.908a5.96 5.96 0 0 1-2.976-.757c-.885-.515-1.585-1.227-2.101-2.134s-.773-1.934-.773-3.077zm17.574 6.018c-.863 0-1.647-.196-2.353-.588a4.28 4.28 0 0 1-1.648-1.664c-.392-.729-.588-1.569-.588-2.522 0-.941.202-1.77.605-2.488.415-.728.975-1.283 1.681-1.664.706-.392 1.496-.588 2.37-.588s1.664.196 2.37.588a4.13 4.13 0 0 1 1.665 1.648c.414.717.622 1.552.622 2.504s-.213 1.793-.639 2.522a4.33 4.33 0 0 1-1.698 1.664c-.717.392-1.513.588-2.387.588zm0-1.345a3.23 3.23 0 0 0 1.547-.386c.481-.258.868-.645 1.159-1.16.303-.516.454-1.143.454-1.883s-.145-1.367-.437-1.882-.672-.897-1.143-1.144a3.14 3.14 0 0 0-1.53-.386c-.56 0-1.075.129-1.546.386-.46.247-.829.628-1.11 1.144s-.42 1.143-.42 1.882c0 .751.135 1.384.404 1.9.28.515.65.902 1.109 1.16.46.246.964.369 1.513.369zm11.223-8.186c1.121 0 2.029.342 2.723 1.025.695.673 1.043 1.648 1.043 2.925V267h-1.513v-5.211c0-.919-.23-1.619-.689-2.101-.46-.493-1.088-.74-1.883-.74-.807 0-1.451.252-1.933.756-.471.505-.706 1.239-.706 2.203V267h-1.53v-9.212h1.53v1.311a3.04 3.04 0 0 1 1.227-1.092 3.88 3.88 0 0 1 1.731-.387zm8.13 1.429v5.429c0 .449.096.768.286.959.191.179.521.269.992.269h1.126V267h-1.378c-.852 0-1.491-.196-1.917-.588s-.638-1.037-.638-1.934v-5.429h-1.194v-1.261h1.194v-2.32h1.529v2.32h2.404v1.261h-2.404zm3.686 3.311c0-.941.191-1.765.572-2.471.381-.717.902-1.272 1.563-1.664.672-.392 1.418-.588 2.236-.588.807 0 1.507.174 2.101.521s1.037.784 1.328 1.311v-1.681h1.546V267h-1.546v-1.715c-.303.538-.757.987-1.362 1.345-.594.348-1.288.521-2.084.521a4.17 4.17 0 0 1-2.219-.605c-.661-.403-1.182-.969-1.563-1.698s-.572-1.557-.572-2.488zm7.8.017c0-.695-.14-1.3-.42-1.815s-.662-.908-1.143-1.177c-.471-.28-.992-.42-1.564-.42s-1.092.134-1.563.403a2.92 2.92 0 0 0-1.126 1.177c-.281.515-.421 1.121-.421 1.815 0 .706.14 1.323.421 1.85.28.515.655.913 1.126 1.193.471.269.992.403 1.563.403s1.093-.134 1.564-.403a3.02 3.02 0 0 0 1.143-1.193c.28-.527.42-1.138.42-1.833zm3.56 0c0-.952.19-1.782.571-2.488a4.12 4.12 0 0 1 1.581-1.664c.683-.392 1.462-.588 2.336-.588 1.132 0 2.062.274 2.791.824.739.549 1.227 1.311 1.462 2.286h-1.647c-.157-.561-.465-1.003-.925-1.328-.448-.325-1.008-.488-1.681-.488-.874 0-1.58.303-2.118.908-.538.594-.807 1.44-.807 2.538 0 1.11.269 1.967.807 2.572s1.244.908 2.118.908c.673 0 1.233-.157 1.681-.471s.757-.762.925-1.345h1.647c-.246.942-.74 1.698-1.479 2.27-.74.56-1.664.84-2.774.84-.874 0-1.653-.196-2.336-.588a4.12 4.12 0 0 1-1.581-1.664c-.381-.717-.571-1.558-.571-2.522zm12.648-3.328v5.429c0 .449.095.768.286.959.19.179.521.269.992.269h1.126V267h-1.378c-.852 0-1.491-.196-1.917-.588s-.639-1.037-.639-1.934v-5.429h-1.193v-1.261h1.193v-2.32h1.53v2.32h2.404v1.261h-2.404zm7.519 8.102c-.706 0-1.34-.117-1.9-.353-.56-.246-1.003-.582-1.328-1.008a2.73 2.73 0 0 1-.538-1.496h1.58a1.56 1.56 0 0 0 .639 1.126c.392.291.902.437 1.53.437.582 0 1.042-.129 1.378-.387s.504-.582.504-.975c0-.403-.179-.7-.537-.891-.359-.201-.914-.397-1.665-.588-.683-.179-1.244-.359-1.681-.538a3.18 3.18 0 0 1-1.109-.824c-.303-.369-.454-.851-.454-1.445a2.18 2.18 0 0 1 .42-1.295c.28-.392.678-.7 1.194-.924.515-.236 1.104-.353 1.765-.353 1.02 0 1.843.258 2.471.773s.964 1.222 1.008 2.118h-1.529a1.57 1.57 0 0 0-.589-1.16c-.347-.291-.818-.437-1.412-.437-.549 0-.986.118-1.311.353a1.09 1.09 0 0 0-.487.925 1.06 1.06 0 0 0 .285.756c.202.191.449.348.74.471.303.112.717.241 1.244.387.661.179 1.199.358 1.614.537a2.69 2.69 0 0 1 1.059.774c.302.347.459.801.471 1.361 0 .505-.141.958-.421 1.362s-.678.723-1.193.958c-.505.224-1.087.336-1.748.336z" class="B"/><path d="M200.506 350.283v1.244h-3.194V362h-1.53v-10.473h-3.21v-1.244h7.934zm10.288 6.758c0 .291-.017.6-.051.925h-7.362c.056.907.364 1.619.924 2.134.572.505 1.261.757 2.068.757.661 0 1.21-.151 1.647-.454a2.48 2.48 0 0 0 .942-1.244h1.647a4.01 4.01 0 0 1-1.479 2.169c-.74.549-1.659.823-2.757.823-.874 0-1.659-.196-2.354-.588-.683-.392-1.221-.947-1.613-1.664-.393-.729-.589-1.569-.589-2.522s.191-1.787.572-2.504.913-1.267 1.597-1.648c.695-.392 1.49-.588 2.387-.588.874 0 1.647.19 2.32.571a3.89 3.89 0 0 1 1.546 1.581c.37.661.555 1.412.555 2.252zm-1.58-.319c0-.583-.129-1.082-.387-1.496-.258-.426-.611-.746-1.059-.959a3.16 3.16 0 0 0-1.462-.336c-.774 0-1.435.247-1.984.74-.538.493-.846 1.177-.925 2.051h5.817zm14.677-4.102c.717 0 1.356.151 1.916.454a3.16 3.16 0 0 1 1.328 1.328c.325.594.488 1.317.488 2.168V362h-1.513v-5.211c0-.919-.23-1.619-.689-2.101-.449-.493-1.06-.74-1.833-.74-.795 0-1.429.258-1.899.773-.471.505-.706 1.239-.706 2.202V362h-1.513v-5.211c0-.919-.23-1.619-.689-2.101-.449-.493-1.059-.74-1.833-.74-.795 0-1.429.258-1.899.773-.471.505-.706 1.239-.706 2.202V362h-1.53v-9.212h1.53v1.328c.302-.482.706-.852 1.21-1.109a3.74 3.74 0 0 1 1.698-.387c.773 0 1.457.174 2.051.521s1.036.857 1.328 1.53c.257-.65.683-1.154 1.277-1.513a3.76 3.76 0 0 1 1.984-.538zm7.771 1.866c.302-.527.75-.964 1.344-1.311.606-.359 1.306-.538 2.102-.538a4.27 4.27 0 0 1 2.219.588c.672.392 1.199.947 1.58 1.664.381.706.571 1.53.571 2.471 0 .931-.19 1.76-.571 2.488s-.908 1.295-1.58 1.698c-.662.404-1.401.605-2.219.605-.785 0-1.48-.173-2.085-.521-.594-.358-1.048-.801-1.361-1.328v6.069h-1.53v-13.583h1.53v1.698zm6.253 2.874c0-.694-.14-1.3-.42-1.815s-.662-.908-1.143-1.177c-.471-.269-.992-.403-1.564-.403a3.06 3.06 0 0 0-1.563.42c-.471.269-.852.667-1.143 1.194-.28.515-.42 1.115-.42 1.798 0 .695.14 1.306.42 1.833.291.515.672.913 1.143 1.193.482.269 1.003.403 1.563.403.572 0 1.093-.134 1.564-.403.481-.28.863-.678 1.143-1.193.28-.527.42-1.144.42-1.85zm5.106-7.799V362h-1.529v-12.439h1.529zm2.036 7.799c0-.941.191-1.765.572-2.471.381-.717.902-1.272 1.563-1.664.672-.392 1.418-.588 2.236-.588.807 0 1.507.174 2.101.521s1.037.784 1.328 1.311v-1.681h1.546V362h-1.546v-1.715c-.303.538-.757.987-1.362 1.345-.594.348-1.288.521-2.084.521a4.17 4.17 0 0 1-2.219-.605c-.661-.403-1.182-.969-1.563-1.698s-.572-1.557-.572-2.488zm7.8.017c0-.695-.14-1.3-.42-1.815s-.662-.908-1.143-1.177c-.471-.28-.992-.42-1.564-.42s-1.092.134-1.563.403a2.92 2.92 0 0 0-1.126 1.177c-.281.515-.421 1.121-.421 1.815 0 .706.14 1.323.421 1.85.28.515.655.913 1.126 1.193.471.269.992.403 1.563.403s1.093-.134 1.564-.403c.481-.28.863-.678 1.143-1.193.28-.527.42-1.138.42-1.833zm5.997-3.328v5.429c0 .449.096.768.286.959.191.179.521.269.992.269h1.126V362h-1.378c-.852 0-1.491-.196-1.917-.588s-.638-1.037-.638-1.934v-5.429h-1.194v-1.261h1.194v-2.32h1.529v2.32h2.404v1.261h-2.404zm12.663 2.992c0 .291-.017.6-.051.925h-7.363c.057.907.365 1.619.925 2.134.572.505 1.261.757 2.068.757.661 0 1.21-.151 1.647-.454.448-.314.762-.728.941-1.244h1.648c-.247.885-.74 1.608-1.48 2.169-.739.549-1.658.823-2.756.823-.874 0-1.659-.196-2.354-.588-.683-.392-1.221-.947-1.614-1.664-.392-.729-.588-1.569-.588-2.522s.191-1.787.572-2.504.913-1.267 1.597-1.648c.694-.392 1.49-.588 2.387-.588.874 0 1.647.19 2.319.571s1.188.908 1.547 1.581c.37.661.555 1.412.555 2.252zm-1.58-.319c0-.583-.129-1.082-.387-1.496-.258-.426-.611-.746-1.059-.959a3.16 3.16 0 0 0-1.463-.336c-.773 0-1.434.247-1.983.74-.538.493-.846 1.177-.925 2.051h5.817z" class="B"/><rect x="350" y="182" width="215" height="19" rx="9.5" fill="#d7d7d7" fill-opacity=".11"/><rect x="307" y="217" width="258" height="19" rx="9.5" fill="#d7d7d7" fill-opacity=".11"/><rect x="291" y="343" width="274" height="28" rx="12" fill="#03aa82" fill-opacity=".14"/><rect x="192" y="395" width="103" height="26.939" rx="13.469" class="C"/><rect x="192.5" y="283.5" width="372" height="41" rx="13.5" fill="#12222e" class="D"/><rect x="202.25" y="290.25" width="26.5" height="26.5" rx="9.75" fill-opacity=".15" stroke-width=".5" class="C D"/><path d="M214.646 310.354a.5.5 0 0 0 .708 0l3.182-3.182a.5.5 0 1 0-.708-.708L215 309.293l-2.828-2.829a.5.5 0 1 0-.708.708l3.182 3.182zM214.5 297.5V310h1v-12.5h-1z" class="C"/><path d="M218.007 412.183h3.25v.986h-4.462v-9.283h1.212v8.297zm4.084-2.69c0-.746.151-1.398.453-1.958.302-.568.715-1.008 1.239-1.318.532-.311 1.123-.467 1.771-.467.639 0 1.194.138 1.665.413s.821.622 1.052 1.039v-1.332h1.225v7.299h-1.225v-1.359c-.24.427-.599.782-1.079 1.066-.47.275-1.021.413-1.651.413a3.3 3.3 0 0 1-1.758-.48 3.36 3.36 0 0 1-1.239-1.345c-.302-.577-.453-1.234-.453-1.971zm6.18.013c0-.55-.111-1.03-.333-1.438s-.524-.719-.906-.932c-.373-.222-.785-.333-1.238-.333s-.866.106-1.239.319-.67.524-.892.933-.333.887-.333 1.438c0 .559.111 1.048.333 1.465.222.408.519.724.892.946.373.213.786.319 1.239.319a2.45 2.45 0 0 0 1.238-.319c.382-.222.684-.538.906-.946.222-.417.333-.901.333-1.452zm9.746-3.636v7.299h-1.212v-1.079a2.39 2.39 0 0 1-.972.879c-.408.204-.861.306-1.358.306-.569 0-1.079-.115-1.532-.346-.453-.24-.812-.595-1.079-1.065-.257-.471-.386-1.044-.386-1.718v-4.276h1.199v4.116c0 .719.182 1.274.546 1.665.364.381.861.572 1.491.572.649 0 1.159-.199 1.532-.599s.559-.981.559-1.745v-4.009h1.212zm5.603-.133c.888 0 1.607.271 2.157.813.551.532.826 1.305.826 2.317v4.302h-1.198v-4.129c0-.728-.182-1.283-.547-1.665-.364-.39-.861-.586-1.491-.586-.64 0-1.15.2-1.532.6-.373.399-.559.981-.559 1.744v4.036h-1.212v-7.299h1.212v1.039a2.42 2.42 0 0 1 .972-.866c.417-.204.875-.306 1.372-.306zm4.51 3.769c0-.754.151-1.411.453-1.971.302-.568.719-1.008 1.252-1.318.542-.311 1.159-.467 1.851-.467.897 0 1.634.218 2.211.653.586.435.972 1.039 1.159 1.811h-1.305c-.125-.444-.369-.794-.733-1.052-.355-.257-.799-.386-1.332-.386-.692 0-1.252.24-1.678.719-.426.471-.639 1.141-.639 2.011 0 .879.213 1.559.639 2.038s.986.719 1.678.719c.533 0 .977-.124 1.332-.373s.6-.603.733-1.065h1.305a3.24 3.24 0 0 1-1.172 1.798c-.586.444-1.319.666-2.198.666-.692 0-1.309-.156-1.851-.466-.533-.311-.95-.751-1.252-1.319s-.453-1.234-.453-1.998zm12.166-3.769c.55 0 1.048.12 1.491.36.444.231.791.581 1.039 1.052.258.47.387 1.043.387 1.718v4.302h-1.199v-4.129c0-.728-.182-1.283-.546-1.665-.364-.39-.861-.586-1.492-.586-.639 0-1.15.2-1.532.6-.372.399-.559.981-.559 1.744v4.036h-1.212v-9.856h1.212v3.596a2.4 2.4 0 0 1 .986-.866c.426-.204.901-.306 1.425-.306z" class="B"/><path d="M252.372 300.62c.717 0 1.356.151 1.916.454.561.291 1.003.734 1.328 1.328s.488 1.317.488 2.168V310h-1.513v-5.211c0-.919-.23-1.619-.689-2.101-.448-.493-1.059-.74-1.832-.74-.796 0-1.429.258-1.9.773-.471.505-.706 1.239-.706 2.202V310h-1.513v-5.211c0-.919-.23-1.619-.689-2.101-.448-.493-1.059-.74-1.832-.74-.796 0-1.429.258-1.9.773-.471.505-.706 1.239-.706 2.202V310h-1.53v-9.212h1.53v1.328c.303-.482.706-.852 1.21-1.109.516-.258 1.082-.387 1.698-.387.773 0 1.457.174 2.051.521s1.037.857 1.328 1.53c.258-.65.684-1.154 1.278-1.513s1.255-.538 1.983-.538zm5.67 4.74c0-.941.19-1.765.571-2.471.381-.717.902-1.272 1.564-1.664.672-.392 1.417-.588 2.235-.588.807 0 1.508.174 2.102.521s1.036.784 1.328 1.311v-1.681h1.546V310h-1.546v-1.715c-.303.538-.757.987-1.362 1.345-.594.348-1.289.521-2.084.521-.819 0-1.558-.201-2.219-.605s-1.183-.969-1.564-1.698-.571-1.557-.571-2.488zm7.8.017c0-.695-.141-1.3-.421-1.815s-.661-.908-1.143-1.177c-.47-.28-.992-.42-1.563-.42a3.09 3.09 0 0 0-1.563.403c-.471.269-.847.661-1.127 1.177s-.42 1.121-.42 1.815c0 .706.14 1.323.42 1.85.28.515.656.913 1.127 1.193a3.09 3.09 0 0 0 1.563.403c.571 0 1.093-.134 1.563-.403.482-.28.863-.678 1.143-1.193.28-.527.421-1.138.421-1.833zm5.661-3.093c.269-.527.65-.936 1.143-1.227.504-.291 1.115-.437 1.832-.437v1.58h-.403c-1.715 0-2.572.93-2.572 2.791V310h-1.53v-9.212h1.53v1.496zm9.885 7.716l-3.614-4.068V310h-1.53v-12.439h1.53v7.312l3.547-4.085h2.135l-4.337 4.589 4.353 4.623h-2.084zm11.912-4.959a9.19 9.19 0 0 1-.05.925h-7.363c.056.907.364 1.619.925 2.134.571.505 1.26.757 2.067.757.661 0 1.211-.151 1.648-.454.448-.314.762-.728.941-1.244h1.647a4 4 0 0 1-1.479 2.169c-.74.549-1.658.823-2.757.823-.874 0-1.658-.196-2.353-.588a4.19 4.19 0 0 1-1.614-1.664c-.392-.729-.588-1.569-.588-2.522s.19-1.787.571-2.504.914-1.267 1.597-1.648c.695-.392 1.491-.588 2.387-.588.874 0 1.648.19 2.32.571a3.89 3.89 0 0 1 1.547 1.581c.369.661.554 1.412.554 2.252zm-1.58-.319c0-.583-.129-1.082-.386-1.496-.258-.426-.611-.746-1.059-.959-.438-.224-.925-.336-1.463-.336-.773 0-1.434.247-1.984.74-.537.493-.846 1.177-.924 2.051h5.816zm5.465-2.673v5.429c0 .449.096.768.286.959.191.179.521.269.992.269h1.126V310h-1.378c-.852 0-1.491-.196-1.917-.588s-.638-1.037-.638-1.934v-5.429h-1.194v-1.261h1.194v-2.32h1.529v2.32h2.404v1.261h-2.404zm5.048-2.757c-.292 0-.538-.101-.74-.303s-.303-.448-.303-.739.101-.538.303-.74.448-.302.74-.302a.93.93 0 0 1 .706.302 1.01 1.01 0 0 1 .302.74c0 .291-.101.538-.302.739a.93.93 0 0 1-.706.303zm.739 1.496V310h-1.529v-9.212h1.529zm7.096-.168c1.12 0 2.028.342 2.723 1.025.695.673 1.042 1.648 1.042 2.925V310h-1.513v-5.211c0-.919-.229-1.619-.689-2.101-.459-.493-1.087-.74-1.883-.74-.807 0-1.451.252-1.933.756-.47.505-.706 1.239-.706 2.203V310h-1.53v-9.212h1.53v1.311c.303-.47.712-.835 1.227-1.092.527-.258 1.104-.387 1.732-.387zm10.063.017c.796 0 1.491.174 2.084.521.606.347 1.054.784 1.345 1.311v-1.681h1.547v9.414c0 .84-.18 1.585-.538 2.235-.359.662-.874 1.177-1.547 1.547-.661.37-1.434.555-2.319.555-1.211 0-2.219-.286-3.026-.858s-1.283-1.35-1.429-2.336h1.513c.168.56.515 1.008 1.042 1.345.527.347 1.16.521 1.9.521.84 0 1.524-.264 2.05-.79.538-.527.807-1.267.807-2.219v-1.933c-.302.537-.751.986-1.345 1.344s-1.288.538-2.084.538a4.26 4.26 0 0 1-2.236-.605c-.661-.403-1.182-.969-1.563-1.698s-.572-1.557-.572-2.488c0-.941.191-1.765.572-2.471.381-.717.902-1.272 1.563-1.664a4.36 4.36 0 0 1 2.236-.588zm3.429 4.74c0-.695-.14-1.3-.42-1.815s-.661-.908-1.143-1.177a3 3 0 0 0-1.563-.42c-.572 0-1.093.134-1.564.403s-.846.661-1.126 1.177-.42 1.121-.42 1.815c0 .706.14 1.323.42 1.85a3.05 3.05 0 0 0 1.126 1.193c.471.269.992.403 1.564.403s1.092-.134 1.563-.403c.482-.28.863-.678 1.143-1.193.28-.527.42-1.138.42-1.833zm13.545 5.262v1.412h-8.942v-1.412h8.942zm2.344-5.262c0-.952.19-1.782.571-2.488.381-.717.908-1.272 1.58-1.664.684-.392 1.463-.588 2.337-.588 1.132 0 2.062.274 2.79.824.74.549 1.228 1.311 1.463 2.286h-1.647c-.157-.561-.466-1.003-.925-1.328-.448-.325-1.009-.488-1.681-.488-.874 0-1.58.303-2.118.908-.538.594-.807 1.44-.807 2.538 0 1.11.269 1.967.807 2.572s1.244.908 2.118.908c.672 0 1.233-.157 1.681-.471s.756-.762.925-1.345h1.647c-.247.942-.74 1.698-1.479 2.27-.74.56-1.665.84-2.774.84-.874 0-1.653-.196-2.337-.588-.672-.392-1.199-.947-1.58-1.664s-.571-1.558-.571-2.522zm14.8 4.774c-.863 0-1.648-.196-2.354-.588a4.27 4.27 0 0 1-1.647-1.664c-.392-.729-.588-1.569-.588-2.522 0-.941.201-1.77.605-2.488a4.21 4.21 0 0 1 1.681-1.664c.706-.392 1.496-.588 2.37-.588s1.664.196 2.37.588c.706.381 1.261.93 1.664 1.648.415.717.622 1.552.622 2.504s-.213 1.793-.639 2.522a4.32 4.32 0 0 1-1.697 1.664c-.718.392-1.513.588-2.387.588zm0-1.345c.549 0 1.064-.128 1.546-.386a2.89 2.89 0 0 0 1.16-1.16c.303-.516.454-1.143.454-1.883s-.146-1.367-.437-1.882-.673-.897-1.143-1.144c-.471-.257-.981-.386-1.53-.386a3.17 3.17 0 0 0-1.546.386c-.46.247-.83.628-1.11 1.144s-.42 1.143-.42 1.882c0 .751.134 1.384.403 1.9.28.515.65.902 1.11 1.16.459.246.964.369 1.513.369zm11.223-8.186c1.12 0 2.028.342 2.723 1.025.695.673 1.042 1.648 1.042 2.925V310h-1.513v-5.211c0-.919-.229-1.619-.689-2.101-.459-.493-1.087-.74-1.883-.74-.806 0-1.451.252-1.933.756-.47.505-.706 1.239-.706 2.203V310h-1.529v-9.212h1.529v1.311c.303-.47.712-.835 1.227-1.092.527-.258 1.104-.387 1.732-.387zm8.13 1.429v5.429c0 .449.095.768.286.959.19.179.521.269.991.269h1.127V310h-1.379c-.851 0-1.49-.196-1.916-.588s-.639-1.037-.639-1.934v-5.429h-1.193v-1.261h1.193v-2.32h1.53v2.32h2.404v1.261h-2.404zm3.686 3.311c0-.941.19-1.765.571-2.471.381-.717.902-1.272 1.564-1.664.672-.392 1.417-.588 2.235-.588.807 0 1.508.174 2.102.521s1.036.784 1.328 1.311v-1.681h1.546V310h-1.546v-1.715c-.303.538-.757.987-1.362 1.345-.594.348-1.289.521-2.085.521-.818 0-1.557-.201-2.218-.605s-1.183-.969-1.564-1.698-.571-1.557-.571-2.488zm7.8.017c0-.695-.141-1.3-.421-1.815s-.661-.908-1.143-1.177a3 3 0 0 0-1.563-.42 3.09 3.09 0 0 0-1.563.403c-.471.269-.847.661-1.127 1.177s-.42 1.121-.42 1.815c0 .706.14 1.323.42 1.85.28.515.656.913 1.127 1.193a3.09 3.09 0 0 0 1.563.403c.571 0 1.092-.134 1.563-.403.482-.28.863-.678 1.143-1.193.28-.527.421-1.138.421-1.833zm3.56 0c0-.952.19-1.782.571-2.488.381-.717.908-1.272 1.58-1.664.684-.392 1.463-.588 2.337-.588 1.132 0 2.062.274 2.79.824.74.549 1.227 1.311 1.463 2.286h-1.648a2.35 2.35 0 0 0-.924-1.328c-.448-.325-1.009-.488-1.681-.488-.874 0-1.58.303-2.118.908-.538.594-.807 1.44-.807 2.538 0 1.11.269 1.967.807 2.572s1.244.908 2.118.908c.672 0 1.233-.157 1.681-.471s.756-.762.924-1.345h1.648c-.247.942-.74 1.698-1.48 2.27-.739.56-1.664.84-2.773.84-.874 0-1.653-.196-2.337-.588-.672-.392-1.199-.947-1.58-1.664s-.571-1.558-.571-2.522zm12.648-3.328v5.429c0 .449.095.768.286.959.19.179.521.269.991.269h1.127V310h-1.379c-.852 0-1.49-.196-1.916-.588s-.639-1.037-.639-1.934v-5.429h-1.193v-1.261h1.193v-2.32h1.53v2.32h2.404v1.261h-2.404zm7.518 8.102c-.706 0-1.339-.117-1.899-.353-.561-.246-1.003-.582-1.328-1.008a2.72 2.72 0 0 1-.538-1.496h1.58a1.56 1.56 0 0 0 .639 1.126c.392.291.902.437 1.529.437.583 0 1.043-.129 1.379-.387s.504-.582.504-.975a.94.94 0 0 0-.538-.891c-.358-.201-.913-.397-1.664-.588-.684-.179-1.244-.359-1.681-.538a3.17 3.17 0 0 1-1.109-.824c-.303-.369-.454-.851-.454-1.445a2.18 2.18 0 0 1 .42-1.295c.28-.392.678-.7 1.193-.924.516-.236 1.104-.353 1.765-.353 1.02 0 1.844.258 2.472.773s.963 1.222 1.008 2.118h-1.53c-.033-.482-.229-.868-.588-1.16-.347-.291-.818-.437-1.412-.437-.549 0-.986.118-1.311.353s-.488.544-.488.925a1.06 1.06 0 0 0 .286.756c.202.191.448.348.74.471a16.19 16.19 0 0 0 1.244.387c.661.179 1.199.358 1.613.537.415.169.768.426 1.059.774.303.347.46.801.471 1.361 0 .505-.14.958-.42 1.362s-.678.723-1.194.958c-.504.224-1.087.336-1.748.336zm6.009-.05c-.291 0-.538-.101-.74-.303s-.302-.448-.302-.739a1.01 1.01 0 0 1 .302-.74c.202-.202.449-.303.74-.303a.93.93 0 0 1 .706.303c.202.202.303.448.303.74s-.101.538-.303.739a.93.93 0 0 1-.706.303zm2.47-4.724c0-.952.191-1.782.572-2.488.381-.717.908-1.272 1.58-1.664.684-.392 1.463-.588 2.337-.588 1.132 0 2.062.274 2.79.824.74.549 1.227 1.311 1.463 2.286h-1.648a2.35 2.35 0 0 0-.924-1.328c-.449-.325-1.009-.488-1.681-.488-.874 0-1.58.303-2.118.908-.538.594-.807 1.44-.807 2.538 0 1.11.269 1.967.807 2.572s1.244.908 2.118.908c.672 0 1.232-.157 1.681-.471s.756-.762.924-1.345h1.648c-.247.942-.74 1.698-1.48 2.27-.739.56-1.664.84-2.773.84-.874 0-1.653-.196-2.337-.588-.672-.392-1.199-.947-1.58-1.664s-.572-1.558-.572-2.522zm14.044 4.774c-.706 0-1.339-.117-1.9-.353-.56-.246-1.003-.582-1.328-1.008a2.73 2.73 0 0 1-.538-1.496h1.581c.044.459.257.834.638 1.126.393.291.903.437 1.53.437.583 0 1.042-.129 1.379-.387s.504-.582.504-.975a.94.94 0 0 0-.538-.891c-.359-.201-.913-.397-1.664-.588-.684-.179-1.244-.359-1.681-.538-.426-.19-.796-.465-1.11-.824-.302-.369-.454-.851-.454-1.445 0-.471.14-.902.421-1.295s.678-.7 1.193-.924c.516-.236 1.104-.353 1.765-.353 1.02 0 1.844.258 2.471.773s.964 1.222 1.009 2.118h-1.53a1.57 1.57 0 0 0-.588-1.16c-.348-.291-.818-.437-1.412-.437-.549 0-.986.118-1.311.353s-.488.544-.488.925c0 .302.095.554.286.756.202.191.448.348.74.471.302.112.717.241 1.243.387.662.179 1.2.358 1.614.537.415.169.768.426 1.059.774.303.347.46.801.471 1.361 0 .505-.14.958-.42 1.362s-.678.723-1.194.958c-.504.224-1.087.336-1.748.336zm8.951-1.563l2.857-7.8h1.631L441.162 310h-1.782l-3.614-9.212h1.647l2.875 7.8z" class="B"/><rect x="537" y="119" width="28" height="28" rx="5" fill="#212121"/><mask id="A" class="B"><path d="M92 125c0-20.435 16.565-37 37-37h45v369h-45c-20.435 0-37-16.565-37-37V125z"/></mask><path d="M92 125c0-20.435 16.565-37 37-37h45v369h-45c-20.435 0-37-16.565-37-37V125z" fill="#0b0b0b"/><path d="M90 125c0-21.539 17.461-39 39-39h45v4h-45c-19.33 0-35 15.67-35 35h-4zm84 334h-45c-21.539 0-39-17.461-39-39h4c0 19.33 15.67 35 35 35h45v4zm-45 0c-21.539 0-39-17.461-39-39V125c0-21.539 17.461-39 39-39v4c-19.33 0-35 15.67-35 35v295c0 19.33 15.67 35 35 35v4zm45-371v369V88z" fill="#9b9b9b" mask="url(#A)" class="E"/><rect x="115.25" y="281.25" width="37.915" height="34.5" rx="9.75" fill-opacity=".15" stroke-width=".5" class="C D"/><path d="M126.521 202.31c.089-.4.444-.685.854-.685h12.25c.41 0 .765.285.854.685l1.75 7.875a.87.87 0 0 1 .021.19v6.125c0 .483-.392.875-.875.875h-15.75c-.483 0-.875-.392-.875-.875v-6.125a.87.87 0 0 1 .021-.19l1.75-7.875zm1.556 1.065l-1.361 6.125h4.159c0 1.45 1.175 2.625 2.625 2.625s2.625-1.175 2.625-2.625h4.159l-1.361-6.125h-10.846zm9.434 7.875c-.675 1.545-2.217 2.625-4.011 2.625s-3.336-1.08-4.011-2.625H126.5v4.375h14v-4.375h-2.989z" fill="#545454"/><path d="M123.5 264a7.62 7.62 0 0 1 7.619-7.619 7.62 7.62 0 0 1 7.619 7.619h-1.905c0-3.156-2.558-5.714-5.714-5.714s-5.714 2.558-5.714 5.714H123.5zm7.619-8.571c-3.157 0-5.714-2.558-5.714-5.715s2.557-5.714 5.714-5.714 5.714 2.557 5.714 5.714-2.557 5.715-5.714 5.715zm0-1.905a3.81 3.81 0 0 0 3.81-3.81 3.81 3.81 0 0 0-3.81-3.809 3.81 3.81 0 0 0-3.809 3.809 3.81 3.81 0 0 0 3.809 3.81zm7.889 3.526A7.62 7.62 0 0 1 143.5 264h-1.905c0-2.32-1.382-4.317-3.369-5.212l.782-1.738zm-.654-10.752a5.24 5.24 0 0 1-1.521 10.062v-1.918a3.33 3.33 0 0 0 .992-6.293l.529-1.851z" class="B E"/><path d="M130.567 303.085s7.068-.201 10.534 2.247l.985-.169a1 1 0 0 0 .816-1.155l-1.027-5.975c.812-.365 1.307-1.245 1.15-2.164a2 2 0 0 0-1.807-1.654l-1.028-5.976a1 1 0 0 0-1.155-.816l-.985.17c-2.448 3.465-9.178 5.637-9.178 5.637l-3.942.678a2 2 0 0 0-1.632 2.31l1.017 5.913a2 2 0 0 0 2.31 1.632l.986-.169 1.833 4.758 1.971-.339-.848-4.928zm.558-8.557c.649-.26 1.446-.603 2.299-1.022 1.571-.771 3.54-1.898 5.062-3.376l2.178 12.665c-1.928-.884-4.161-1.289-5.899-1.491-.944-.11-1.81-.166-2.508-.195l-1.132-6.581zm-5.856 1.351l3.942-.678 1.017 5.913-3.942.678-1.017-5.913z" class="C"/><path d="M133.5 334.28c6.213 0 11.25 5.037 11.25 11.25s-5.037 11.25-11.25 11.25-11.25-5.037-11.25-11.25 5.037-11.25 11.25-11.25zm0 2.25a9 9 0 1 0 0 18 9 9 0 1 0 0-18zm-3.575 12.761l-.889 1.542c-.254.445-.821.594-1.265.34s-.595-.821-.341-1.265l.663-1.143c.744-.232 1.352-.055 1.832.526zm4.936-7.517l2.726 4.718h2.409c.513 0 .925.413.925.925s-.412.926-.925.926h-1.338l.902 1.565c.255.444.105 1.007-.34 1.265s-1.007.105-1.265-.34l-3.421-5.924c-.775-1.338-.222-2.681.327-3.135zm.313-3.425c.444.254.594.821.34 1.266l-3.969 6.872h2.871c.93 0 1.452 1.094 1.048 1.851h-8.415c-.512 0-.925-.413-.925-.925s.413-.926.925-.926h2.359l3.021-5.234-.943-1.638a.93.93 0 0 1 .34-1.266.93.93 0 0 1 1.266.341l.404.712.412-.712c.254-.445.821-.595 1.266-.341z" class="B E"/><path stroke="#9b9b9b" d="M174.5 174v243"/><path d="M133.001 115.833c7.82 0 14.166 6.347 14.166 14.167s-6.346 14.166-14.166 14.166-14.167-6.346-14.167-14.166 6.347-14.167 14.167-14.167zm-8.467 19.006c2.079 3.104 5.201 5.077 8.693 5.077s6.614-1.973 8.693-5.077c-2.277-2.123-5.333-3.423-8.693-3.423s-6.416 1.3-8.693 3.423zm8.467-6.256a4.25 4.25 0 1 0 0-8.5 4.25 4.25 0 1 0 0 8.5z" fill="#707070"/></g><defs><filter id="B" x="0" y="0" width="691" height="553" filterUnits="userSpaceOnUse" color-interpolation-filters="sRGB"><feFlood flood-opacity="0" result="A"/><feColorMatrix in="SourceAlpha" values="0 0 0 0 0 0 0 0 0 0 0 0 0 0 0 0 0 0 127 0" result="B"/><feOffset dy="4"/><feGaussianBlur stdDeviation="46"/><feComposite in2="B" operator="out"/><feColorMatrix values="0 0 0 0 1 0 0 0 0 1 0 0 0 0 1 0 0 0 0.13 0"/><feBlend in2="A"/><feBlend in="SourceGraphic"/></filter></defs></svg>