<svg width="26" height="25" viewBox="0 0 26 25" fill="none" xmlns="http://www.w3.org/2000/svg">
<path d="M23.0196 14.019V21.4518H18.7104V14.5166C18.7104 12.774 18.0869 11.5854 16.5276 11.5854C15.337 11.5854 14.6278 12.3872 14.3166 13.1618C14.2027 13.4388 14.1735 13.8246 14.1735 14.2124V21.4518H9.86233C9.86233 21.4518 9.92075 9.70677 9.86233 8.48895H14.1735V10.3263L14.1453 10.3686H14.1735V10.3263C14.7457 9.44487 15.7681 8.18475 18.0577 8.18475C20.8932 8.18475 23.0196 10.0382 23.0196 14.019V14.019ZM5.35369 2.24072C3.88002 2.24072 2.91504 3.20772 2.91504 4.47993C2.91504 5.72394 3.85182 6.72015 5.29728 6.72015H5.32549C6.82937 6.72015 7.76313 5.72394 7.76313 4.47993C7.73694 3.20772 6.83038 2.24072 5.3547 2.24072H5.35369ZM3.17089 21.4518H7.48008V8.48895H3.17089V21.4518Z" fill="#E2E8F0"/>
</svg>
