<svg xmlns="http://www.w3.org/2000/svg" width="499" height="310" fill="none" xmlns:v="https://vecta.io/nano"><path d="M48.035.8a1.51 1.51 0 0 0-2.135 0l-9.606 9.606a1.51 1.51 0 0 0 0 2.135 1.51 1.51 0 0 0 2.135 0l8.539-8.539 8.539 8.539a1.51 1.51 0 0 0 2.135 0 1.51 1.51 0 0 0 0-2.135L48.035.8zm-2.135 308.046a1.51 1.51 0 0 0 2.135 0l9.606-9.605a1.51 1.51 0 0 0 0-2.135 1.51 1.51 0 0 0-2.135 0l-8.539 8.539-8.539-8.539a1.51 1.51 0 0 0-2.135 2.135l9.606 9.605zM.774 255.028a1.51 1.51 0 0 0 0 2.135l9.606 9.606a1.51 1.51 0 0 0 2.135-2.135l-8.539-8.539 8.539-8.538a1.51 1.51 0 0 0-2.135-2.135l-9.606 9.606zm497.733 2.135a1.51 1.51 0 0 0 0-2.135l-9.606-9.606a1.51 1.51 0 0 0-2.135 2.135l8.539 8.538-8.539 8.539a1.51 1.51 0 0 0 2.135 2.135l9.606-9.606zM45.459 1.867v305.912h3.019V1.867h-3.019zM1.842 257.605h495.597v-3.019H1.842v3.019z" fill="#9d9d9d"/><g filter="url(#A)"><path d="M137.691 233.313c91.642-11.237 279.111-69.434 295.849-212.327" stroke="#37a6f7" stroke-width="3.019"/></g><path d="M409.418 284.907v5.238c0 .433.092.741.276.925.184.173.503.259.957.259h1.086v1.249h-1.33c-.821 0-1.438-.189-1.848-.568s-.617-1-.617-1.865v-5.238h-1.151v-1.216h1.151v-2.238h1.476v2.238h2.319v1.216h-2.319zm4.87-2.66a.97.97 0 0 1-1.006-1.005c0-.281.098-.519.292-.714a.97.97 0 0 1 .714-.292.9.9 0 0 1 .681.292c.194.195.292.433.292.714a.97.97 0 0 1-.292.713.9.9 0 0 1-.681.292zm.713 1.444v8.887h-1.476v-8.887h1.476zm13.203-.163c.692 0 1.309.146 1.849.438.541.281.968.709 1.281 1.282s.471 1.27.471 2.092v5.238h-1.46v-5.027c0-.887-.222-1.563-.665-2.028-.432-.475-1.022-.713-1.768-.713-.767 0-1.378.248-1.832.746-.454.486-.681 1.194-.681 2.124v4.898h-1.46v-5.027c0-.887-.222-1.563-.665-2.028-.432-.475-1.022-.713-1.768-.713-.767 0-1.378.248-1.832.746-.454.486-.682 1.194-.682 2.124v4.898h-1.475v-8.887h1.475v1.281c.292-.465.682-.822 1.168-1.071.498-.248 1.044-.373 1.638-.373.746 0 1.406.168 1.979.503s1 .827 1.281 1.476a2.92 2.92 0 0 1 1.233-1.46 3.63 3.63 0 0 1 1.913-.519zm14.131 4.266c0 .281-.017.578-.049.892h-7.104c.055.876.352 1.562.892 2.059a2.91 2.91 0 0 0 1.995.73c.638 0 1.168-.146 1.59-.438.432-.302.735-.702.908-1.2h1.589c-.238.854-.713 1.552-1.427 2.092-.714.53-1.6.795-2.66.795-.843 0-1.6-.189-2.27-.568-.66-.378-1.179-.913-1.557-1.605-.379-.703-.568-1.514-.568-2.433s.184-1.724.552-2.416a3.84 3.84 0 0 1 1.54-1.59c.671-.378 1.438-.567 2.303-.567.844 0 1.59.183 2.238.551a3.75 3.75 0 0 1 1.492 1.525c.357.638.536 1.362.536 2.173zm-1.525-.308c0-.563-.124-1.044-.373-1.444a2.34 2.34 0 0 0-1.022-.924c-.421-.216-.892-.325-1.411-.325-.746 0-1.384.238-1.913.714-.519.476-.817 1.135-.892 1.979h5.611zM20.421 175.258c-.919 0-1.719-.184-2.4-.552-.692-.367-1.227-.875-1.606-1.524-.378-.66-.568-1.411-.568-2.255 0-1.092.265-1.989.795-2.692.53-.713 1.265-1.184 2.206-1.411v1.59a2.26 2.26 0 0 0-1.281.892c-.314.432-.47.973-.47 1.621 0 .844.292 1.525.876 2.044.573.519 1.389.778 2.449.778 1.07 0 1.898-.259 2.481-.778s.876-1.2.876-2.044c0-.648-.151-1.189-.454-1.621s-.735-.73-1.297-.892v-1.59c.908.238 1.638.714 2.189 1.428.541.713.811 1.605.811 2.675 0 .844-.189 1.595-.568 2.255-.378.649-.914 1.157-1.606 1.524s-1.503.552-2.433.552zm-4.59-14.814c0-.671.146-1.276.438-1.817a2.96 2.96 0 0 1 1.281-1.265c.573-.313 1.27-.47 2.092-.47h5.239v1.46h-5.028c-.887 0-1.562.221-2.027.665-.476.443-.714 1.048-.714 1.816 0 .778.243 1.4.73 1.865.487.454 1.195.681 2.125.681h4.914v1.476H12.88v-1.476h4.379a2.92 2.92 0 0 1-1.054-1.2c-.249-.519-.373-1.097-.373-1.735zm.162-13.845h8.888v1.476h-1.314c.454.281.811.676 1.07 1.184.249.497.373 1.049.373 1.654 0 .692-.141 1.314-.422 1.865-.292.552-.724.99-1.297 1.314-.573.314-1.27.47-2.092.47h-5.206v-1.459h5.011c.876 0 1.552-.222 2.027-.665.465-.443.697-1.049.697-1.817 0-.789-.243-1.411-.73-1.865s-1.195-.681-2.125-.681h-4.882v-1.476zm1.443-3.967c-.508-.26-.903-.628-1.184-1.103-.281-.487-.422-1.076-.422-1.768h1.524v.389c0 1.654.897 2.482 2.692 2.482h4.833v1.475h-8.888v-1.475h1.443zm-1.606-8.905c0-1.081.33-1.957.989-2.627.649-.671 1.589-1.006 2.822-1.006h5.239v1.46h-5.028c-.887 0-1.562.222-2.027.665-.476.443-.714 1.049-.714 1.816 0 .779.243 1.4.73 1.865.487.454 1.195.682 2.125.682h4.914v1.475h-8.888v-1.475h1.265a2.94 2.94 0 0 1-1.054-1.184c-.249-.509-.373-1.065-.373-1.671zm1.606-11.843a2.85 2.85 0 0 1-1.184-1.103c-.281-.486-.422-1.076-.422-1.768h1.524v.39c0 1.654.897 2.481 2.692 2.481h4.833v1.476h-8.888v-1.476h1.443zm2.968-4.023c-.908 0-1.703-.184-2.384-.551a4.01 4.01 0 0 1-1.606-1.509c-.378-.648-.568-1.367-.568-2.157 0-.778.168-1.454.503-2.027s.757-1 1.265-1.281h-1.622v-1.492h8.888v1.492h-1.654c.519.292.951.73 1.297 1.314.335.573.503 1.243.503 2.011 0 .789-.195 1.502-.584 2.14s-.935 1.141-1.638 1.509-1.503.551-2.4.551zm.016-7.525c-.67 0-1.254.135-1.751.405s-.876.638-1.135 1.103c-.27.454-.405.957-.405 1.508s.13 1.055.389 1.509.638.816 1.135 1.086 1.081.406 1.752.406c.681 0 1.276-.135 1.784-.406.497-.27.881-.632 1.151-1.086a2.99 2.99 0 0 0 .389-1.509c0-.552-.13-1.054-.389-1.508-.27-.465-.654-.832-1.151-1.103-.508-.27-1.098-.405-1.768-.405zm-3.211-5.786h5.238c.432 0 .741-.092.924-.276.173-.184.26-.503.26-.957v-1.087h1.249v1.33c0 .822-.189 1.438-.568 1.849s-1 .616-1.865.616H17.21v1.152h-1.216v-1.152h-2.238v-1.475h2.238v-2.32h1.216v2.32zm2.887-12.217c.281 0 .579.016.892.049v7.103c.876-.054 1.562-.351 2.06-.892.487-.551.73-1.216.73-1.995 0-.638-.146-1.168-.438-1.589a2.39 2.39 0 0 0-1.2-.908v-1.589a3.86 3.86 0 0 1 2.092 1.427c.53.714.795 1.6.795 2.66 0 .843-.189 1.6-.568 2.27a4.04 4.04 0 0 1-1.606 1.557c-.703.378-1.514.568-2.433.568s-1.724-.184-2.416-.552-1.222-.881-1.589-1.54c-.378-.67-.568-1.438-.568-2.303 0-.843.184-1.589.551-2.238a3.75 3.75 0 0 1 1.524-1.492c.638-.357 1.362-.535 2.173-.535zm-.308 1.525c-.562 0-1.043.124-1.443.373a2.34 2.34 0 0 0-.924 1.022 3.05 3.05 0 0 0-.324 1.411c0 .746.238 1.384.714 1.914.476.519 1.135.816 1.979.892v-5.611zm8.109-11.591c-1.016 1.038-2.308 1.849-3.876 2.433-1.568.573-3.26.859-5.076.859-1.86 0-3.595-.303-5.206-.908-1.622-.616-2.957-1.492-4.006-2.627v-1.541h.146c1.135 1.211 2.503 2.124 4.103 2.741 1.589.606 3.244.908 4.963.908a13.53 13.53 0 0 0 4.801-.859 11.69 11.69 0 0 0 4.006-2.546h.146v1.541zm-6.114-15.191a3.08 3.08 0 0 1 1.492.389c.465.259.854.643 1.168 1.151.313.497.492 1.097.535 1.8h1.314v.876h-1.314c-.087.984-.4 1.784-.941 2.4-.551.616-1.249.93-2.092.941V73.06a2.05 2.05 0 0 0 1.184-.503c.335-.303.546-.724.633-1.265h-4.055c-.184.724-.373 1.308-.568 1.751s-.497.822-.908 1.135-.962.47-1.654.47c-.876 0-1.6-.303-2.173-.908-.573-.616-.892-1.433-.957-2.449h-1.346v-.876h1.346c.076-.919.373-1.66.892-2.222.508-.562 1.173-.887 1.995-.973v1.573a1.87 1.87 0 0 0-1.022.503c-.314.281-.519.654-.616 1.119h3.957c.184-.714.373-1.292.568-1.735a2.6 2.6 0 0 1 .892-1.135c.411-.314.968-.47 1.67-.47zm-5.287 6.066c.53 0 .935-.157 1.216-.47s.514-.773.697-1.378h-3.746c.054.562.238 1.011.551 1.346.303.335.73.503 1.281.503zm7.282-2.725c-.065-.584-.276-1.038-.633-1.362-.357-.335-.784-.503-1.281-.503-.53 0-.935.162-1.216.487-.292.324-.524.784-.697 1.378h3.827zm4.119-9.985h-.146c-1.146-1.114-2.481-1.957-4.006-2.53-1.524-.584-3.125-.876-4.8-.876a13.61 13.61 0 0 0-4.963.924 10.76 10.76 0 0 0-4.103 2.725h-.146v-1.541c1.049-1.135 2.384-2.006 4.006-2.611 1.611-.616 3.346-.924 5.206-.924 1.816 0 3.509.292 5.076.876 1.568.573 2.86 1.379 3.876 2.416v1.541zm426.849 172.66c.284-1.61.767-2.87 1.449-3.779.692-.91 1.701-1.364 3.027-1.364 1.023 0 1.752.279 2.188.838.445.549.668 1.321.668 2.316 0 .587-.067 1.25-.199 1.989-.284 1.62-.772 2.885-1.464 3.794-.682.909-1.686 1.364-3.012 1.364-1.023 0-1.757-.275-2.202-.824-.436-.559-.654-1.34-.654-2.345 0-.587.066-1.25.199-1.989zm5.868 0c.133-.777.199-1.397.199-1.861 0-.673-.137-1.189-.412-1.549-.265-.369-.725-.554-1.378-.554-.644 0-1.165.175-1.563.526-.398.341-.706.795-.924 1.364-.208.568-.383 1.26-.526 2.074-.132.777-.198 1.402-.198 1.876 0 .672.132 1.193.397 1.563.275.36.739.54 1.393.54.644 0 1.165-.171 1.563-.512.398-.35.701-.81.909-1.378s.389-1.265.54-2.089zm3.239-2.799c.113-.635.398-1.141.852-1.52a2.41 2.41 0 0 1 1.592-.569c.53 0 .952.147 1.264.441.322.293.483.696.483 1.208a2.59 2.59 0 0 1-.042.44c-.114.635-.403 1.146-.867 1.535a2.39 2.39 0 0 1-1.577.568c-.531 0-.957-.147-1.279-.441-.313-.293-.469-.696-.469-1.207 0-.152.014-.303.043-.455zm8.07-1.961l-7.502 9.918h-1.293l7.517-9.918h1.278zm-5.768.668a1.14 1.14 0 0 0-.839.341c-.227.218-.374.535-.44.952-.029.142-.043.27-.043.384 0 .293.076.521.227.682.152.151.365.227.64.227.322 0 .597-.109.824-.327.227-.227.379-.549.455-.966.019-.085.028-.204.028-.355 0-.303-.076-.535-.227-.696s-.36-.242-.625-.242zm.937 7.289c.114-.644.398-1.155.853-1.534a2.41 2.41 0 0 1 1.591-.569c.521 0 .938.147 1.251.441.322.293.483.696.483 1.208a2.56 2.56 0 0 1-.043.454c-.114.635-.398 1.146-.852 1.535a2.39 2.39 0 0 1-1.578.568c-.53 0-.956-.147-1.278-.44-.313-.294-.469-.697-.469-1.208a2.5 2.5 0 0 1 .042-.455zm2.288-1.293c-.322 0-.597.109-.824.327s-.379.54-.455.966c-.028.142-.042.265-.042.37 0 .293.075.521.227.682.161.151.374.227.639.227.322 0 .597-.109.824-.327s.379-.535.455-.952a1.81 1.81 0 0 0 .028-.369c0-.303-.075-.531-.227-.682-.151-.161-.36-.242-.625-.242zM453.033 16.023l.213-1.179h2.671l-1.776 10.074h-1.307l1.563-8.895h-1.364zm4.252 3.737c.285-1.61.768-2.87 1.45-3.78.691-.909 1.7-1.364 3.026-1.364 1.023 0 1.753.279 2.188.838.446.549.668 1.321.668 2.316 0 .587-.066 1.25-.199 1.989-.284 1.62-.772 2.884-1.463 3.794-.682.909-1.686 1.364-3.013 1.364-1.023 0-1.757-.275-2.202-.824-.436-.559-.654-1.34-.654-2.344 0-.587.067-1.25.199-1.989zm5.869 0c.132-.777.199-1.397.199-1.861 0-.673-.138-1.189-.412-1.549-.266-.37-.725-.554-1.379-.554-.644 0-1.165.175-1.563.526-.398.341-.705.796-.923 1.364-.209.568-.384 1.26-.526 2.075-.133.777-.199 1.402-.199 1.875 0 .673.133 1.194.398 1.563.275.36.739.54 1.392.54.645 0 1.166-.171 1.563-.512.398-.351.701-.81.91-1.378s.388-1.265.54-2.089zm3.054 0c.284-1.61.767-2.87 1.449-3.78.691-.909 1.7-1.364 3.026-1.364 1.023 0 1.753.279 2.188.838.446.549.668 1.321.668 2.316 0 .587-.066 1.25-.199 1.989-.284 1.62-.772 2.884-1.463 3.794-.682.909-1.686 1.364-3.012 1.364-1.023 0-1.758-.275-2.203-.824-.436-.559-.653-1.34-.653-2.344a11.34 11.34 0 0 1 .199-1.989zm5.868 0c.132-.777.199-1.397.199-1.861 0-.673-.138-1.189-.412-1.549-.266-.37-.725-.554-1.379-.554-.644 0-1.165.175-1.563.526-.397.341-.705.796-.923 1.364-.209.568-.384 1.26-.526 2.075-.132.777-.199 1.402-.199 1.875 0 .673.133 1.194.398 1.563.275.36.739.54 1.393.54.644 0 1.165-.171 1.562-.512.398-.351.701-.81.91-1.378s.388-1.265.54-2.089zm3.238-2.799c.114-.635.398-1.141.853-1.52a2.41 2.41 0 0 1 1.591-.568c.531 0 .952.147 1.265.441.322.294.483.696.483 1.208a2.5 2.5 0 0 1-.043.44c-.113.635-.402 1.146-.866 1.535a2.39 2.39 0 0 1-1.578.568c-.53 0-.956-.147-1.278-.44-.313-.294-.469-.696-.469-1.208a2.5 2.5 0 0 1 .042-.455zM483.385 15l-7.502 9.918h-1.293L482.106 15h1.279zm-5.769.668a1.14 1.14 0 0 0-.838.341c-.227.218-.374.535-.441.952-.028.142-.042.27-.042.384 0 .294.076.521.227.682.152.152.365.227.64.227a1.15 1.15 0 0 0 .824-.327c.227-.227.379-.549.454-.966.019-.085.029-.204.029-.355 0-.303-.076-.535-.228-.696s-.36-.242-.625-.242zm.938 7.289c.114-.644.398-1.156.853-1.535a2.41 2.41 0 0 1 1.591-.568c.521 0 .938.147 1.25.44.322.294.483.696.483 1.208a2.66 2.66 0 0 1-.042.455c-.114.635-.398 1.146-.853 1.535a2.39 2.39 0 0 1-1.577.568c-.53 0-.957-.147-1.279-.441-.312-.294-.469-.696-.469-1.208a2.5 2.5 0 0 1 .043-.455zm2.288-1.293c-.322 0-.597.109-.824.327s-.379.54-.455.966a1.88 1.88 0 0 0-.043.369c0 .294.076.521.228.682.161.152.374.227.639.227.322 0 .597-.109.824-.327s.379-.535.455-.952a1.81 1.81 0 0 0 .028-.369c0-.303-.076-.53-.227-.682-.152-.161-.36-.241-.625-.241zm-6.166 101.695c0 1.844-.424 3.249-1.27 4.214-.829.964-1.912 1.447-3.249 1.447-.389 0-.753-.034-1.091-.102-1.185-.203-2.243-.719-3.174-1.548s-1.59-1.938-1.98-3.326l-7.057 2.869v-4.9l6.727-2.513v-1.04l-6.727-1.193v-4.341l17.821 3.147v7.286zm-5.788 1.117l.533.051c.541 0 .956-.178 1.244-.534.304-.338.457-.846.457-1.523v-2.69l-4.468-.787v2.69c0 .796.195 1.422.584 1.879.389.474.939.778 1.65.914zm-12.21 13.488c0-1.506.313-2.835.939-3.986.626-1.133 1.506-2.013 2.64-2.64s2.437-.939 3.909-.939c2.082 0 3.935.449 5.56 1.346 1.641.896 2.919 2.14 3.833 3.731.913 1.608 1.37 3.427 1.37 5.458 0 1.523-.313 2.86-.939 4.011-.609 1.15-1.481 2.039-2.614 2.665-1.117.626-2.404.939-3.859.939-2.081 0-3.952-.448-5.61-1.345-1.642-.897-2.928-2.149-3.858-3.757-.914-1.608-1.371-3.436-1.371-5.483zm4.011.66c0 1.117.287 2.098.863 2.944a5.67 5.67 0 0 0 2.31 1.955c.981.474 2.039.711 3.173.711 1.218 0 2.174-.339 2.868-1.016s1.041-1.624 1.041-2.843c0-1.117-.288-2.107-.863-2.97-.575-.846-1.345-1.506-2.31-1.98-.948-.457-1.997-.685-3.148-.685-1.218 0-2.183.338-2.894 1.015-.694.677-1.04 1.633-1.04 2.869zm13.987 18.306l-17.821-3.148v-4.341l17.821 3.148v4.341z" fill="#9d9d9d"/><path stroke="#fff" stroke-opacity=".29" stroke-width="3.019" stroke-dasharray="10.06 10.06" d="M444.106 238.346V9.918"/><defs><filter id="A" x="134.489" y="17.792" width="303.569" height="220.04" filterUnits="userSpaceOnUse" color-interpolation-filters="sRGB"><feFlood flood-opacity="0" result="A"/><feColorMatrix in="SourceAlpha" values="0 0 0 0 0 0 0 0 0 0 0 0 0 0 0 0 0 0 127 0" result="B"/><feOffset/><feGaussianBlur stdDeviation="1.509"/><feComposite in2="B" operator="out"/><feColorMatrix values="0 0 0 0 0.215686 0 0 0 0 0.65098 0 0 0 0 0.968627 0 0 0 1 0"/><feBlend in2="A"/><feBlend in="SourceGraphic"/></filter></defs></svg>