<svg width="76" height="76" viewBox="0 0 76 76" fill="none" xmlns="http://www.w3.org/2000/svg">
<circle cx="38" cy="38" r="37.5" stroke="#37A6F7"/>
<path d="M53.6371 44.7313C53.6355 49.2726 50.4443 53.0683 46.1821 54L45.1729 50.9723C47.0774 50.6615 48.6961 49.5004 49.6269 47.8915H45.7278C43.9805 47.8915 42.5641 46.4751 42.5641 44.7278V38.4004C42.5641 36.6531 43.9805 35.2367 45.7278 35.2367H50.3755C49.597 28.9942 44.2719 24.1637 37.8185 24.1637C31.3652 24.1637 26.04 28.9942 25.2616 35.2367H29.9093C31.6565 35.2367 33.073 36.6531 33.073 38.4004V44.7278C33.073 46.4751 31.6565 47.8915 29.9093 47.8915H25.1637C23.4164 47.8915 22 46.4751 22 44.7278V36.8185C22 28.0822 29.0822 21 37.8185 21C46.5548 21 53.6371 28.0822 53.6371 36.8185V38.3983V38.4004V44.7278V44.7313Z" fill="#1892EB"/>
</svg>
