<svg width="76" height="76" viewBox="0 0 76 76" fill="none" xmlns="http://www.w3.org/2000/svg">
<circle cx="38" cy="38" r="37.5" stroke="#37A6F7"/>
<path d="M38.8333 34.6667C41.2265 34.6667 43.1667 32.7266 43.1667 30.3333C43.1667 27.9401 41.2265 26 38.8333 26C36.4401 26 34.5 27.9401 34.5 30.3333C34.5 32.7266 36.4401 34.6667 38.8333 34.6667ZM31.7917 37.9167C33.2874 37.9167 34.5 36.7041 34.5 35.2083C34.5 33.7126 33.2874 32.5 31.7917 32.5C30.2959 32.5 29.0833 33.7126 29.0833 35.2083C29.0833 36.7041 30.2959 37.9167 31.7917 37.9167ZM48.5833 35.2083C48.5833 36.7041 47.3708 37.9167 45.875 37.9167C44.3792 37.9167 43.1667 36.7041 43.1667 35.2083C43.1667 33.7126 44.3792 32.5 45.875 32.5C47.3708 32.5 48.5833 33.7126 48.5833 35.2083ZM38.8333 35.75C41.8248 35.75 44.25 38.1751 44.25 41.1667V47.6667H33.4167V41.1667C33.4167 38.1751 35.8418 35.75 38.8333 35.75ZM31.25 41.1666C31.25 40.4159 31.3591 39.6907 31.5622 39.0061L31.3785 39.0221C29.4788 39.2279 28 40.8371 28 42.7916V47.6666H31.25V41.1666ZM49.6667 47.6666V42.7916C49.6667 40.7743 48.0914 39.1249 46.1044 39.0061C46.3076 39.6907 46.4167 40.4159 46.4167 41.1666V47.6666H49.6667Z" fill="#37A6F7"/>
</svg>
