<svg width="76" height="76" viewBox="0 0 76 76" fill="none" xmlns="http://www.w3.org/2000/svg">
<circle cx="38" cy="38" r="37.5" stroke="#37A6F7"/>
<path d="M47.4 50H28.2C27.5373 50 27 49.4628 27 48.8V34.4C27 33.7373 27.5373 33.2 28.2 33.2H47.4C48.0627 33.2 48.6 33.7373 48.6 34.4V48.8C48.6 49.4628 48.0628 50 47.4 50ZM48.6 29.6C48.6 30.2627 48.0627 30.8 47.4 30.8H28.2C27.5373 30.8 27 30.2627 27 29.6V27.2C27 26.5373 27.5373 26 28.2 26H47.4C48.0628 26 48.6 26.5373 48.6 27.2V29.6ZM33 36.8C32.3373 36.8 31.8 37.3373 31.8 38V40.4C31.8 41.0627 32.3373 41.6 33 41.6H35.4C36.0627 41.6 36.6 41.0627 36.6 40.4V38C36.6 37.3373 36.0627 36.8 35.4 36.8H33ZM33 44C32.3373 44 31.8 44.5373 31.8 45.2C31.8 45.8627 32.3373 46.4 33 46.4H42.6C43.2627 46.4 43.8 45.8627 43.8 45.2C43.8 44.5373 43.2627 44 42.6 44H33ZM40.2 38C39.5373 38 39 38.5373 39 39.2C39 39.8627 39.5373 40.4 40.2 40.4H42.6C43.2627 40.4 43.8 39.8627 43.8 39.2C43.8 38.5373 43.2627 38 42.6 38H40.2Z" fill="#37A6F7"/>
</svg>
