<svg width="12" height="12" viewBox="0 0 12 12" fill="none" xmlns="http://www.w3.org/2000/svg">
<path fill-rule="evenodd" clip-rule="evenodd" d="M6.43672 0.60986C6.06648 0.437339 5.63696 0.437338 5.26672 0.609859C5.01041 0.72929 4.82859 0.955362 4.66748 1.21087C4.50551 1.46777 4.32779 1.81697 4.10649 2.25182L4.10648 2.25183L4.09782 2.26886L3.91945 2.61934C3.76769 2.91751 3.72357 2.99566 3.66816 3.05263C3.61101 3.11139 3.54249 3.15834 3.46661 3.1907C3.39304 3.22208 3.30315 3.23575 2.9659 3.27257L2.80398 3.29025L2.78455 3.29237H2.78454C2.25289 3.3504 1.82818 3.39676 1.50664 3.46101C1.18953 3.52438 0.893991 3.61818 0.687116 3.82555C0.391125 4.12224 0.251778 4.53694 0.309801 4.94844C0.350354 5.23605 0.530956 5.4843 0.747343 5.7207C0.966749 5.96037 1.27989 6.24609 1.67189 6.60369L1.68621 6.61676L1.85715 6.77269C2.15409 7.04357 2.23022 7.12019 2.27288 7.20179C2.31692 7.28607 2.34037 7.37922 2.34138 7.47394C2.34237 7.56554 2.31075 7.67006 2.17476 8.05083L2.16834 8.06882L2.16832 8.06887C1.96765 8.63074 1.80872 9.07574 1.71849 9.42193C1.63083 9.75822 1.58172 10.0885 1.696 10.3744C1.8568 10.7768 2.20518 11.0784 2.63176 11.1845C2.93405 11.2597 3.25845 11.1721 3.58408 11.0459C3.91835 10.9164 4.34164 10.7085 4.87533 10.4463L4.8928 10.4377L5.30777 10.2339C5.58757 10.0964 5.66397 10.0626 5.73729 10.0491C5.8129 10.0352 5.89054 10.0352 5.96615 10.0491C6.03947 10.0626 6.11587 10.0964 6.39567 10.2339L6.81064 10.4377L6.82816 10.4463C7.36183 10.7085 7.7851 10.9164 8.11935 11.0459C8.44496 11.1721 8.76938 11.2597 9.07166 11.1845C9.49825 11.0784 9.84665 10.7768 10.0074 10.3744C10.1217 10.0885 10.0726 9.75822 9.98496 9.42193C9.89471 9.07574 9.7358 8.63074 9.53509 8.06882V8.06877L9.52869 8.05083C9.39271 7.67006 9.36109 7.56554 9.36203 7.47394C9.36307 7.37922 9.38651 7.28607 9.43059 7.20179C9.47323 7.12019 9.54934 7.04357 9.8463 6.77269L10.0172 6.61676L10.0316 6.60364V6.60364C10.4236 6.24604 10.7367 5.96037 10.9561 5.7207C11.1725 5.4843 11.3531 5.23605 11.3937 4.94844C11.4517 4.53694 11.3123 4.12224 11.0163 3.82555C10.8094 3.61818 10.5139 3.52438 10.1968 3.46101C9.87525 3.39676 9.45055 3.3504 8.91891 3.29237L8.89945 3.29025L8.73756 3.27257C8.40028 3.23575 8.31038 3.22208 8.23686 3.1907C8.16095 3.15834 8.09244 3.11139 8.0353 3.05263C7.9799 2.99566 7.93577 2.91751 7.78401 2.61933L7.60563 2.26887L7.59695 2.25183C7.37564 1.81697 7.19796 1.46777 7.03597 1.21087C6.87488 0.955362 6.69308 0.729295 6.43672 0.60986Z" fill="#FFC250"/>
</svg>
