<svg width="38" height="24" viewBox="0 0 38 24" fill="none" xmlns="http://www.w3.org/2000/svg">
<path d="M25.665 10.3325C28.4317 10.3325 30.6484 8.09919 30.6484 5.33252C30.6484 2.56585 28.4317 0.33252 25.665 0.33252C22.8984 0.33252 20.665 2.56585 20.665 5.33252C20.665 8.09919 22.8984 10.3325 25.665 10.3325ZM12.3317 10.3325C15.0984 10.3325 17.315 8.09919 17.315 5.33252C17.315 2.56585 15.0984 0.33252 12.3317 0.33252C9.56504 0.33252 7.33171 2.56585 7.33171 5.33252C7.33171 8.09919 9.56504 10.3325 12.3317 10.3325ZM12.3317 13.6659C8.44837 13.6659 0.665039 15.6159 0.665039 19.4992V23.6659H23.9984V19.4992C23.9984 15.6159 16.215 13.6659 12.3317 13.6659ZM25.665 13.6659C25.1817 13.6659 24.6317 13.6992 24.0484 13.7492C25.9817 15.1492 27.3317 17.0325 27.3317 19.4992V23.6659H37.3317V19.4992C37.3317 15.6159 29.5484 13.6659 25.665 13.6659Z" fill="black"/>
</svg>
