<svg width="25" height="25" viewBox="0 0 25 25" fill="none" xmlns="http://www.w3.org/2000/svg">
<path d="M22.4769 6.15045C21.7218 6.48022 20.9221 6.69644 20.1037 6.7921C20.9627 6.28768 21.6086 5.48776 21.9209 4.54181C21.107 5.01556 20.2193 5.34926 19.2949 5.52895C18.9056 5.12121 18.4373 4.79704 17.9186 4.57623C17.4 4.35543 16.8417 4.24261 16.278 4.24466C13.9955 4.24466 12.1451 6.06785 12.1451 8.31411C12.1451 8.63242 12.1814 8.94367 12.2519 9.24082C10.6146 9.16295 9.01153 8.74464 7.54496 8.01257C6.0784 7.2805 4.78054 6.25076 3.73421 4.98904C3.36738 5.60793 3.17458 6.31442 3.17617 7.03385C3.17687 7.70668 3.34522 8.36874 3.66601 8.96018C3.98679 9.55163 4.4499 10.0538 5.01347 10.4214C4.35821 10.4002 3.71711 10.2253 3.14192 9.91067V9.96104C3.14192 11.9333 4.56724 13.5782 6.45591 13.9529C6.10095 14.0471 5.73528 14.0949 5.36804 14.095C5.10111 14.095 4.84223 14.0698 4.5894 14.0194C4.85944 14.8332 5.3762 15.5428 6.06792 16.0494C6.75964 16.5561 7.59198 16.8349 8.44934 16.8469C6.97877 17.9796 5.17345 18.5916 3.31719 18.5865C2.98277 18.5865 2.6544 18.5663 2.33105 18.5301C4.22603 19.7295 6.42327 20.3646 8.66591 20.3613C16.2679 20.3613 20.424 14.1594 20.424 8.7815L20.4099 8.25468C21.2206 7.68422 21.921 6.97124 22.4769 6.15045V6.15045Z" fill="#E2E8F0"/>
</svg>
