<svg width="34" height="35" viewBox="0 0 34 35" fill="none" xmlns="http://www.w3.org/2000/svg">
<circle cx="17" cy="17.9082" r="16.5" stroke="#484848"/>
<path d="M14.1223 15.5315L14.3539 14.2185C14.6736 12.4055 16.4025 11.195 18.2155 11.5147C20.0284 11.8344 21.239 13.5633 20.9192 15.3763L20.6877 16.6893L22.6573 17.0367C23.0199 17.1006 23.262 17.4464 23.198 17.809L21.8087 25.6874C21.7447 26.05 21.399 26.2921 21.0363 26.2282L10.5318 24.3757C10.1692 24.3117 9.92709 23.9659 9.99102 23.6034L11.3804 15.7249C11.4443 15.3623 11.7901 15.1202 12.1527 15.1842L14.1223 15.5315ZM13.8908 16.8446L12.5777 16.613L11.4199 23.1784L20.6114 24.7993L21.7692 18.234L20.4561 18.0024L20.2246 19.3155L18.9115 19.0839L19.143 17.7708L15.2038 17.0762L14.9723 18.3892L13.6592 18.1577L13.8908 16.8446ZM15.4354 15.7631L19.3746 16.4578L19.6062 15.1447C19.798 14.0569 19.0717 13.0196 17.9839 12.8278C16.8961 12.6359 15.8588 13.3622 15.6669 14.45L15.4354 15.7631Z" fill="black"/>
</svg>
