<svg width="35" height="35" viewBox="0 0 35 35" fill="none" xmlns="http://www.w3.org/2000/svg">
<circle cx="17.4082" cy="17.5" r="16.5" stroke="#484848"/>
<path d="M17 10.5605L22.4779 11.7225C22.783 11.7872 23 12.0455 23 12.3437V18.6989C23 19.9755 22.3316 21.1677 21.2188 21.8759L17 24.5605L12.7812 21.8759C11.6684 21.1677 11 19.9755 11 18.6989V12.3437C11 12.0455 11.217 11.7872 11.522 11.7225L17 10.5605ZM17 11.8643L12.3333 12.8542V18.6989C12.3333 19.55 12.7789 20.3448 13.5208 20.8169L17 23.0309L20.4792 20.8169C21.2211 20.3448 21.6667 19.55 21.6667 18.6989V12.8542L17 11.8643ZM19.9683 15.1563L20.9111 16.0562L16.6684 20.106L13.84 17.4062L14.7828 16.5062L16.6679 18.3057L19.9683 15.1563Z" fill="#484848"/>
</svg>
