<svg width="34" height="35" viewBox="0 0 34 35" fill="none" xmlns="http://www.w3.org/2000/svg">
<circle cx="17" cy="17.9727" r="16.5" stroke="#484848"/>
<path d="M22.9482 15.3382C21.7549 11.7774 17.9008 9.85812 14.3399 11.0515C10.779 12.2449 8.85975 16.099 10.0531 19.6599C11.2465 23.2208 15.1006 25.14 18.6615 23.9466C22.2224 22.7532 24.1416 18.8992 22.9482 15.3382ZM24.5601 14.798C26.0518 19.2491 23.6528 24.0668 19.2017 25.5585C14.7506 27.0502 9.93296 24.6511 8.44124 20.2001C6.94952 15.749 9.34857 10.9313 13.7997 9.43962C18.2507 7.9479 23.0684 10.3469 24.5601 14.798ZM16.6294 13.87C17.0112 14.133 17.338 14.4805 17.5784 14.8967L19.0492 14.4038L19.4544 15.6127L17.9835 16.1056C18.1658 17.579 17.2941 19.0261 15.832 19.5161L15.6794 19.5672L19.6819 21.5604L19.1136 22.7017L13.766 20.0388L13.412 18.9824L15.4268 18.3072C16.2164 18.0426 16.719 17.3129 16.7319 16.5251L13.0068 17.7735L12.6017 16.5646L16.3267 15.3162C15.8417 14.6953 15.0009 14.4158 14.2114 14.6804L12.1965 15.3557L11.7914 14.1468L18.2389 11.986L18.6441 13.1949L16.6294 13.87Z" fill="#484848"/>
</svg>
