<svg width="35" height="35" viewBox="0 0 35 35" fill="none" xmlns="http://www.w3.org/2000/svg">
<circle cx="17.4082" cy="17.5" r="16.5" stroke="#484848"/>
<path d="M13.732 9.89509C18.0022 8.05303 22.9572 10.0214 24.7993 14.2917C26.6413 18.5619 24.6729 23.5169 20.4027 25.359C16.1325 27.2011 11.1774 25.2326 9.33537 20.9624C7.4933 16.6922 9.46171 11.7372 13.732 9.89509ZM14.399 11.4415C10.9828 12.9151 9.4081 16.8792 10.8818 20.2953C12.3554 23.7116 16.3194 25.2863 19.7356 23.8126C23.1518 22.3389 24.7266 18.375 23.2529 14.9587C21.7792 11.5426 17.8152 9.96782 14.399 11.4415ZM16.7338 16.8539C18.2802 16.1868 19.68 15.8886 20.9333 15.9594C21.8543 18.0945 20.8701 20.572 18.735 21.493C16.5999 22.4141 14.1224 21.4298 13.2013 19.2947C14.0099 18.3345 15.1874 17.5209 16.7338 16.8539ZM12.6935 14.9285C13.6288 14.525 14.6955 14.8527 15.2551 15.6581L11.4663 17.2925C11.2645 16.3328 11.7581 15.3319 12.6935 14.9285ZM18.1058 12.5937C19.0412 12.1902 20.1079 12.518 20.6675 13.3233L16.8787 14.9577C16.6769 13.998 17.1705 12.9972 18.1058 12.5937Z" fill="#484848"/>
</svg>
