<svg width="34" height="35" viewBox="0 0 34 35" fill="none" xmlns="http://www.w3.org/2000/svg">
<circle cx="17" cy="17.5703" r="16.5" stroke="#484848"/>
<path d="M16.1098 21.3899L16.6714 20.1095C17.1712 18.9701 18.0708 18.0631 19.193 17.5673L20.7388 16.8843C21.2303 16.6672 21.2303 15.9555 20.7388 15.7384L19.2412 15.0767C18.0902 14.5681 17.1745 13.6276 16.6832 12.4493L16.1143 11.0848C15.9032 10.5785 15.2003 10.5785 14.9892 11.0848L14.4203 12.4493C13.929 13.6276 13.0133 14.5681 11.8623 15.0767L10.3647 15.7384C9.87322 15.9555 9.87322 16.6672 10.3647 16.8843L11.9106 17.5673C13.0327 18.0631 13.9323 18.9701 14.4321 20.1095L14.9938 21.3899C15.2096 21.882 15.8939 21.882 16.1098 21.3899ZM21.7327 24.5073L21.8907 24.1469C22.1722 23.5045 22.6794 22.993 23.3121 22.7132L23.7987 22.498C24.0619 22.3816 24.0619 22.0009 23.7987 21.8845L23.3394 21.6813C22.6903 21.3943 22.1741 20.8639 21.8973 20.1996L21.7352 19.8102C21.6221 19.5389 21.2452 19.5389 21.1321 19.8102L20.9699 20.1996C20.6932 20.8639 20.177 21.3943 19.528 21.6813L19.0686 21.8845C18.8054 22.0009 18.8054 22.3816 19.0686 22.498L19.5551 22.7132C20.188 22.993 20.695 23.5045 20.9766 24.1469L21.1346 24.5073C21.2502 24.771 21.6171 24.771 21.7327 24.5073Z" fill="#484848"/>
</svg>
