<svg width="34" height="35" viewBox="0 0 34 35" fill="none" xmlns="http://www.w3.org/2000/svg">
<circle cx="17" cy="17.4727" r="16.5" stroke="#484848"/>
<path d="M12.9395 21.3708L13.483 21.6877C14.3911 22.2172 15.4231 22.5 16.5 22.5C19.8137 22.5 22.5 19.8137 22.5 16.5C22.5 13.1863 19.8137 10.5 16.5 10.5C13.1863 10.5 10.5 13.1863 10.5 16.5C10.5 17.5772 10.7829 18.6096 11.3128 19.5178L11.6295 20.0609L11.1394 21.8621L12.9395 21.3708ZM9.00314 24L10.0171 20.2736C9.37047 19.1652 9 17.8759 9 16.5C9 12.3579 12.3579 9 16.5 9C20.6421 9 24 12.3579 24 16.5C24 20.6421 20.6421 24 16.5 24C15.1246 24 13.8356 23.6298 12.7274 22.9835L9.00314 24ZM13.7935 12.9812C13.8939 12.9742 13.9947 12.9731 14.0952 12.978C14.1358 12.9807 14.1762 12.9854 14.2167 12.9901C14.3361 13.0038 14.4675 13.0766 14.5117 13.1767C14.7354 13.684 14.9525 14.1942 15.1629 14.7072C15.2093 14.8205 15.1814 14.9672 15.093 15.1093C15.0482 15.1821 14.9777 15.2843 14.8961 15.3887C14.8113 15.4973 14.6288 15.6968 14.6288 15.6968C14.6288 15.6968 14.5548 15.7855 14.5827 15.8958C14.5935 15.9375 14.6282 15.9983 14.6596 16.0493C14.677 16.0776 14.6931 16.1029 14.7036 16.1204C14.8955 16.4408 15.1535 16.7657 15.4687 17.0712C15.559 17.1587 15.6466 17.248 15.7408 17.331C16.092 17.6407 16.4894 17.8937 16.9185 18.0812L16.9223 18.0829C16.9857 18.1102 17.0183 18.1251 17.111 18.1645C17.1578 18.1843 17.2057 18.2014 17.2548 18.2143C17.2726 18.219 17.2908 18.2216 17.3091 18.2229C17.4304 18.2302 17.5005 18.1524 17.5304 18.1166C18.0731 17.4593 18.1227 17.4164 18.1265 17.4167V17.4178C18.1978 17.3427 18.3099 17.3166 18.41 17.3228C18.4556 17.3255 18.5011 17.3343 18.5426 17.3533C18.9415 17.5352 19.5936 17.819 19.5936 17.819L20.0297 18.0151C20.1028 18.0503 20.1695 18.1334 20.1727 18.2141C20.1746 18.2642 20.18 18.3452 20.1621 18.4934C20.1386 18.6874 20.0796 18.9211 20.021 19.0435C19.9797 19.1294 19.9263 19.2056 19.8642 19.2701C19.78 19.3575 19.7174 19.4106 19.6162 19.486C19.5545 19.5319 19.5226 19.5535 19.5226 19.5535C19.4184 19.6192 19.3597 19.6521 19.2356 19.7182C19.0425 19.821 18.8292 19.8801 18.6107 19.8913C18.4715 19.8985 18.3326 19.9085 18.1934 19.901C18.1873 19.9007 17.7673 19.8362 17.7673 19.8362C16.7009 19.5557 15.7146 19.0302 14.887 18.3015C14.7178 18.1526 14.5609 17.9914 14.4007 17.8319C13.7339 17.1681 13.2291 16.4523 12.923 15.7752C12.7721 15.4413 12.6765 15.0837 12.675 14.7157C12.6722 14.2605 12.8213 13.8174 13.0985 13.4564C13.1532 13.3852 13.2051 13.3114 13.2946 13.2269C13.3894 13.1374 13.4497 13.0893 13.5147 13.0561C13.6013 13.0118 13.6965 12.9881 13.7935 12.9812Z" fill="#484848"/>
</svg>
