<svg width="34" height="35" viewBox="0 0 34 35" fill="none" xmlns="http://www.w3.org/2000/svg">
<circle cx="17" cy="17.9082" r="16.5" stroke="#484848"/>
<path d="M21.3936 9.89845C21.7651 9.79143 22.1488 9.99149 22.2508 10.3453L23.2657 13.8687C22.337 14.1362 21.7907 15.0701 22.0455 15.9546C22.3003 16.8391 23.2597 17.3393 24.1885 17.0718L25.2034 20.5951C25.3054 20.949 25.0868 21.3225 24.7153 21.4295L12.6077 24.9174C12.2362 25.0244 11.8524 24.8244 11.7505 24.4705L10.7355 20.9472C11.6643 20.6796 12.2106 19.7457 11.9558 18.8612C11.701 17.9767 10.7415 17.4765 9.81281 17.7441L8.79782 14.2207C8.6959 13.8669 8.91444 13.4933 9.28593 13.3863L21.3936 9.89845ZM21.09 11.3734L10.3277 14.4738L10.8754 16.3751L10.9952 16.3968C12.0307 16.6064 12.9104 17.319 13.2587 18.3389L13.3011 18.4737C13.6156 19.5654 13.252 20.6989 12.4534 21.4589L12.3634 21.5404L12.9113 23.4424L23.6736 20.3421L23.1257 18.4401L23.0061 18.419C21.9706 18.2094 21.0909 17.4968 20.7426 16.4769L20.7002 16.3422C20.3857 15.2504 20.7492 14.1169 21.5478 13.3569L21.6377 13.2748L21.09 11.3734ZM19.1376 14.711L20.2449 18.5547L14.8637 20.1048L13.7564 16.2612L19.1376 14.711Z" fill="#484848"/>
</svg>
