<svg width="25" height="24" viewBox="0 0 25 24" fill="none" xmlns="http://www.w3.org/2000/svg">
<path d="M13.5 1L13.501 4.06201C17.1192 4.51365 19.9869 7.38163 20.4381 11H23.5V13L20.438 13.001C19.9864 16.6189 17.1189 19.4864 13.501 19.938L13.5 23H11.5V19.9381C7.88163 19.4869 5.01365 16.6192 4.56201 13.001L1.5 13V11H4.56189C5.01312 7.38129 7.88129 4.51312 11.5 4.06189V1H13.5ZM12.5 10C11.3954 10 10.5 10.8954 10.5 12C10.5 13.1046 11.3954 14 12.5 14C13.6046 14 14.5 13.1046 14.5 12C14.5 10.8954 13.6046 10 12.5 10Z" fill="black"/>
</svg>
