<svg width="100" height="100" viewBox="0 0 100 100" fill="none" xmlns="http://www.w3.org/2000/svg">
<g filter="url(#filter0_d_2630_5394)">
<circle cx="49.7566" cy="45.9189" r="31.7566" fill="white"/>
</g>
<path d="M56.584 50.2059C60.1977 46.3918 60.1354 40.37 56.3974 36.632C52.5962 32.8307 46.4332 32.8307 42.632 36.632C38.894 40.37 38.8318 46.3918 42.4454 50.2059C43.9215 47.857 46.5358 46.2957 49.5147 46.2957C52.4936 46.2957 55.1079 47.857 56.584 50.2059ZM49.5147 61.2131L40.6655 52.364C35.7782 47.4766 35.7782 39.5528 40.6655 34.6655C45.5528 29.7782 53.4766 29.7782 58.364 34.6655C63.2512 39.5528 63.2512 47.4766 58.364 52.364L49.5147 61.2131ZM49.5147 44.9052C47.2107 44.9052 45.3431 43.0376 45.3431 40.7337C45.3431 38.4298 47.2107 36.5621 49.5147 36.5621C51.8187 36.5621 53.6863 38.4298 53.6863 40.7337C53.6863 43.0376 51.8187 44.9052 49.5147 44.9052Z" fill="#37A6F7"/>
<defs>
<filter id="filter0_d_2630_5394" x="0.0302563" y="0.420662" width="99.4532" height="99.4528" filterUnits="userSpaceOnUse" color-interpolation-filters="sRGB">
<feFlood flood-opacity="0" result="BackgroundImageFix"/>
<feColorMatrix in="SourceAlpha" type="matrix" values="0 0 0 0 0 0 0 0 0 0 0 0 0 0 0 0 0 0 127 0" result="hardAlpha"/>
<feOffset dy="4.22817"/>
<feGaussianBlur stdDeviation="8.98487"/>
<feComposite in2="hardAlpha" operator="out"/>
<feColorMatrix type="matrix" values="0 0 0 0 0 0 0 0 0 0 0 0 0 0 0 0 0 0 0.14 0"/>
<feBlend mode="normal" in2="BackgroundImageFix" result="effect1_dropShadow_2630_5394"/>
<feBlend mode="normal" in="SourceGraphic" in2="effect1_dropShadow_2630_5394" result="shape"/>
</filter>
</defs>
</svg>
