<svg width="100" height="101" viewBox="0 0 100 101" fill="none" xmlns="http://www.w3.org/2000/svg">
<g filter="url(#filter0_d_2630_5404)">
<circle cx="49.7566" cy="46.2434" r="31.7566" fill="white"/>
</g>
<path d="M49.5 32C56.9558 32 63 38.0442 63 45.5C63 52.9558 56.9558 59 49.5 59C47.0243 59 44.7042 58.3336 42.7093 57.1703L36.0056 59L37.8308 52.2925C36.6668 50.2974 36 47.9766 36 45.5C36 38.0442 42.0441 32 49.5 32ZM44.6283 39.1662C44.4536 39.1785 44.2824 39.2212 44.1264 39.3009C44.0095 39.3608 43.9009 39.4473 43.7302 39.6084C43.5691 39.7605 43.4757 39.8934 43.3774 40.0215C42.8783 40.6713 42.61 41.469 42.615 42.2883C42.6177 42.9507 42.7898 43.5943 43.0615 44.1954C43.6124 45.4141 44.5211 46.7026 45.7213 47.8975C46.0096 48.1845 46.2921 48.4746 46.5966 48.7427C48.0863 50.0544 49.8615 51.0002 51.7811 51.5051C51.7811 51.5051 52.5371 51.6212 52.5482 51.6218C52.7986 51.6353 53.0486 51.6173 53.2993 51.6044C53.6926 51.5842 54.0765 51.4778 54.424 51.2927C54.6474 51.1738 54.7531 51.1147 54.9406 50.9964C54.9406 50.9964 54.9982 50.9575 55.1091 50.8749C55.2914 50.7391 55.404 50.6435 55.5556 50.4861C55.6673 50.37 55.7635 50.2328 55.8377 50.0783C55.9433 49.8579 56.0495 49.4374 56.0918 49.0882C56.1241 48.8214 56.1143 48.6756 56.1108 48.5853C56.105 48.44 55.985 48.2906 55.8535 48.2271L55.0685 47.8742C55.0685 47.8742 53.8947 47.3634 53.1767 47.0359C53.1019 47.0017 53.0201 46.9859 52.9379 46.981C52.7578 46.9699 52.556 47.0169 52.4276 47.1521C52.4209 47.1494 52.3315 47.2267 51.3548 48.4099C51.3009 48.4743 51.1747 48.6143 50.9564 48.6012C50.9235 48.5989 50.8906 48.5942 50.8587 48.5858C50.7702 48.5625 50.6841 48.5317 50.5999 48.4961C50.4329 48.4252 50.3743 48.3983 50.2602 48.3492C49.4808 48.0087 48.7656 47.5532 48.1334 46.9958C47.9639 46.8465 47.8062 46.6857 47.6436 46.5282C47.0764 45.9783 46.6119 45.3935 46.2665 44.8166C46.2476 44.7852 46.2185 44.7397 46.1872 44.6888C46.1307 44.5969 46.0684 44.4875 46.0488 44.4124C45.9986 44.2139 46.1318 44.0543 46.1318 44.0543C46.1318 44.0543 46.4603 43.6951 46.613 43.4997C46.7599 43.3117 46.8867 43.1278 46.9674 42.9967C47.1264 42.741 47.1768 42.4768 47.0932 42.273C46.7145 41.3496 46.3237 40.4312 45.921 39.5181C45.8415 39.3379 45.6051 39.2069 45.3901 39.1821C45.3172 39.1737 45.2445 39.1652 45.1714 39.1604C44.9904 39.1516 44.809 39.1535 44.6283 39.1662Z" fill="#37A6F7"/>
<defs>
<filter id="filter0_d_2630_5404" x="0.0302563" y="0.745247" width="99.4532" height="99.4528" filterUnits="userSpaceOnUse" color-interpolation-filters="sRGB">
<feFlood flood-opacity="0" result="BackgroundImageFix"/>
<feColorMatrix in="SourceAlpha" type="matrix" values="0 0 0 0 0 0 0 0 0 0 0 0 0 0 0 0 0 0 127 0" result="hardAlpha"/>
<feOffset dy="4.22817"/>
<feGaussianBlur stdDeviation="8.98487"/>
<feComposite in2="hardAlpha" operator="out"/>
<feColorMatrix type="matrix" values="0 0 0 0 0 0 0 0 0 0 0 0 0 0 0 0 0 0 0.14 0"/>
<feBlend mode="normal" in2="BackgroundImageFix" result="effect1_dropShadow_2630_5404"/>
<feBlend mode="normal" in="SourceGraphic" in2="effect1_dropShadow_2630_5404" result="shape"/>
</filter>
</defs>
</svg>
