<svg width="34" height="35" viewBox="0 0 34 35" fill="none" xmlns="http://www.w3.org/2000/svg">
<circle cx="17" cy="17.625" r="16.5" stroke="#484848"/>
<path d="M15.8354 21.9524H19.117C19.2239 20.9797 19.7203 20.1767 20.5262 19.2992C20.6169 19.2005 21.199 18.598 21.2681 18.512C21.9543 17.6563 22.3333 16.5974 22.3333 15.4762C22.3333 12.7937 20.1587 10.619 17.4762 10.619C14.7937 10.619 12.619 12.7937 12.619 15.4762C12.619 16.5968 12.9977 17.6552 13.6833 18.5106C13.7524 18.5969 14.3359 19.201 14.4255 19.2986C15.2319 20.1766 15.7285 20.9797 15.8354 21.9524ZM19.0952 23.5714H15.8571V24.381H19.0952V23.5714ZM12.4199 19.5232C11.5314 18.4145 11 17.0074 11 15.4762C11 11.8995 13.8995 9 17.4762 9C21.0529 9 23.9524 11.8995 23.9524 15.4762C23.9524 17.0082 23.4204 18.416 22.5311 19.5249C22.029 20.151 20.7143 21.1429 20.7143 22.3571V24.381C20.7143 25.2752 19.9894 26 19.0952 26H15.8571C14.963 26 14.2381 25.2752 14.2381 24.381V22.3571C14.2381 21.1429 12.9223 20.1501 12.4199 19.5232ZM18.2857 15.4801H20.3095L16.6667 20.3372V17.0991H14.6429L18.2857 12.2381V15.4801Z" fill="#484848"/>
</svg>
