<svg width="34" height="35" viewBox="0 0 34 35" fill="none" xmlns="http://www.w3.org/2000/svg">
<circle cx="17" cy="17.125" r="16.5" stroke="#484848"/>
<path d="M17.5 10C21.6421 10 25 13.3579 25 17.5C25 21.6421 21.6421 25 17.5 25C13.3579 25 10 21.6421 10 17.5C10 13.3579 13.3579 10 17.5 10ZM20.5032 18.1583C20.2442 17.765 20.0573 17.4809 19.3467 17.5936C18.0038 17.8067 17.8549 18.0418 17.7908 18.4281L17.7727 18.5457L17.7545 18.6698C17.6812 19.1821 17.684 19.3759 17.9192 19.6231C18.8681 20.6187 19.4365 21.3363 19.6087 21.756C19.6928 21.9613 19.9089 22.5813 19.7602 23.1945C20.6779 22.8299 21.4867 22.2499 22.124 21.5169C22.2066 21.2366 22.2663 20.8875 22.2663 20.4639V20.3854C22.2663 19.6935 22.2663 19.378 21.7773 19.0985C21.571 18.9813 21.417 18.9108 21.2937 18.8548C21.0183 18.7296 20.8359 18.6473 20.5899 18.2874C20.5605 18.2446 20.5319 18.2018 20.5032 18.1583ZM17.5 11.375C15.7619 11.375 14.193 12.0989 13.0781 13.2617C13.2109 13.3539 13.3265 13.4834 13.406 13.6619C13.559 14.0052 13.559 14.3584 13.559 14.6707C13.5587 14.9172 13.5583 15.1504 13.6374 15.3198C13.7458 15.551 14.2123 15.6492 14.6241 15.7355C14.7712 15.7665 14.923 15.7981 15.061 15.8363C15.4405 15.9417 15.7342 16.2824 15.9695 16.5559C16.0672 16.6698 16.2114 16.8372 16.2837 16.8788C16.3214 16.8517 16.4425 16.7206 16.5024 16.5051C16.548 16.341 16.5351 16.1948 16.4679 16.1157C16.0486 15.6208 16.0714 14.6674 16.201 14.3162C16.4051 13.762 17.0429 13.8029 17.509 13.8332C17.6828 13.8444 17.847 13.8552 17.9693 13.8398C18.4361 13.7812 18.5797 13.0715 18.6812 12.9325C18.9003 12.6324 19.5705 12.1803 19.9868 11.9009C19.2269 11.5629 18.3854 11.375 17.5 11.375Z" fill="#484848"/>
</svg>
