<svg width="34" height="35" viewBox="0 0 34 35" fill="none" xmlns="http://www.w3.org/2000/svg">
<circle cx="17" cy="17.625" r="16.5" stroke="#484848"/>
<path d="M10.6842 18C10.6842 18.2639 11.0724 18.7229 11.973 19.1731C13.1381 19.7557 14.791 20.1053 16.5789 20.1053C18.3669 20.1053 20.0197 19.7557 21.1848 19.1731C22.0855 18.7229 22.4737 18.2639 22.4737 18V16.1715C21.0842 17.0301 18.9598 17.5789 16.5789 17.5789C14.1981 17.5789 12.0737 17.0301 10.6842 16.1715V18ZM22.4737 20.3821C21.0842 21.2406 18.9598 21.7895 16.5789 21.7895C14.1981 21.7895 12.0737 21.2406 10.6842 20.3821V22.2105C10.6842 22.4744 11.0724 22.9334 11.973 23.3837C13.1381 23.9662 14.791 24.3158 16.5789 24.3158C18.3669 24.3158 20.0197 23.9662 21.1848 23.3837C22.0855 22.9334 22.4737 22.4744 22.4737 22.2105V20.3821ZM9 22.2105V13.7895C9 11.6966 12.3932 10 16.5789 10C20.7647 10 24.1579 11.6966 24.1579 13.7895V22.2105C24.1579 24.3034 20.7647 26 16.5789 26C12.3932 26 9 24.3034 9 22.2105ZM16.5789 15.8947C18.3669 15.8947 20.0197 15.5452 21.1848 14.9626C22.0855 14.5123 22.4737 14.0534 22.4737 13.7895C22.4737 13.5255 22.0855 13.0666 21.1848 12.6163C20.0197 12.0338 18.3669 11.6842 16.5789 11.6842C14.791 11.6842 13.1381 12.0338 11.973 12.6163C11.0724 13.0666 10.6842 13.5255 10.6842 13.7895C10.6842 14.0534 11.0724 14.5123 11.973 14.9626C13.1381 15.5452 14.791 15.8947 16.5789 15.8947Z" fill="#484848"/>
</svg>
