<svg width="35" height="35" viewBox="0 0 35 35" fill="none" xmlns="http://www.w3.org/2000/svg">
<circle cx="17.0742" cy="17.3262" r="16.5" stroke="#484848"/>
<path d="M22.6316 17.1244L26 25.5455H24.3502L23.4308 23.2488H20.2997L19.3818 25.5455H17.7328L21.1005 17.1244H22.6316ZM16.1244 11V12.5311H20.7177V14.0622L19.2113 14.0627C18.6067 15.8736 17.6546 17.5115 16.4394 18.8859C16.9928 19.3795 17.592 19.8173 18.2278 20.1927L17.6531 21.63C16.8315 21.1651 16.0627 20.6095 15.3586 19.976C13.9916 21.2063 12.3802 22.1428 10.6116 22.6926L10.201 21.2157C11.7137 20.738 13.097 19.9368 14.2797 18.8868C13.4165 17.9115 12.6861 16.8028 12.1186 15.5935L13.833 15.5936C14.2643 16.3886 14.7769 17.1269 15.3586 17.7958C16.2992 16.7149 17.0588 15.4526 17.5862 14.063L10 14.0622V12.5311H14.5933V11H16.1244ZM21.866 19.3332L20.9114 21.7177H22.8191L21.866 19.3332Z" fill="#484848"/>
</svg>
