<svg width="35" height="35" viewBox="0 0 35 35" fill="none" xmlns="http://www.w3.org/2000/svg">
<circle cx="17.0742" cy="17.3262" r="16.5" stroke="#484848"/>
<path d="M17.0703 11.8609C15.1463 11.8609 13.4479 12.8313 12.4394 14.3109H14.2703V15.7109H10.0703V11.5109H11.4703V13.2605C12.747 11.5611 14.7797 10.4609 17.0703 10.4609C20.9363 10.4609 24.0703 13.5949 24.0703 17.4609H22.6703C22.6703 14.3681 20.1631 11.8609 17.0703 11.8609ZM11.4703 17.4609C11.4703 20.5537 13.9775 23.0609 17.0703 23.0609C18.9943 23.0609 20.6927 22.0905 21.7012 20.6109H19.8703V19.2109H24.0703V23.4109H22.6703V21.6614C21.3937 23.3607 19.361 24.4609 17.0703 24.4609C13.2043 24.4609 10.0703 21.3269 10.0703 17.4609H11.4703Z" fill="#484848"/>
</svg>
