<svg width="35" height="35" viewBox="0 0 35 35" fill="none" xmlns="http://www.w3.org/2000/svg">
<circle cx="17.0742" cy="17.3262" r="16.5" stroke="#484848"/>
<path d="M21.0884 19.8743C23.1344 17.7148 23.0992 14.3052 20.9827 12.1888C18.8305 10.0366 15.341 10.0366 13.1888 12.1888C11.0724 14.3052 11.0372 17.7148 13.0832 19.8743C13.9189 18.5444 15.3991 17.6604 17.0858 17.6604C18.7724 17.6604 20.2526 18.5444 21.0884 19.8743ZM17.0858 26.1066L12.0754 21.0962C9.30821 18.329 9.30821 13.8425 12.0754 11.0754C14.8425 8.30821 19.329 8.30821 22.0962 11.0754C24.8634 13.8425 24.8634 18.329 22.0962 21.0962L17.0858 26.1066ZM17.0858 16.8731C15.7813 16.8731 14.7239 15.8157 14.7239 14.5112C14.7239 13.2067 15.7813 12.1492 17.0858 12.1492C18.3903 12.1492 19.4477 13.2067 19.4477 14.5112C19.4477 15.8157 18.3903 16.8731 17.0858 16.8731Z" fill="#484848"/>
</svg>
