<svg width="34" height="35" viewBox="0 0 34 35" fill="none" xmlns="http://www.w3.org/2000/svg">
<circle cx="17" cy="17.9023" r="16.5" stroke="#484848"/>
<path d="M17.561 11.9512C17.561 12.2329 17.4385 12.4861 17.2439 12.6602V13.8537H20.4146C21.4654 13.8537 22.3171 14.7054 22.3171 15.7561V22.0976C22.3171 23.1483 21.4654 24 20.4146 24H12.8049C11.7542 24 10.9024 23.1483 10.9024 22.0976V15.7561C10.9024 14.7054 11.7542 13.8537 12.8049 13.8537H15.9756V12.6602C15.781 12.4861 15.6585 12.2329 15.6585 11.9512C15.6585 11.4259 16.0844 11 16.6098 11C17.1351 11 17.561 11.4259 17.561 11.9512ZM9 17.0244H10.2683V20.8293H9V17.0244ZM24.2195 17.0244H22.9512V20.8293H24.2195V17.0244ZM14.7073 19.878C15.2327 19.878 15.6585 19.4522 15.6585 18.9268C15.6585 18.4015 15.2327 17.9756 14.7073 17.9756C14.182 17.9756 13.7561 18.4015 13.7561 18.9268C13.7561 19.4522 14.182 19.878 14.7073 19.878ZM19.4634 18.9268C19.4634 18.4015 19.0375 17.9756 18.5122 17.9756C17.9869 17.9756 17.561 18.4015 17.561 18.9268C17.561 19.4522 17.9869 19.878 18.5122 19.878C19.0375 19.878 19.4634 19.4522 19.4634 18.9268Z" fill="#484848"/>
</svg>
