<svg width="34" height="35" viewBox="0 0 34 35" fill="none" xmlns="http://www.w3.org/2000/svg">
<circle cx="17" cy="17.9023" r="16.5" stroke="#484848"/>
<path d="M13.5078 21.8424L17.6047 23.4511C16.8245 24.3056 15.7692 24.8201 14.6806 24.8767C13.9214 24.0945 13.4981 22.9994 13.5078 21.8424ZM20.3651 20.7166L20.9678 22.6205L20.486 23.8476L11.1266 20.1724L11.6084 18.9453L13.3455 17.9603L14.797 14.2639C15.668 12.0458 17.874 10.734 20.1934 10.8376C21.9636 12.3399 22.6876 14.8021 21.8166 17.0203L20.3651 20.7166ZM17.8067 16.9156C18.4528 17.1694 19.2005 16.8049 19.4767 16.1015C19.7529 15.3981 19.453 14.6222 18.8069 14.3685C18.1607 14.1147 17.4131 14.4793 17.1369 15.1827C16.8607 15.8861 17.1605 16.6619 17.8067 16.9156Z" fill="#484848"/>
</svg>
