<svg width="35" height="35" viewBox="0 0 35 35" fill="none" xmlns="http://www.w3.org/2000/svg">
<circle cx="17.4082" cy="17.5" r="16.5" stroke="#484848"/>
<path d="M16.1541 20.792C16.1541 20.792 20.7855 19.9 23.3503 21.1788L23.9797 20.9591C24.3273 20.8378 24.5082 20.4502 24.3836 20.0934L23.0165 16.1768C23.5094 15.8439 23.734 15.198 23.5239 14.596C23.3137 13.994 22.7359 13.6282 22.1429 13.6743L20.7758 9.75765C20.6513 9.40089 20.2685 9.21003 19.9209 9.33137L19.2915 9.55108C18.0797 12.1482 13.8992 14.3321 13.8992 14.3321L11.3815 15.2109C10.6863 15.4536 10.3246 16.2288 10.5736 16.9423L11.9266 20.8182C12.1757 21.5318 12.9412 21.9135 13.6364 21.6708L14.2658 21.4511L16.0227 24.4613L17.2815 24.0219L16.1541 20.792ZM15.5326 14.9658C15.9297 14.721 16.4153 14.4046 16.9287 14.031C17.8737 13.3434 19.0407 12.3726 19.872 11.2142L22.7697 19.5157C21.3981 19.1263 19.8805 19.0926 18.7129 19.1424C18.0786 19.1695 17.5015 19.224 17.0384 19.2794L15.5326 14.9658ZM11.8325 16.5029L14.3502 15.6241L15.7031 19.5L13.1854 20.3788L11.8325 16.5029Z" fill="#484848"/>
</svg>
