<svg width="34" height="35" viewBox="0 0 34 35" fill="none" xmlns="http://www.w3.org/2000/svg">
<circle cx="17" cy="17.5703" r="16.5" stroke="#484848"/>
<path d="M19.6628 20.0384V19.3717H17.6628V17.3717H19.6628V18.7051H20.9961V20.0384H20.3294V21.3717H18.9961V22.7051H17.6628V20.7051H18.9961V20.0384H19.6628ZM22.9961 22.7051H20.3294V21.3717H21.6628V20.0384H22.9961V22.7051ZM10.9961 10.7051H16.3294V16.0384H10.9961V10.7051ZM12.3294 12.0384V14.7051H14.9961V12.0384H12.3294ZM17.6628 10.7051H22.9961V16.0384H17.6628V10.7051ZM18.9961 12.0384V14.7051H21.6628V12.0384H18.9961ZM10.9961 17.3717H16.3294V22.7051H10.9961V17.3717ZM12.3294 18.7051V21.3717H14.9961V18.7051H12.3294ZM20.9961 17.3717H22.9961V18.7051H20.9961V17.3717ZM12.9961 12.7051H14.3294V14.0384H12.9961V12.7051ZM12.9961 19.3717H14.3294V20.7051H12.9961V19.3717ZM19.6628 12.7051H20.9961V14.0384H19.6628V12.7051Z" fill="#484848"/>
</svg>
