<svg width="34" height="35" viewBox="0 0 34 35" fill="none" xmlns="http://www.w3.org/2000/svg">
<circle cx="17" cy="17.4727" r="16.5" stroke="#484848"/>
<path d="M17 10.6C19.1989 10.6 21.1399 11.709 22.2925 13.4H20.2V15H25V10.2H23.4V12.1995C21.941 10.2573 19.6179 9 17 9C12.5817 9 9 12.5817 9 17H10.6C10.6 13.4654 13.4654 10.6 17 10.6ZM23.4 17C23.4 20.5346 20.5346 23.4 17 23.4C14.8012 23.4 12.8601 22.291 11.7075 20.6H13.8V19H9V23.8H10.6V21.8005C12.059 23.7426 14.3821 25 17 25C21.4182 25 25 21.4182 25 17H23.4Z" fill="#484848"/>
</svg>
