<svg width="34" height="35" viewBox="0 0 34 35" fill="none" xmlns="http://www.w3.org/2000/svg">
<circle cx="16.998" cy="17.2402" r="16.5" stroke="#484848"/>
<path d="M11.2549 21.0749V13.6463H10V12.4082H11.8823C12.2288 12.4082 12.5097 12.6854 12.5097 13.0273V20.4558H20.3141L21.5689 15.5034H13.7646V14.2653H22.3726C22.7191 14.2653 23 14.5425 23 14.8844C23 14.935 22.9937 14.9854 22.9812 15.0345L21.4126 21.225C21.3429 21.5006 21.0919 21.6939 20.804 21.6939H11.8823C11.5358 21.6939 11.2549 21.4168 11.2549 21.0749ZM12.5097 25.4082C11.8167 25.4082 11.2549 24.8539 11.2549 24.1701C11.2549 23.4863 11.8167 22.932 12.5097 22.932C13.2028 22.932 13.7646 23.4863 13.7646 24.1701C13.7646 24.8539 13.2028 25.4082 12.5097 25.4082ZM20.039 25.4082C19.3459 25.4082 18.7841 24.8539 18.7841 24.1701C18.7841 23.4863 19.3459 22.932 20.039 22.932C20.7321 22.932 21.2939 23.4863 21.2939 24.1701C21.2939 24.8539 20.7321 25.4082 20.039 25.4082Z" fill="black"/>
</svg>
