<svg width="34" height="35" viewBox="0 0 34 35" fill="none" xmlns="http://www.w3.org/2000/svg">
<circle cx="17" cy="17.5605" r="16.5" stroke="#484848"/>
<path d="M17.2899 13.3333H23.3C23.6866 13.3333 24 13.6318 24 14V23.3333C24 23.7015 23.6866 24 23.3 24H10.7C10.3134 24 10 23.7015 10 23.3333V12.6667C10 12.2985 10.3134 12 10.7 12H15.8899L17.2899 13.3333ZM19.1 18.6667V18C19.1 16.8954 18.1598 16 17 16C15.8402 16 14.9 16.8954 14.9 18V18.6667H14.2V21.3333H19.8V18.6667H19.1ZM17.7 18.6667H16.3V18C16.3 17.6318 16.6134 17.3333 17 17.3333C17.3866 17.3333 17.7 17.6318 17.7 18V18.6667Z" fill="#484848"/>
</svg>
