<svg width="34" height="35" viewBox="0 0 34 35" fill="none" xmlns="http://www.w3.org/2000/svg">
<circle cx="17" cy="17.873" r="16.5" stroke="#484848"/>
<path d="M10.5581 12.1541L18.729 11.0033C18.9068 10.9782 19.0713 11.1 19.0967 11.2751C19.0989 11.2901 19.1 11.3053 19.1 11.3205V24.6796C19.1 24.8565 18.9545 25 18.775 25C18.7596 25 18.7443 24.9989 18.729 24.9967L10.5581 23.846C10.2379 23.8008 10 23.5305 10 23.2116V12.7884C10 12.4695 10.2379 12.1992 10.5581 12.1541ZM19.75 12.2327H22.35C22.709 12.2327 23 12.5196 23 12.8735V23.1266C23 23.4805 22.709 23.7674 22.35 23.7674H19.75V12.2327ZM15.33 18L17.15 15.4367H15.59L14.55 16.9015L13.51 15.4367H11.95L13.77 18L11.95 20.5633H13.51L14.55 19.0986L15.59 20.5633H17.15L15.33 18Z" fill="#484848"/>
</svg>
