<svg width="34" height="35" viewBox="0 0 34 35" fill="none" xmlns="http://www.w3.org/2000/svg">
<circle cx="17" cy="17.873" r="16.5" stroke="#484848"/>
<path d="M11.845 11.1605C12.8236 10.8126 13.9582 11.0303 14.7414 11.8135C15.5248 12.5969 15.7424 13.732 15.3941 14.7107L24 23.3166L22.3166 25L13.7098 16.3944C12.7313 16.7423 11.5967 16.5246 10.8135 15.7414C10.0301 14.958 9.81249 13.8229 10.1608 12.8442L11.9358 14.6191C12.4006 15.084 13.1543 15.084 13.6191 14.6191C14.084 14.1543 14.084 13.4006 13.6191 12.9358L11.845 11.1605ZM20.0721 12.6552L22.5972 11.2524L23.7195 12.3746L22.3166 14.8997L20.9138 15.1803L19.2304 16.8637L18.1082 15.7414L19.7915 14.058L20.0721 12.6552ZM14.4608 18.8276L16.1442 20.511L12.2163 24.4389C11.7515 24.9037 10.9978 24.9037 10.5329 24.4389C10.0954 24.0014 10.0697 23.308 10.4557 22.8404L10.5329 22.7555L14.4608 18.8276Z" fill="#484848"/>
</svg>
