<svg width="25" height="25" viewBox="0 0 25 25" fill="none" xmlns="http://www.w3.org/2000/svg">
<path d="M16.7423 2.21484H8.61341C7.02507 2.21671 5.50232 2.84857 4.37929 3.9718C3.25625 5.09502 2.62465 6.61787 2.62305 8.20621L2.62305 16.3351C2.62491 17.9234 3.25678 19.4461 4.38 20.5692C5.50323 21.6922 7.02607 22.3238 8.61442 22.3254H16.7433C18.3316 22.3236 19.8543 21.6917 20.9774 20.5685C22.1004 19.4452 22.732 17.9224 22.7336 16.334V8.20521C22.7318 6.61686 22.0999 5.09412 20.9767 3.97109C19.8534 2.84805 18.3306 2.21644 16.7423 2.21484V2.21484ZM20.711 16.334C20.711 16.8552 20.6083 17.3713 20.4089 17.8528C20.2094 18.3343 19.9171 18.7718 19.5486 19.1404C19.18 19.5089 18.7425 19.8012 18.261 20.0007C17.7795 20.2001 17.2634 20.3028 16.7423 20.3028H8.61341C7.56101 20.3025 6.55181 19.8843 5.80775 19.14C5.06368 18.3958 4.64569 17.3864 4.64569 16.334V8.20521C4.64596 7.15281 5.06421 6.14361 5.80846 5.39954C6.55271 4.65548 7.56202 4.23749 8.61442 4.23749H16.7433C17.7957 4.23775 18.8049 4.656 19.5489 5.40026C20.293 6.14451 20.711 7.15382 20.711 8.20621V16.3351V16.334Z" fill="#E2E8F0"/>
<path d="M12.6782 7.06885C11.2996 7.07098 9.97814 7.61962 9.00345 8.5945C8.02876 9.56937 7.48038 10.8909 7.47852 12.2695C7.48011 13.6484 8.02852 14.9704 9.00345 15.9455C9.97839 16.9206 11.3003 17.4693 12.6792 17.4711C14.0582 17.4695 15.3804 16.921 16.3555 15.9459C17.3307 14.9707 17.8792 13.6486 17.8808 12.2695C17.8787 10.8906 17.3298 9.56883 16.3545 8.59408C15.3791 7.61934 14.0571 7.07119 12.6782 7.06986V7.06885ZM12.6782 15.4485C11.8353 15.4485 11.027 15.1137 10.431 14.5177C9.83497 13.9217 9.50015 13.1134 9.50015 12.2705C9.50015 11.4276 9.83497 10.6193 10.431 10.0233C11.027 9.42732 11.8353 9.0925 12.6782 9.0925C13.521 9.0925 14.3294 9.42732 14.9253 10.0233C15.5213 10.6193 15.8562 11.4276 15.8562 12.2705C15.8562 13.1134 15.5213 13.9217 14.9253 14.5177C14.3294 15.1137 13.521 15.4485 12.6782 15.4485V15.4485Z" fill="#E2E8F0"/>
<path d="M17.8896 8.35434C18.5777 8.35434 19.1356 7.79648 19.1356 7.10832C19.1356 6.42017 18.5777 5.8623 17.8896 5.8623C17.2014 5.8623 16.6436 6.42017 16.6436 7.10832C16.6436 7.79648 17.2014 8.35434 17.8896 8.35434Z" fill="#E2E8F0"/>
</svg>
